<svg xmlns="http://www.w3.org/2000/svg" viewBox="0 0 34 30" fill="none">
  <path d="M0 7.50663H5.39955V9.28453C6.78237 8.03341 8.69197 7.30908 10.865 7.30908C14.0915 7.30908 16.2645 8.4285 17.6473 10.4039C19.5569 8.23096 22.2567 7.30908 24.9565 7.30908C31.2121 7.30908 33.5168 11.4575 33.5168 17.9765V29.4999H28.1172V19.2935C28.1172 14.6841 27.4587 12.2477 23.7712 12.2477C21.0056 12.2477 19.3594 14.1573 19.3594 17.2522V29.4341H13.9598V19.2935C13.9598 14.6841 13.3013 12.2477 9.61384 12.2477C6.84822 12.2477 5.20201 14.1573 5.20201 17.2522V29.4341H0V7.50663Z" fill="#0a0a0f"/>
</svg>
