<svg width="295" height="38" viewBox="0 0 295 38" fill="none" xmlns="http://www.w3.org/2000/svg">
<path d="M0 7.50663H5.39955V9.28453C6.78237 8.03341 8.69197 7.30908 10.865 7.30908C14.0915 7.30908 16.2645 8.4285 17.6473 10.4039C19.5569 8.23096 22.2567 7.30908 24.9565 7.30908C31.2121 7.30908 33.5168 11.4575 33.5168 17.9765V29.4999H28.1172V19.2935C28.1172 14.6841 27.4587 12.2477 23.7712 12.2477C21.0056 12.2477 19.3594 14.1573 19.3594 17.2522V29.4341H13.9598V19.2935C13.9598 14.6841 13.3013 12.2477 9.61384 12.2477C6.84822 12.2477 5.20201 14.1573 5.20201 17.2522V29.4341H0V7.50663Z" fill="black"/>
<path d="M38.7191 0.0656738C40.2336 0.0656738 41.4188 1.25094 41.4188 2.76545C41.4188 4.27996 40.2336 5.46523 38.7191 5.46523C37.2046 5.46523 36.0193 4.27996 36.0193 2.76545C36.0193 1.25094 37.2046 0.0656738 38.7191 0.0656738ZM36.0193 7.50652H41.4188V29.434H36.0193V7.50652Z" fill="black"/>
<path d="M44.1838 0.0656738H49.5834V29.434H44.1838V0.0656738Z" fill="black"/>
<path d="M69.338 27.9854C67.5601 29.1706 65.1895 29.895 62.9507 29.895C56.5634 29.895 51.4272 24.7588 51.4272 18.5691C51.4272 12.2476 56.5634 7.24316 62.9507 7.24316C65.1895 7.24316 67.4284 7.90165 69.338 9.21861V7.44071H74.7375V29.3682H69.338V27.9854ZM63.0165 24.8905C66.5065 24.8905 69.4038 21.9932 69.4038 18.5691C69.4038 15.145 66.5065 12.2476 63.0165 12.2476C59.5266 12.2476 56.6293 15.145 56.6293 18.5691C56.6293 21.9932 59.5266 24.8905 63.0165 24.8905Z" fill="black"/>
<path d="M77.5034 7.50663H82.903V9.28453C84.3516 8.03341 86.3929 7.30908 88.8293 7.30908C95.4141 7.30908 97.8505 11.4575 97.8505 17.9765V29.4999H92.451V19.2935C92.451 14.6841 91.7925 12.2477 87.7099 12.2477C84.6809 12.2477 82.903 14.1573 82.903 17.2522V29.4341H77.5034V7.50663Z" fill="black"/>
<path d="M117.276 27.9854C115.498 29.1706 113.127 29.895 110.888 29.895C104.501 29.895 99.365 24.7588 99.365 18.5691C99.365 12.2476 104.501 7.24316 110.888 7.24316C113.127 7.24316 115.366 7.90165 117.276 9.21861V7.44071H122.675V29.3682H117.276V27.9854ZM110.954 24.8905C114.444 24.8905 117.342 21.9932 117.342 18.5691C117.342 15.145 114.444 12.2476 110.954 12.2476C107.464 12.2476 104.567 15.145 104.567 18.5691C104.567 21.9932 107.464 24.8905 110.954 24.8905Z" fill="black"/>
<path d="M127.087 5.53108H125.441V2.76545C125.441 1.25094 126.626 0.0656738 128.14 0.0656738C129.655 0.0656738 130.84 1.25094 130.84 2.76545V4.93844C130.84 5.20184 130.774 5.46523 130.709 5.72862C130.248 7.24313 128.865 8.23085 127.284 8.23085C127.021 8.23085 126.823 7.96746 126.823 7.70407L127.087 5.53108Z" fill="black"/>
<path d="M137.491 22.3883C137.491 23.9028 138.874 25.7466 141.837 25.7466C144.273 25.7466 145.458 24.5613 145.458 23.3761C145.458 21.7298 143.154 21.4665 140.981 21.1372C138.347 20.7421 132.289 20.1495 132.289 14.4207C132.289 10.2064 135.581 7.30908 141.31 7.30908C146.973 7.30908 150.331 10.0747 150.66 14.4865H145.195C145.063 13.1696 144.668 11.6551 141.508 11.6551C139.4 11.6551 138.083 12.3135 138.083 13.433C138.083 15.2109 141.047 15.4743 143.285 15.8694C147.697 16.5937 151.516 17.779 151.516 22.7176C151.516 27.722 147.368 29.9609 141.771 29.9609C135.515 29.9609 131.96 27.1294 131.762 22.4542H137.491V22.3883Z" fill="black"/>
<path d="M179.831 27.9855C178.053 29.1708 175.683 29.8951 173.444 29.8951C167.057 29.8951 161.921 24.7589 161.921 18.5692C161.921 12.2478 167.057 7.2433 173.444 7.2433C175.683 7.2433 177.922 7.90179 179.831 9.21875V0H185.231V29.3683H179.831V27.9855ZM173.51 24.8906C177 24.8906 179.897 21.9933 179.897 18.5692C179.897 15.1451 177 12.2478 173.51 12.2478C170.02 12.2478 167.123 15.1451 167.123 18.5692C167.123 21.9933 170.02 24.8906 173.51 24.8906Z" fill="black"/>
<path d="M209.332 24.5612C207.027 27.9854 203.735 29.895 198.993 29.895C192.079 29.895 187.075 25.0222 187.075 18.5691C187.075 12.2476 192.211 7.24316 198.598 7.24316C206.039 7.24316 210.78 13.4987 210.056 20.347H192.606C193.528 23.1784 195.767 24.8246 199.059 24.8246C201.825 24.8246 203.471 23.9686 204.854 22.059L209.332 24.5612ZM204.393 16.1327C203.339 13.6304 201.43 12.2476 198.598 12.2476C195.964 12.2476 193.726 13.8938 192.738 16.1327H204.393Z" fill="black"/>
<path d="M216.97 22.3883C216.97 23.9028 218.353 25.7466 221.316 25.7466C223.752 25.7466 224.938 24.5613 224.938 23.3761C224.938 21.7298 222.633 21.4665 220.46 21.1372C217.826 20.7421 211.768 20.1495 211.768 14.4207C211.768 10.2064 215.06 7.30908 220.789 7.30908C226.452 7.30908 229.81 10.0747 230.14 14.4865H224.674C224.543 13.1696 224.147 11.6551 220.987 11.6551C218.88 11.6551 217.563 12.3135 217.563 13.433C217.563 15.2109 220.526 15.4743 222.765 15.8694C227.176 16.5937 230.996 17.779 230.996 22.7176C230.996 27.722 226.847 29.9609 221.25 29.9609C214.995 29.9609 211.439 27.1294 211.241 22.4542H216.97V22.3883Z" fill="black"/>
<path d="M235.408 0.0656738C236.922 0.0656738 238.108 1.25094 238.108 2.76545C238.108 4.27996 236.922 5.46523 235.408 5.46523C233.893 5.46523 232.708 4.27996 232.708 2.76545C232.708 1.25094 233.959 0.0656738 235.408 0.0656738ZM232.708 7.50652H238.108V29.434H232.708V7.50652Z" fill="black"/>
<path d="M292.3 24.0347C293.815 24.0347 295 25.2199 295 26.7344C295 28.249 293.815 29.4342 292.3 29.4342C290.786 29.4342 289.6 28.249 289.6 26.7344C289.6 25.2199 290.851 24.0347 292.3 24.0347Z" fill="black"/>
<path d="M243.836 29.4999C246.272 31.2119 248.445 32.3972 251.54 32.3972C254.832 32.3972 257.796 30.4876 257.927 27.9195C256.149 29.1048 253.779 29.895 251.54 29.895C245.153 29.895 240.017 24.9563 240.017 18.5691C240.017 12.2476 245.153 7.24316 251.54 7.24316C253.779 7.24316 256.018 7.90165 257.927 9.21861V7.44071H263.327V26.7342C263.327 33.2532 259.442 37.3358 251.606 37.3358C247.853 37.3358 244.033 36.0188 241.202 33.5825L243.836 29.4999ZM251.54 24.8905C255.03 24.8905 257.927 21.9932 257.927 18.5691C257.927 15.145 255.03 12.2476 251.54 12.2476C248.05 12.2476 245.153 15.145 245.153 18.5691C245.153 21.9932 248.05 24.8905 251.54 24.8905Z" fill="black"/>
<path d="M266.027 7.50663H271.426V9.28453C272.875 8.03341 274.916 7.30908 277.352 7.30908C283.937 7.30908 286.374 11.4575 286.374 17.9765V29.4999H280.974V19.2935C280.974 14.6841 280.316 12.2477 276.233 12.2477C273.204 12.2477 271.426 14.1573 271.426 17.2522V29.4341H266.027V7.50663Z" fill="black"/>
</svg>
