<svg width="315" height="70" viewBox="0 0 315 70" fill="none" xmlns="http://www.w3.org/2000/svg">
<path d="M88.4627 22.5166C87.6043 3.83197 71.9361 -4.19636 58.165 2.13533C54.6159 3.7694 51.1917 6.35406 48.186 9.95911C47.4072 9.54248 46.6043 9.17282 45.7814 8.85209C41.6905 7.20961 37.1802 6.92779 32.9169 8.04829C28.8906 9.13935 25.3199 11.4934 22.7287 14.765C20.5838 17.4339 19.0569 20.7309 18.237 24.413C14.5147 25.0146 11.1363 26.3382 8.34213 28.314C4.92365 30.709 2.36112 34.1364 1.0298 38.0943C-0.352833 42.2048 -0.340811 46.6714 1.05144 51.0008C2.49419 55.4457 5.34362 59.5441 9.33282 62.8556C10.9925 64.2153 12.8157 65.3617 14.76 66.2681C15.2938 66.5264 15.8436 66.7671 16.4095 66.9901C16.4187 66.9938 16.4291 66.9938 16.4383 66.9901L16.7942 67.1393H16.8327C21.702 69.0285 27.2109 69.7986 32.5274 69.9598C34.1337 70.0079 35.7231 70.0007 37.274 69.9598L72.6406 69.8683C78.5823 69.9839 84.6635 69.4424 90.0834 67.7024L90.5643 67.5484C93.4008 66.6365 96.0779 65.2879 98.4995 63.5511C116.988 49.9708 111.869 25.0194 88.4627 22.5166ZM51.4923 57.7561C36.1295 63.8808 23.6184 60.2132 18.0446 57.8283C15.4194 56.7239 13.0925 55.0136 11.2541 52.837C8.52968 49.5665 6.86331 44.7582 8.30125 40.5635C9.91232 35.8707 14.3632 32.3812 19.1339 31.4402C20.5983 31.1586 22.9355 31.4402 24.0609 30.3043C25.1862 29.1684 24.9169 26.834 25.2006 25.3708C26.1264 20.5937 29.6275 16.1416 34.3116 14.5412C38.5052 13.0973 43.3095 14.7674 46.575 17.4941C48.7503 19.335 50.46 21.6645 51.5645 24.2927C53.9498 29.8591 57.612 42.3805 51.4923 57.7561Z" fill="black"/>
<path d="M121.785 13.418H159.523V21.7447H145.718V56.9409H135.715V21.7447H121.785V13.418Z" fill="black"/>
<path d="M151.542 41.7115C151.542 37.2417 153.108 33.4714 156.241 30.4007C159.373 27.3299 163.69 25.7953 169.192 25.7969C174.694 25.7969 179.011 27.3315 182.143 30.4007C185.275 33.4698 186.842 37.2401 186.844 41.7115C186.844 46.2247 185.288 49.995 182.177 53.0224C179.022 56.0916 174.694 57.6254 169.192 57.6238C163.69 57.6222 159.373 56.0884 156.241 53.0224C153.108 49.9484 151.542 46.1781 151.542 41.7115ZM163.58 47.4633C164.796 48.9987 166.667 49.7663 169.192 49.7663C171.672 49.7663 173.555 48.9987 174.84 47.4633C176.126 45.9279 176.767 44.0106 176.764 41.7115C176.764 39.2296 176.133 37.2666 174.871 35.8227C173.61 34.3787 171.716 33.6567 169.189 33.6567C164.186 33.6567 161.684 36.3417 161.682 41.7115C161.684 44.0122 162.316 45.9295 163.58 47.4633Z" fill="black"/>
<path d="M188.941 41.7115C188.941 37.2417 190.507 33.4714 193.639 30.4007C196.772 27.3299 201.089 25.7953 206.59 25.7969C212.092 25.7969 216.409 27.3315 219.541 30.4007C222.674 33.4698 224.241 37.2401 224.242 41.7115C224.242 46.2247 222.687 49.995 219.575 53.0224C216.42 56.0916 212.092 57.6254 206.59 57.6238C201.089 57.6222 196.772 56.0884 193.639 53.0224C190.505 49.9484 188.939 46.1781 188.941 41.7115ZM200.978 47.4633C202.195 48.9987 204.065 49.7663 206.59 49.7663C209.069 49.7663 210.951 48.9987 212.239 47.4633C213.526 45.9279 214.167 44.0106 214.162 41.7115C214.162 39.2296 213.532 37.2666 212.27 35.8227C211.008 34.3787 209.114 33.6567 206.588 33.6567C201.583 33.6567 199.081 36.3417 199.081 41.7115C199.082 44.0122 199.715 45.9295 200.978 47.4633Z" fill="black"/>
<path d="M227.488 56.9409V13.418H238.174L253.999 47.8705L269.756 13.418H280.442V56.9409H270.432V31.0172L258.801 56.9409H249.13L237.496 31.0172V56.9409H227.488Z" fill="black"/>
<path d="M282.268 41.7795C282.268 37.0867 283.745 33.2514 286.699 30.2737C289.654 27.2959 293.677 25.8063 298.77 25.8047C303.82 25.8047 307.787 27.2823 310.673 30.2376C313.558 33.1929 315.001 37.1757 315.001 42.1862C315.001 42.9539 314.977 43.7192 314.934 44.4869H291.939C292.022 45.2663 292.275 46.0181 292.678 46.6901C293.081 47.3621 293.626 47.9381 294.274 48.3783C295.656 49.3211 297.3 49.8067 298.972 49.7669C300.157 49.8016 301.338 49.618 302.456 49.2254C303.38 48.8645 303.979 48.5035 304.248 48.1425L304.587 47.6612H314.46C314.388 48.0298 314.286 48.392 314.155 48.7441C313.998 49.1942 313.534 49.9859 312.77 51.1122C312.014 52.2284 311.116 53.2413 310.098 54.1252C309.083 55.0044 307.585 55.8066 305.602 56.5318C303.45 57.2813 301.183 57.6479 298.905 57.6148C293.99 57.6148 289.989 56.1708 286.901 53.2829C283.814 50.395 282.269 46.5606 282.268 41.7795ZM292.006 38.2587H305.472C305.467 37.5807 305.291 36.9148 304.961 36.3232C304.63 35.7315 304.155 35.2333 303.579 34.875C302.363 34.0632 300.784 33.6573 298.845 33.6573C296.995 33.6573 295.462 34.0745 294.247 34.9087C293.666 35.2861 293.168 35.7776 292.783 36.3535C292.398 36.9293 292.134 37.5775 292.006 38.2587Z" fill="black"/>
</svg>
