<svg width="143" height="62" viewBox="0 0 143 62" fill="none" xmlns="http://www.w3.org/2000/svg">
<path d="M29.0359 0.3369C19.7666 -0.316208 10.312 0.1814 0.579284 0.1814C-0.471232 10.6933 0.0231055 57.6238 1.13542 61.8223C6.82322 62.1665 12.53 62.0104 18.1909 61.3558C39.3557 57.5616 51.2512 30.5976 45.597 13.5546C44.5847 9.86893 42.4351 6.60244 39.4584 4.22667C36.4817 1.85089 32.8318 0.488746 29.0359 0.3369ZM32.1256 44.3128C30.1261 48.4725 27.4648 52.2754 24.2468 55.5712C22.5465 57.3666 20.4356 58.7161 18.0984 59.5021C15.7611 60.2881 13.2683 60.4868 10.8372 60.0807V1.67422C14.4778 1.3931 18.1344 1.3931 21.775 1.67422C29.6539 2.94933 33.2689 8.734 35.0609 15.9493C37.3522 25.477 36.2591 35.5113 31.9712 44.3128H32.1256Z" fill="#191919"/>
<path d="M121.968 0H108.658C112.237 4.58329 111.138 9.00962 109.192 13.1534C105.906 20.2272 102.767 27.3742 99.7747 34.5944C97.8754 39.0787 96.271 43.6822 94.9719 48.3757C93.5574 52.8297 93.6902 57.631 95.3486 62H107.905C106.335 56.5377 104.766 51.5149 103.29 45.8957C117.668 44.3575 126.614 50.8243 132.233 62H143C135.874 41.1868 128.968 20.4365 121.968 0ZM103.636 43.4785C103.35 41.1852 103.35 38.8654 103.636 36.5721C105.488 29.8228 107.434 23.1048 109.914 16.5752C111.295 12.9651 114.497 12.8395 115.753 16.1671C119.112 25.0197 122.031 34.0294 125.17 43.4785H103.636Z" fill="#191919"/>
<path d="M76.5013 53.6034C74.3935 54.9451 72.3787 56.4739 70.3019 57.8156C67.481 59.8889 63.959 60.7527 60.5068 60.2181C60.5068 47.9561 59.9488 35.85 60.8787 23.9936C62.0378 23.4713 63.3283 23.3199 64.5756 23.5598C65.823 23.7998 66.9671 24.4195 67.8531 25.3353C69.9919 26.9577 72.0067 28.7986 74.2386 30.3586C75.7948 31.6074 77.6339 32.4489 79.5919 32.8082C81.5498 33.1675 83.5656 33.0335 85.4596 32.4179C84.8086 28.9546 84.1577 25.6473 83.6927 23.0576L60.4448 20.8423C60.4448 16.599 60.4448 12.73 60.4448 8.8611C60.7237 2.24648 64.6604 -0.155999 70.5809 2.8705C73.8356 4.52416 76.7804 6.77064 79.8801 8.67391C82.7898 10.8427 86.3735 11.8939 89.9852 11.638C89.3342 7.67546 88.7453 3.65053 88.1564 0H50.6186C49.5337 11.5132 49.9677 57.5972 51.2076 61.7781C57.717 61.7781 64.2884 62.2773 70.7669 61.7781C76.9176 60.6018 83.2391 60.6654 89.3653 61.9653C90.2332 58.1276 91.0391 54.5707 92 50.4521C86.6239 49.503 81.0899 50.6282 76.5013 53.6034Z" fill="#191919"/>
</svg>
