<svg width="321" height="145" viewBox="0 0 321 145" fill="none" xmlns="http://www.w3.org/2000/svg">
<path d="M13.3967 0H0V90.2252H13.3967V0Z" fill="#20244A"/>
<path d="M40.6623 28.748H27.2656V90.2253H40.6623V28.748Z" fill="#20244A"/>
<path d="M40.6623 96.8613H27.2656V144.024H40.6623V96.8613Z" fill="#20244A"/>
<path d="M13.3967 96.8613H0V123.524H13.3967V96.8613Z" fill="#20244A"/>
<path d="M81.7502 94.61V95.8898H76.0088V104.682H82.9316V105.962H74.6147V84.8457H82.9316V86.1018H76.0088V94.61H81.7502Z" fill="#20244A"/>
<path d="M103.417 84.6556C104.124 84.6281 104.827 84.766 105.472 85.0585C106.011 85.3047 106.481 85.6789 106.843 86.1487C107.219 86.6507 107.492 87.2226 107.646 87.8314C107.821 88.5207 107.908 89.2294 107.906 89.9406V90.3909H106.583V89.8458C106.579 89.3202 106.524 88.7963 106.417 88.2817C106.309 87.8423 106.125 87.4252 105.874 87.0493C105.612 86.6993 105.272 86.4153 104.881 86.2198C104.43 86.0105 103.938 85.9052 103.44 85.9117C102.984 85.8766 102.526 85.9608 102.112 86.156C101.698 86.3513 101.342 86.6508 101.077 87.0256C100.575 87.8687 100.329 88.8406 100.369 89.8221C100.351 90.5922 100.539 91.353 100.912 92.0262C101.305 92.636 101.782 93.1866 102.33 93.6615C102.914 94.173 103.53 94.6479 104.173 95.0835C104.813 95.5396 105.428 96.0301 106.016 96.5529C106.573 97.084 107.043 97.6999 107.41 98.3778C107.807 99.1452 108.002 100.002 107.977 100.866C107.979 101.578 107.892 102.286 107.717 102.976C107.563 103.584 107.29 104.156 106.913 104.658C106.534 105.129 106.048 105.503 105.496 105.748C104.847 106.029 104.146 106.167 103.44 106.151C102.727 106.164 102.018 106.027 101.361 105.748C100.812 105.509 100.332 105.134 99.967 104.658C99.576 104.162 99.2942 103.589 99.14 102.976C98.9651 102.286 98.8778 101.578 98.8802 100.866V99.7761H100.109V100.961C100.079 101.937 100.334 102.901 100.841 103.734C101.11 104.104 101.468 104.399 101.88 104.594C102.293 104.789 102.749 104.876 103.204 104.848C103.659 104.872 104.112 104.783 104.525 104.588C104.937 104.394 105.295 104.1 105.567 103.734C106.066 102.898 106.312 101.935 106.275 100.961C106.307 100.197 106.118 99.44 105.732 98.7807C105.352 98.1616 104.873 97.6092 104.314 97.1454C103.73 96.6339 103.114 96.159 102.471 95.7234C101.829 95.2887 101.221 94.8054 100.652 94.2777C100.075 93.75 99.595 93.1242 99.2345 92.4291C98.8371 91.6532 98.642 90.7889 98.6675 89.9169C98.5953 88.5625 98.9688 87.2218 99.7307 86.1013C100.174 85.5687 100.745 85.157 101.389 84.9043C102.033 84.6516 102.731 84.566 103.417 84.6556Z" fill="#20244A"/>
<path d="M127.54 105.962V86.1018H123.264V84.8457H133.187V86.1018H128.934V105.962H127.54Z" fill="#20244A"/>
<path d="M150.789 101.293L149.75 106.033H148.474L153.199 84.8691H155.231L159.956 106.033H158.586L157.523 101.293H150.789ZM151.002 100.084H157.145L154.05 86.4096L151.002 100.084Z" fill="#20244A"/>
<path d="M179.284 105.962V86.1018H175.031V84.8457H184.978V86.1018H180.678V105.962H179.284Z" fill="#20244A"/>
<path d="M207.66 94.61V95.8898H201.918V104.682H208.794V105.962H200.524V84.8457H208.794V86.1018H201.871V94.61H207.66Z" fill="#20244A"/>
<path d="M81.6793 143.668H80.3089L75.8434 124.969V143.692H74.6147V122.552H76.5994L81.0177 141.251L85.4124 122.552H87.3971V143.692H86.074V124.922L81.6793 143.668Z" fill="#20244A"/>
<path d="M105.661 138.999L104.622 143.739H103.346L107.953 122.575H109.961L114.687 143.739H113.316L112.253 138.999H105.661ZM105.874 137.79H111.922L108.827 124.139L105.874 137.79Z" fill="#20244A"/>
<path d="M131.887 143.692H130.611V122.552H132.407L138.739 140.398V122.552H139.991V143.692H138.456L131.887 124.732V143.692Z" fill="#20244A"/>
<path d="M158.231 138.999L157.168 143.739H155.916L160.523 122.575H162.532L167.257 143.739H165.863L164.823 138.999H158.231ZM158.444 137.79H164.587L161.539 124.139L158.444 137.79Z" fill="#20244A"/>
<path d="M187.53 122.386C188.237 122.359 188.941 122.497 189.585 122.789C190.139 123.043 190.625 123.425 191.003 123.903C191.385 124.405 191.666 124.976 191.83 125.586C191.995 126.284 192.075 127.001 192.066 127.719V129.212H190.743V127.553C190.75 127.027 190.695 126.502 190.578 125.989C190.49 125.535 190.304 125.107 190.034 124.733C189.79 124.36 189.446 124.064 189.042 123.879C188.578 123.657 188.067 123.551 187.553 123.571C187.047 123.553 186.545 123.659 186.088 123.879C185.684 124.064 185.34 124.36 185.096 124.733C184.828 125.11 184.635 125.537 184.529 125.989C184.424 126.503 184.368 127.027 184.364 127.553V138.692C184.367 139.217 184.422 139.741 184.529 140.256C184.635 140.708 184.828 141.134 185.096 141.512C185.358 141.862 185.698 142.146 186.088 142.341C186.555 142.544 187.057 142.649 187.565 142.649C188.073 142.649 188.576 142.544 189.042 142.341C189.432 142.146 189.772 141.862 190.034 141.512C190.304 141.138 190.49 140.709 190.578 140.256C190.696 139.743 190.752 139.218 190.743 138.692V134.07H187.955V132.79H192.255V138.526C192.264 139.244 192.184 139.96 192.019 140.659C191.855 141.268 191.574 141.84 191.192 142.341C190.814 142.82 190.328 143.202 189.774 143.455C188.456 143.993 186.981 143.993 185.663 143.455C185.11 143.202 184.624 142.82 184.246 142.341C183.862 141.844 183.588 141.271 183.442 140.659C183.257 139.963 183.17 139.245 183.182 138.526V127.719C183.17 126.999 183.257 126.281 183.442 125.586C183.588 124.974 183.862 124.4 184.246 123.903C184.624 123.425 185.11 123.043 185.663 122.789C186.25 122.524 186.886 122.387 187.53 122.386Z" fill="#20244A"/>
<path d="M215.457 132.34V133.596H209.715V142.412H216.638V143.692H208.321V122.552H216.638V123.832H209.715V132.34H215.457Z" fill="#20244A"/>
<path d="M239.793 143.668H238.423L233.957 124.969V143.692H232.729V122.552H234.784L239.202 141.251L243.597 122.552H245.582V143.692H244.235V124.922L239.793 143.668Z" fill="#20244A"/>
<path d="M268.902 132.34V133.596H263.137V142.412H270.06V143.692H261.767V122.552H270.06V123.832H263.137V132.34H268.902Z" fill="#20244A"/>
<path d="M287.426 143.692H286.173V122.552H287.969L294.277 140.398V122.552H295.553V143.692H294.018L287.426 124.732V143.692Z" fill="#20244A"/>
<path d="M315.306 143.692V123.832H311.053V122.552H321V123.832H316.7V143.692H315.306Z" fill="#20244A"/>
<path fill-rule="evenodd" clip-rule="evenodd" d="M78.6786 68.0189H74.9219V43.7266H78.6786V54.1308H82.9315V43.7266H86.7591V68.0189H82.9315V57.6146H78.6786V68.0189Z" fill="#20244A"/>
<path fill-rule="evenodd" clip-rule="evenodd" d="M122.129 68.0189H118.325L117.687 63.6107H112.962L112.3 68.0189H108.875L112.679 43.7266H118.184L122.129 68.0189ZM113.553 60.3164H117.168L115.372 48.0399L113.553 60.3164Z" fill="#20244A"/>
<path fill-rule="evenodd" clip-rule="evenodd" d="M147.859 59.9846L143.134 43.7266H147.056L149.915 54.7944L152.797 43.7266H156.365L151.64 59.9846V68.0189H147.883L147.859 59.9846Z" fill="#20244A"/>
<path fill-rule="evenodd" clip-rule="evenodd" d="M188.805 68.0189H185.025L184.363 63.6107H179.756L179.118 68.0189H175.716L179.543 43.7266H185.025L188.805 68.0189ZM180.252 60.3164H183.867L182.048 48.0399L180.252 60.3164Z" fill="#20244A"/>
<path fill-rule="evenodd" clip-rule="evenodd" d="M209.928 43.7266H221.529V47.2104H217.607V68.0189H213.85V47.2104H209.928V43.7266Z" fill="#20244A"/>
</svg>
