<svg width="230" height="45" viewBox="0 0 230 45" fill="none" xmlns="http://www.w3.org/2000/svg">
<g clip-path="url(#clip0_2001_10)">
<path fill-rule="evenodd" clip-rule="evenodd" d="M150.172 44.9472L155.78 44.9255L155.802 10.2061C157.839 13.0926 160.066 15.8829 162.138 18.8319C164.21 21.7809 166.378 24.5639 168.477 27.5586L177.954 40.5766C178.508 41.3391 180.622 44.5214 181.301 44.9279L186.711 44.9953V1.12339L181.071 1.14744V35.2607C180.426 34.7796 178.086 31.2701 177.505 30.5293C174.703 26.9573 170.034 20.2558 167.317 16.4577L157.018 2.29962C156 0.856391 156.417 1.12339 154.144 1.13782H150.245C149.931 2.24671 150.125 20.2005 150.132 22.9547C150.132 30.2863 150.167 37.6276 150.132 44.9568" fill="#1D1D1B"/>
<path fill-rule="evenodd" clip-rule="evenodd" d="M103.574 26.9407C104.916 27.1043 108.273 30.1014 108.3 33.06C108.358 39.2082 98.0228 41.8541 90.0069 36.632C87.9692 35.3018 87.751 34.4191 86.6328 34.1497L82.8296 37.8395C88.7146 44.2932 100.661 47.8604 109.067 42.0538C111.661 40.2618 112.745 38.6501 113.841 34.9939C115.087 21.1317 99.4941 20.3067 94.0333 16.9968C87.5474 13.0785 90.7303 7.82028 94.7689 6.18943C99.3641 4.33006 106.902 6.85331 109.155 9.36694C109.943 8.84738 112.211 6.09321 112.89 5.1984C110.026 2.40575 103.751 -0.148771 98.067 0.00036305C85.7059 0.332307 79.6173 13.5186 89.8524 20.8888C95.0852 24.6941 102.11 25.0164 103.574 26.9407Z" fill="#1D1D1B"/>
<path fill-rule="evenodd" clip-rule="evenodd" d="M203.405 15.2886L208.554 23.503C209.395 24.8668 209.66 24.9462 209.648 26.8272C209.604 32.8671 209.665 38.9143 209.648 44.9614H215.265V30.125C215.265 26.4688 214.831 25.9396 216.217 23.7026L224.554 10.1338C225.493 8.61842 226.425 7.08138 227.384 5.53471C228.016 4.51242 229.738 1.96512 230 1.07031H223.593C222.774 2.03247 221.501 4.37291 220.734 5.62612L212.487 19.0025C211.261 17.9465 203.363 3.69458 201.34 1.10879H194.942C195.099 1.83041 200.212 9.91252 201.276 11.6372C201.899 12.6643 202.973 14.1676 203.412 15.2934" fill="#1D1D1B"/>
<path fill-rule="evenodd" clip-rule="evenodd" d="M126.789 6.5927L128.917 6.66246C129.407 7.14354 129.209 7.0377 129.197 8.75755V44.9803H134.76V17.5709L134.687 1.07715L126.806 1.09398L126.789 6.5927Z" fill="#1D1D1B"/>
<path fill-rule="evenodd" clip-rule="evenodd" d="M40.4744 2.84754C39.6971 3.47053 38.7163 3.9468 37.9341 4.56017C35.9724 6.0924 36.9728 5.39484 35.683 6.61918C30.4895 11.5454 28.6676 18.0207 29.1948 25.5207C30.4208 31.8926 32.9293 36.8549 38.2676 40.7204C47.7082 47.5661 56.0919 44.0879 58.034 44.2154L59.6058 43.5154C67.8841 40.2441 72.6019 33.6245 73.9334 24.5538C74.3331 14.1913 69.8776 8.01912 64.2451 3.9468C61.565 2.01046 57.2272 0.324287 52.9655 0.0548831C47.4556 -0.296304 44.643 1.05312 40.4744 2.84754ZM49.481 5.69311C59.4047 4.3942 67.1754 11.9808 68.2176 20.3828C69.4436 30.1511 62.2565 38.3294 53.6153 39.3637C43.5077 40.5664 35.8154 33.1675 34.7758 24.5441C34.1923 20.1328 35.4121 15.6742 38.1688 12.1421C40.9254 8.61007 44.9949 6.29162 49.4884 5.69311" fill="#1D1D1B"/>
<path fill-rule="evenodd" clip-rule="evenodd" d="M5.10036 6.73469L12.876 6.62645V29.3165C12.876 33.4056 12.4052 35.7028 9.93346 37.7353C7.21653 39.9748 3.85715 39.0992 0.00244141 39.4191V44.8384C7.54757 45.5601 12.3635 43.8883 15.745 39.7535C19.3716 35.3227 18.6262 28.4481 18.5158 21.9656L18.4545 1.08203H5.0832L5.10036 6.73469Z" fill="#1D1D1B"/>
</g>
<defs>
<clipPath id="clip0_2001_10">
<rect width="230" height="45" fill="white"/>
</clipPath>
</defs>
</svg>
