<svg width="218" height="58" viewBox="0 0 218 58" fill="none" xmlns="http://www.w3.org/2000/svg">
<path d="M117.737 7.82099H125.376C129.27 7.82099 132.019 9.79035 132.019 13.2801C132.019 15.2495 131.053 16.9481 129.425 17.8144V17.873C131.779 18.5588 132.896 20.7064 132.896 22.8539C132.896 27.0904 129.454 28.9989 125.497 28.9989H117.737V7.82099ZM125.406 16.4722C127.098 16.4722 128.064 15.2788 128.064 13.7584C128.064 12.2379 127.125 11.1326 125.346 11.1326H121.631V16.4722H125.406ZM125.801 25.6895C127.792 25.6895 128.911 24.406 128.911 22.6171C128.911 20.8282 127.765 19.5739 125.801 19.5739H121.633V25.6895H125.801Z" fill="#999999"/>
<path d="M141.85 7.82099H145.956L153.476 28.9989H149.489L147.648 23.569H140.13L138.32 28.9989H134.335L141.852 7.82099H141.85ZM146.682 20.4402L144.78 14.7735C144.417 13.5802 143.935 11.4913 143.935 11.4913H143.873C143.873 11.4913 143.391 13.5802 143.028 14.7735L141.096 20.4402H146.682Z" fill="#999999"/>
<path d="M163.218 7.82099H167.324L174.844 28.9989H170.857L169.016 23.569H161.498L159.687 28.9989H155.703L163.22 7.82099H163.218ZM168.05 20.4402L166.148 14.7735C165.785 13.5802 165.303 11.4913 165.303 11.4913H165.241C165.241 11.4913 164.759 13.5802 164.396 14.7735L162.464 20.4402H168.05Z" fill="#999999"/>
<path d="M179.03 23.5713C180.297 24.706 182.35 25.8091 184.346 25.8091C186.342 25.8091 187.486 24.8256 187.486 23.3931C187.486 19.3664 177.491 20.2011 177.491 13.6095C177.491 9.88062 180.633 7.46461 184.801 7.46461C187.034 7.46461 189.388 8.21129 191.081 9.73173L189.359 12.8651C188.18 11.8206 186.337 11.0153 184.648 11.0153C182.686 11.0153 181.389 11.9695 181.389 13.4313C181.389 17.3678 191.384 16.3549 191.384 23.0953C191.384 26.5265 188.847 29.3598 184.257 29.3598C181.599 29.3598 178.852 28.3763 176.917 26.4678L179.032 23.5736L179.03 23.5713Z" fill="#999999"/>
<path d="M127.55 35.9401C130.359 35.9401 133.318 36.7455 135.522 38.6246L133.59 41.4872C132.263 40.3255 129.907 39.4592 127.883 39.4592C123.083 39.4592 120.514 42.8001 120.514 46.7388C120.514 51.3024 123.686 54.3162 127.701 54.3162C129.694 54.3162 131.656 53.45 133.076 52.1078V49.6308H129.786V46.3193H136.582V57.4767H133.259V56.4615C133.259 56.0149 133.291 55.566 133.291 55.566H133.229C131.841 56.9082 129.454 57.8331 127.009 57.8331C121.364 57.8331 116.502 53.5086 116.502 46.8561C116.502 40.7112 121.181 35.9379 127.555 35.9379" fill="#999999"/>
<path d="M139.888 36.2988H146.954C149.069 36.2988 150.096 36.477 151.001 36.865C153.204 37.7606 154.622 39.7886 154.622 42.6512C154.622 45.1575 153.296 47.5419 151.03 48.4375V48.4961C151.03 48.4961 151.302 48.8255 151.724 49.5992L156.134 57.4744H151.754L147.527 49.5699H143.782V57.4744H139.886V36.2965L139.888 36.2988ZM147.287 46.2312C149.37 46.2312 150.669 44.9477 150.669 42.861C150.669 41.5188 150.156 40.445 148.977 39.9668C148.434 39.7276 147.799 39.6103 146.621 39.6103H143.782V46.2335H147.285L147.287 46.2312Z" fill="#999999"/>
<path d="M167.87 35.9401C174.362 35.9401 178.952 40.6842 178.952 46.7388C178.952 52.7935 174.36 57.8353 167.87 57.8353C161.38 57.8353 156.79 52.974 156.79 46.7388C156.79 40.5037 161.38 35.9401 167.87 35.9401ZM167.87 54.3162C171.976 54.3162 174.935 51.034 174.935 46.7388C174.935 42.4437 171.976 39.4592 167.87 39.4592C163.764 39.4592 160.804 42.6197 160.804 46.7388C160.804 50.858 163.764 54.3162 167.87 54.3162Z" fill="#999999"/>
<path d="M185.55 36.2988V49.8406C185.55 52.7055 187.42 54.3162 190.29 54.3162C193.161 54.3162 195.029 52.7055 195.029 49.8406V36.2988H198.927V49.8722C198.927 54.614 195.483 57.8353 190.32 57.8353C185.157 57.8353 181.654 54.614 181.654 49.8722V36.2988H185.55Z" fill="#999999"/>
<path d="M202.903 36.2988H211.177C215.191 36.2988 218 39.0735 218 43.1904C218 47.3073 215.191 50.1699 211.177 50.1699H206.797V57.4789H202.903V36.2988ZM210.45 46.8268C212.716 46.8268 214.045 45.3966 214.045 43.1881C214.045 40.9796 212.716 39.6081 210.512 39.6081H206.797V46.8268H210.45Z" fill="#999999"/>
<path d="M58.7807 25.2136V0H0V58H8.05894V33.1722H50.7217V58H58.7807V49.5677H90.7447V58H98.8036V25.2136H58.7807ZM8.05894 7.96087H50.7217V25.2136H8.05894V7.96087ZM90.7447 41.6068H58.7807V33.1744H90.7447V41.6068Z" fill="#999999"/>
</svg>
