<svg width="272" height="66" viewBox="0 0 272 66" fill="none" xmlns="http://www.w3.org/2000/svg">
<path d="M107.926 51.769C105.282 51.8054 102.658 51.3205 100.201 50.3419C97.9728 49.4558 95.9513 48.1187 94.2639 46.4143C92.6091 44.7198 91.3123 42.7095 90.4507 40.5033C89.5339 38.1484 89.0762 35.6398 89.1021 33.1129V32.9983C89.0925 30.532 89.5593 28.087 90.4769 25.7977C91.364 23.553 92.6891 21.5073 94.375 19.7799C96.0609 18.0525 98.0738 16.678 100.296 15.7365C102.674 14.7194 105.238 14.2078 107.825 14.2342C109.275 14.2194 110.724 14.3289 112.155 14.5615C113.383 14.7673 114.588 15.0883 115.756 15.5205C116.847 15.929 117.897 16.4408 118.891 17.049C119.515 17.432 120.119 17.846 120.701 18.2895C120.843 18.3968 120.96 18.5318 121.048 18.6861C121.135 18.8404 121.191 19.0109 121.21 19.1872C121.23 19.3635 121.213 19.542 121.162 19.7117C121.11 19.8815 121.025 20.039 120.911 20.1747L118.544 22.9961C118.329 23.2513 118.025 23.4148 117.693 23.4532C117.362 23.4915 117.028 23.4017 116.76 23.2023C116.376 22.9142 115.989 22.6437 115.598 22.3905C114.87 21.9222 114.103 21.515 113.307 21.173C112.467 20.8134 111.589 20.552 110.689 20.394C109.652 20.2139 108.602 20.1274 107.55 20.1355C105.947 20.1233 104.361 20.4688 102.908 21.1468C101.495 21.8062 100.227 22.7396 99.1769 23.8929C98.1024 25.0847 97.2579 26.4651 96.6861 27.9645C96.0802 29.5301 95.7727 31.1952 95.7794 32.874V32.9983C95.7627 34.765 96.0608 36.5206 96.6599 38.1828C97.2082 39.7072 98.0651 41.1022 99.1769 42.2806C100.28 43.4296 101.603 44.3465 103.065 44.9775C104.665 45.6513 106.387 45.9857 108.122 45.9594C109.768 45.9716 111.405 45.7174 112.97 45.2066C114.155 44.8232 115.283 44.2839 116.325 43.6029C116.5 43.4837 116.643 43.3229 116.741 43.135C116.838 42.9471 116.888 42.7378 116.885 42.526V36.471H108.924C108.577 36.471 108.244 36.333 107.999 36.0875C107.753 35.842 107.615 35.509 107.615 35.1618V32.1801C107.615 31.8329 107.753 31.4999 107.999 31.2543C108.244 31.0088 108.577 30.8709 108.924 30.8709H121.762C122.109 30.8709 122.442 31.0088 122.688 31.2543C122.933 31.4999 123.071 31.8329 123.071 32.1801V45.4914C123.072 45.6869 123.029 45.8802 122.945 46.0569C122.861 46.2336 122.739 46.3893 122.587 46.5125C121.787 47.1528 120.952 47.7473 120.086 48.293C117.763 49.7661 115.187 50.795 112.489 51.3271C110.987 51.6268 109.458 51.7748 107.926 51.769Z" fill="black"/>
<path d="M129.293 16.1589C129.293 15.8117 129.431 15.4787 129.677 15.2332C129.922 14.9877 130.255 14.8497 130.603 14.8497H145.476C147.538 14.8146 149.59 15.1391 151.541 15.8087C153.185 16.3734 154.688 17.2842 155.95 18.4795C156.916 19.4778 157.674 20.6583 158.179 21.9522C158.711 23.3423 158.975 24.8203 158.958 26.3085V26.4133C158.958 29.3851 158.154 31.7788 156.546 33.5942C155.287 35.0143 153.72 36.1262 151.963 36.8443C151.78 36.9167 151.615 37.0297 151.481 37.1748C151.347 37.3199 151.248 37.4933 151.191 37.6822C151.133 37.8711 151.12 38.0704 151.15 38.2654C151.181 38.4604 151.255 38.6459 151.368 38.8081L158.686 49.0657C158.826 49.2615 158.909 49.492 158.926 49.7318C158.943 49.9716 158.894 50.2115 158.783 50.4252C158.673 50.6389 158.506 50.8181 158.301 50.9431C158.096 51.0682 157.86 51.1343 157.619 51.1342H153.269C153.06 51.1344 152.853 51.0843 152.667 50.9881C152.48 50.8918 152.32 50.7522 152.199 50.5811L144.062 39.0372C143.941 38.8654 143.781 38.7252 143.595 38.6284C143.408 38.5315 143.201 38.4809 142.992 38.4808H135.673V49.825C135.673 50.1722 135.535 50.5052 135.289 50.7507C135.044 50.9963 134.711 51.1342 134.363 51.1342H130.599C130.252 51.1342 129.919 50.9963 129.674 50.7507C129.428 50.5052 129.29 50.1722 129.29 49.825L129.293 16.1589ZM145.005 32.8512C147.287 32.8512 149.101 32.3057 150.448 31.2147C151.794 30.1237 152.468 28.6465 152.471 26.7831V26.6784C152.471 24.7146 151.816 23.2199 150.507 22.1944C149.197 21.1688 147.348 20.6582 144.959 20.6626H136.982C136.635 20.6626 136.302 20.8005 136.056 21.0461C135.811 21.2916 135.673 21.6246 135.673 21.9718V31.542C135.673 31.8893 135.811 32.2223 136.056 32.4678C136.302 32.7133 136.635 32.8512 136.982 32.8512H145.005Z" fill="black"/>
<path d="M182.03 51.7691C179.398 51.8025 176.787 51.3003 174.355 50.293C172.125 49.3606 170.102 47.9944 168.404 46.2737C166.736 44.5648 165.416 42.5484 164.516 40.3365C163.576 38.0402 163.1 35.5809 163.115 33.0999V32.9984C163.1 30.5185 163.576 28.0602 164.516 25.7651C165.42 23.5383 166.755 21.5118 168.444 19.8017C170.235 18.0026 172.37 16.5828 174.722 15.6268C177.073 14.6708 179.594 14.1984 182.132 14.2376C184.764 14.2039 187.376 14.7062 189.808 15.7137C192.042 16.6446 194.07 18.0109 195.771 19.733C197.439 21.4419 198.76 23.4582 199.66 25.6702C200.6 27.9649 201.077 30.4235 201.061 32.9035V32.9984C201.077 35.4785 200.601 37.9371 199.66 40.2318C198.755 42.4585 197.421 44.4851 195.732 46.1952C194.008 47.9283 191.965 49.311 189.716 50.2668C187.289 51.2906 184.677 51.802 182.044 51.7691M182.145 45.858C183.793 45.8772 185.427 45.5553 186.944 44.9126C188.462 44.27 189.83 43.3204 190.963 42.1236C192.055 40.9504 192.908 39.5765 193.477 38.0781C194.089 36.4903 194.398 34.8016 194.387 33.0999V32.9984C194.398 31.2967 194.089 29.608 193.477 28.0202C192.898 26.5061 192.036 25.1164 190.937 23.9257C189.832 22.741 188.495 21.7962 187.009 21.1502C185.439 20.4661 183.743 20.1215 182.03 20.1388C180.383 20.1197 178.749 20.4416 177.231 21.0842C175.714 21.7269 174.345 22.6765 173.213 23.8733C172.122 25.0459 171.268 26.4185 170.699 27.9155C170.088 29.5037 169.781 31.1922 169.792 32.8937V32.9984C169.781 34.6999 170.088 36.3885 170.699 37.9767C171.279 39.4908 172.141 40.8812 173.239 42.0745C174.344 43.2586 175.681 44.2024 177.167 44.8467C178.735 45.5315 180.431 45.8762 182.142 45.858" fill="black"/>
<path d="M221.597 51.7167C219.426 51.7472 217.266 51.4051 215.211 50.7053C213.379 50.0739 211.713 49.038 210.337 47.6745C208.945 46.2547 207.882 44.5462 207.224 42.6701C206.459 40.444 206.09 38.1011 206.134 35.7477V16.1588C206.134 15.8116 206.272 15.4786 206.518 15.2331C206.763 14.9875 207.096 14.8496 207.444 14.8496H211.205C211.552 14.8496 211.885 14.9875 212.13 15.2331C212.376 15.4786 212.514 15.8116 212.514 16.1588V35.4859C212.514 38.8767 213.327 41.4438 214.952 43.1872C216.578 44.9306 218.824 45.8034 221.692 45.8056C224.528 45.8056 226.759 44.9677 228.382 43.292C230.006 41.6162 230.818 39.1014 230.821 35.7477V16.1588C230.821 15.8116 230.959 15.4786 231.204 15.2331C231.45 14.9875 231.783 14.8496 232.13 14.8496H235.891C236.238 14.8496 236.571 14.9875 236.817 15.2331C237.062 15.4786 237.2 15.8116 237.2 16.1588V35.4368C237.245 37.8512 236.867 40.2549 236.084 42.5392C235.42 44.4487 234.349 46.191 232.945 47.6451C231.566 49.0304 229.886 50.0778 228.035 50.7053C225.956 51.4052 223.774 51.7472 221.58 51.7167" fill="black"/>
<path d="M243.894 16.1589C243.894 15.8117 244.031 15.4787 244.277 15.2331C244.523 14.9876 244.856 14.8497 245.203 14.8497H258.207C260.15 14.8244 262.084 15.1128 263.935 15.7039C265.542 16.2152 267.026 17.0544 268.292 18.1685C269.479 19.2293 270.418 20.5391 271.041 22.0045C271.698 23.5809 272.024 25.2752 272 26.9827V27.0874C272.042 28.94 271.65 30.7768 270.858 32.4519C270.125 33.9579 269.063 35.2792 267.748 36.3173C266.372 37.3865 264.806 38.187 263.133 38.6771C261.299 39.223 259.394 39.4932 257.48 39.479H250.28V49.838C250.28 50.1853 250.142 50.5183 249.896 50.7638C249.65 51.0093 249.317 51.1472 248.97 51.1472H245.209C244.862 51.1472 244.529 51.0093 244.284 50.7638C244.038 50.5183 243.9 50.1853 243.9 49.838L243.894 16.1589ZM257.687 33.6727C260.107 33.6727 262.017 33.0705 263.418 31.866C264.097 31.2996 264.638 30.587 265.002 29.7815C265.366 28.976 265.543 28.0986 265.519 27.2151V27.1071C265.519 24.9731 264.81 23.3627 263.392 22.2761C261.973 21.1895 260.072 20.644 257.687 20.6396H251.582C251.235 20.6396 250.902 20.7775 250.656 21.0231C250.411 21.2686 250.273 21.6016 250.273 21.9488V32.3471C250.273 32.6944 250.411 33.0274 250.656 33.2729C250.902 33.5184 251.235 33.6563 251.582 33.6563L257.687 33.6727Z" fill="black"/>
<path fill-rule="evenodd" clip-rule="evenodd" d="M26.1133 30.1442H33.0393C35.1102 30.1442 36.7697 29.7384 38.0178 28.9267C39.266 28.1149 39.8879 26.8788 39.8835 25.2183V25.1169C39.9117 24.4596 39.7771 23.8055 39.4916 23.2128C39.2061 22.6201 38.7785 22.1072 38.2469 21.7195C37.1559 20.9078 35.5738 20.502 33.5008 20.502H26.1133C25.8788 20.5015 25.6465 20.5473 25.4296 20.6368C25.2128 20.7263 25.0158 20.8576 24.8498 21.0233C24.6838 21.1889 24.5521 21.3857 24.4623 21.6024C24.3724 21.819 24.3262 22.0512 24.3262 22.2857V28.3604C24.3262 28.595 24.3724 28.8272 24.4623 29.0438C24.5521 29.2604 24.6838 29.4572 24.8498 29.6229C25.0158 29.7886 25.2128 29.9199 25.4296 30.0094C25.6465 30.0988 25.8788 30.1446 26.1133 30.1442Z" fill="black"/>
<path fill-rule="evenodd" clip-rule="evenodd" d="M40.0668 36.808C38.8361 35.9636 36.9606 35.5403 34.4402 35.5381H26.1133C25.6393 35.5381 25.1848 35.7264 24.8496 36.0615C24.5145 36.3966 24.3262 36.8512 24.3262 37.3251V43.7075C24.3257 43.9423 24.3717 44.1749 24.4613 44.3919C24.551 44.6089 24.6826 44.8061 24.8487 44.9721C25.0147 45.1381 25.2119 45.2697 25.4289 45.3594C25.6459 45.4491 25.8785 45.495 26.1133 45.4945H34.905C37.0872 45.4945 38.7979 45.08 40.0374 44.2508C41.2768 43.4216 41.8998 42.1801 41.9064 40.5261V40.4247C41.9369 39.7145 41.7836 39.0085 41.4613 38.3749C41.1391 37.7413 40.6587 37.2016 40.0668 36.808Z" fill="black"/>
<path fill-rule="evenodd" clip-rule="evenodd" d="M73.9277 18.5285C71.7609 10.5554 64.4192 3.49885 55.0252 1.66925C43.751 -0.556416 32.1504 -0.556416 20.8763 1.66925C11.4725 3.49885 4.13075 10.5554 1.96718 18.5285C-0.655728 27.9968 -0.655728 38 1.96718 47.4683C4.13075 55.4446 11.4594 62.4979 20.8763 64.3275C32.1504 66.5532 43.751 66.5532 55.0252 64.3275C64.4192 62.4979 71.7609 55.4446 73.9277 47.4683C76.5594 38.0012 76.5594 27.9956 73.9277 18.5285ZM48.2792 41.1809C48.3099 42.6721 47.9798 44.1487 47.3169 45.4849C46.6791 46.7297 45.7451 47.7986 44.5969 48.5975C43.304 49.4791 41.8625 50.12 40.3418 50.4893C38.5441 50.9402 36.6962 51.1602 34.8429 51.1439H19.8387C19.6038 51.1443 19.3713 51.0984 19.1542 51.0087C18.9372 50.9191 18.74 50.7875 18.574 50.6214C18.408 50.4554 18.2763 50.2582 18.1867 50.0412C18.097 49.8242 18.0511 49.5916 18.0515 49.3568V16.6334C18.0511 16.3986 18.097 16.166 18.1867 15.949C18.2763 15.732 18.408 15.5348 18.574 15.3688C18.74 15.2028 18.9372 15.0711 19.1542 14.9815C19.3713 14.8918 19.6038 14.8459 19.8387 14.8463H34.3355C38.5186 14.8463 41.6827 15.9177 43.8277 18.0604C44.623 18.8438 45.2497 19.7816 45.669 20.8162C46.0884 21.8507 46.2916 22.9602 46.2662 24.0762V24.1809C46.2835 25.1752 46.1341 26.1653 45.8243 27.1103C45.556 27.9051 45.1723 28.6561 44.6853 29.3392C44.2167 29.9784 43.6577 30.5462 43.0258 31.0248C42.4126 31.4916 41.7624 31.9076 41.0815 32.2685C42.0929 32.6196 43.0719 33.0577 44.0077 33.5777C44.8593 34.0527 45.6321 34.6566 46.2989 35.368C46.9476 36.0739 47.4494 36.9016 47.7751 37.8031C48.1417 38.8546 48.3179 39.9629 48.2956 41.0761L48.2792 41.1809ZM57.8466 49.3634C57.8466 49.598 57.8004 49.8304 57.7106 50.0473C57.6208 50.2641 57.4892 50.4611 57.3232 50.627C57.1573 50.7929 56.9602 50.9246 56.7434 51.0144C56.5266 51.1042 56.2942 51.1504 56.0595 51.1504H53.2544C53.0196 51.1509 52.787 51.1049 52.57 51.0153C52.353 50.9256 52.1558 50.794 51.9897 50.628C51.8237 50.462 51.6921 50.2648 51.6024 50.0478C51.5128 49.8307 51.4668 49.5982 51.4673 49.3634V16.6334C51.4668 16.3986 51.5128 16.166 51.6024 15.949C51.6921 15.732 51.8237 15.5348 51.9897 15.3688C52.1558 15.2028 52.353 15.0711 52.57 14.9815C52.787 14.8918 53.0196 14.8459 53.2544 14.8463H56.0595C56.2942 14.8463 56.5266 14.8926 56.7434 14.9824C56.9602 15.0722 57.1573 15.2038 57.3232 15.3698C57.4892 15.5357 57.6208 15.7327 57.7106 15.9495C57.8004 16.1663 57.8466 16.3987 57.8466 16.6334V49.3634Z" fill="black"/>
</svg>
