<svg width="317" height="68" viewBox="0 0 317 68" fill="none" xmlns="http://www.w3.org/2000/svg">
<g clip-path="url(#clip0_2001_8)">
<path d="M85.042 7.16309H93.855V30.5468L105.184 19.2757H115.606L102.316 32.9286L116.935 55.0515H106.513L95.8823 39.5788L93.855 41.6779V55.0515H85.042V7.16309Z" fill="#508BCF"/>
<path d="M146.794 52.6725C143.927 54.632 140.012 55.823 136.443 55.823C126.021 55.823 117.7 47.4927 117.7 37.3397C117.7 27.0469 126.021 18.9263 136.443 18.9263C140.079 18.9263 143.717 19.9774 146.794 22.1466V19.2757H155.538V55.0514H146.794V52.6725ZM136.443 47.6294C142.109 47.6294 146.794 42.869 146.794 37.3367C146.794 31.8044 142.109 27.0438 136.443 27.0438C130.777 27.0438 126.091 31.8044 126.091 37.3367C126.091 42.869 130.777 47.6294 136.443 47.6294Z" fill="#508BCF"/>
<path d="M160.008 19.2757H168.752V22.1466C171.829 19.9774 175.465 18.9263 179.103 18.9263C189.525 18.9263 197.847 27.0469 197.847 37.3397C197.847 47.4927 189.525 55.823 179.103 55.823C175.538 55.823 171.62 54.632 168.752 52.6725V67.164H160.008V19.2757ZM179.101 47.6294C184.766 47.6294 189.452 42.869 189.452 37.3367C189.452 31.8044 184.766 27.0438 179.101 27.0438C173.434 27.0438 168.749 31.8044 168.749 37.3367C168.749 42.869 173.434 47.6294 179.101 47.6294Z" fill="#508BCF"/>
<path d="M208.96 43.5707C208.96 46.0223 211.197 49.03 216.022 49.03C219.94 49.03 221.968 47.1403 221.968 45.1807C221.968 42.4496 218.192 42.0305 214.693 41.5414C210.356 40.9124 200.496 39.9311 200.496 30.5498C200.496 23.6868 205.88 18.9263 215.181 18.9263C224.413 18.9263 229.868 23.4772 230.43 30.6165H221.476C221.266 28.5173 220.568 25.9957 215.461 25.9957C212.034 25.9957 209.934 27.1168 209.934 28.9367C209.934 31.8074 214.76 32.2267 218.399 32.8555C225.603 34.0464 231.827 36.0059 231.827 43.9869C231.827 52.1775 225.045 55.82 215.952 55.82C205.74 55.82 200.007 51.1992 199.655 43.5675H208.96V43.5707Z" fill="#508BCF"/>
<path d="M237.069 27.3961H232.803V19.2755H237.069V9.89404H245.881V19.2755H253.924V27.3961H245.881V40.3471C245.881 45.0378 246.862 46.648 254.975 46.7178L255.534 55.2607C244.763 55.6102 237.069 53.1615 237.069 40.3471V27.3961Z" fill="#508BCF"/>
<path d="M293.295 47.1403C289.589 52.7426 284.202 55.823 276.51 55.823C265.25 55.823 257.064 47.9121 257.064 37.3397C257.064 27.0469 265.388 18.9263 275.808 18.9263C287.979 18.9263 295.671 29.0763 294.412 40.2804H266.017C267.487 44.9012 271.123 47.6326 276.51 47.6326C280.987 47.6326 283.645 46.232 285.95 43.0816L293.295 47.1403ZM285.253 33.3478C283.505 29.2161 280.427 27.0469 275.81 27.0469C271.545 27.0469 267.838 29.7082 266.23 33.3478H285.253Z" fill="#508BCF"/>
<path d="M297.625 19.2757H306.439V22.7056C309.168 19.9744 312.245 18.9962 317 18.9263L316.441 28.2379C308.4 28.2379 306.442 31.1088 306.442 36.8505V55.0543H297.629V19.2757H297.625Z" fill="#508BCF"/>
<path d="M51.0096 28.0889V41.4318L45.6136 43.6677C44.7699 44.0172 43.8413 43.3973 43.8413 42.4829V28.0889C43.8413 26.108 45.4467 24.501 47.4254 24.501C49.404 24.501 51.0096 26.108 51.0096 28.0889Z" fill="#508BCF"/>
<path d="M30.84 0.111951C13.4716 1.51248 -0.0302973 16.2621 5.10594e-05 33.7065C0.00308588 34.6147 0.0395023 35.511 0.112338 36.404C0.25194 38.148 0.528111 39.8523 0.928708 41.5111C1.19577 42.6199 1.51746 43.7106 1.89074 44.7769L8.70697 42.541C8.70697 42.541 8.05447 40.6694 7.70548 38.9561V38.9531C7.45661 37.7318 7.29274 36.4861 7.2199 35.2131C7.18653 34.6938 7.17133 34.1682 7.17133 33.6425C7.17133 32.0294 7.31702 30.4497 7.59623 28.9154C9.9118 16.1041 21.4715 6.47054 35.0887 7.21788C48.5633 7.95611 59.4341 18.9689 60.0228 32.4639C60.2535 37.7348 58.9335 42.6897 56.4813 46.9066C55.2613 49.0058 53.7589 50.9229 52.0322 52.6028C50.2993 54.2919 48.3357 55.7473 46.1962 56.9078C42.4542 58.9463 38.163 60.1036 33.6108 60.1036C27.3954 60.1036 21.6748 57.9467 17.159 54.3406C15.769 53.2318 13.6234 53.329 12.367 54.5868C10.8192 56.136 10.9376 58.5421 12.6431 59.9094C18.3942 64.5211 25.6838 67.2794 33.6108 67.2794C40.1539 67.2794 46.2659 65.4019 51.4344 62.1484C53.4829 60.8632 55.3826 59.3624 57.1003 57.6703C58.818 55.9903 60.3568 54.1248 61.683 52.1077C65.182 46.8062 67.2185 40.4539 67.2185 33.6364C67.2153 14.1749 50.6179 -1.48301 30.84 0.111951Z" fill="#508BCF"/>
<path opacity="0.36" d="M7.70548 38.9556C7.95738 40.183 8.70697 42.5406 8.70697 42.5406L1.89075 44.7764C1.51746 43.7131 1.19578 42.6195 0.928711 41.5106L5.59324 36.8381L7.21687 35.2129C7.29274 36.4856 7.45663 37.7343 7.70548 38.9556Z" fill="#508BCF"/>
<path opacity="0.36" d="M51.0096 37.2032V41.4321L45.6136 43.6681C44.7699 44.0174 43.8413 43.3977 43.8413 42.4834V30.0273L51.0096 37.2032Z" fill="#508BCF"/>
<path d="M51.0093 41.4319L44.6301 44.0751C44.1505 44.2725 43.5983 44.163 43.2342 43.7956L28.1207 28.6663L11.2925 45.5119C10.7554 46.0498 9.99058 46.2867 9.24402 46.1471L1.89062 44.7737L7.70535 38.9499L26.4182 20.2205C27.3588 19.2787 28.8854 19.2787 29.8262 20.2205L51.0093 41.4319Z" fill="#508BCF"/>
<path d="M28.9706 47.2134H27.183C25.696 47.2134 24.4912 46.0073 24.4912 44.5188V42.7293C24.4912 41.2408 25.696 40.0347 27.183 40.0347H28.9706C30.4576 40.0347 31.6624 41.2408 31.6624 42.7293V44.5188C31.6624 46.0073 30.4576 47.2134 28.9706 47.2134Z" fill="#508BCF"/>
</g>
<defs>
<clipPath id="clip0_2001_8">
<rect width="317" height="68" fill="white"/>
</clipPath>
</defs>
</svg>
