<svg width="245" height="125" viewBox="0 0 245 125" fill="none" xmlns="http://www.w3.org/2000/svg">
<path d="M95.2776 0H81.6665V81.7165H95.2776V0Z" fill="#1D1D1B"/>
<path d="M173.304 13.6194C170.93 9.47024 167.48 6.01788 163.333 3.6424C159.313 1.33027 154.66 0 149.722 0H136.111C131.141 0 126.52 1.33027 122.5 3.6424C118.353 6.01788 114.903 9.47024 112.529 13.6194C110.218 17.6102 108.889 22.2662 108.889 27.2388V81.7165H122.5V54.4776H163.333V81.7165H176.944V27.2388C176.944 22.2662 175.615 17.6419 173.304 13.6194ZM163.333 40.8582H122.5V27.2388C122.5 27.0171 122.5 26.7637 122.5 26.542C122.848 19.3522 128.799 13.6194 136.079 13.6194H149.69C156.971 13.6194 162.922 19.3522 163.27 26.542C163.27 26.7637 163.27 27.0171 163.27 27.2388V40.8582H163.333Z" fill="#1D1D1B"/>
<path d="M245 68.0971V81.7165H217.778C212.808 81.7165 208.187 80.3862 204.167 78.0741C200.052 75.6986 196.602 72.2462 194.196 68.0971C191.885 64.1063 190.556 59.4503 190.556 54.4776V0H204.167V54.4776C204.167 61.9842 210.276 68.0971 217.778 68.0971H245Z" fill="#1D1D1B"/>
<path d="M64.4154 13.6194C62.0413 9.47024 58.5911 6.01788 54.4444 3.6424C50.4561 1.33027 45.7713 0 40.8333 0H0V81.7165H40.8333C45.803 81.7165 50.4561 80.3862 54.4444 78.0741C58.5594 75.6986 62.0097 72.2462 64.4154 68.0971C66.7261 64.1063 68.0556 59.4503 68.0556 54.4776V27.2388C68.0556 22.2662 66.7261 17.6419 64.4154 13.6194ZM54.4444 54.4776C54.4444 61.9842 48.3353 68.0971 40.8333 68.0971H13.6111V13.6194H40.8333C48.3353 13.6194 54.4444 19.7006 54.4444 27.2388V54.4776Z" fill="#1D1D1B"/>
<path d="M239.872 10.1038L238.416 7.53827H237.308V10.1038H236.2V3.35742H238.796C239.207 3.35742 239.587 3.45244 239.935 3.64248C240.284 3.83252 240.537 4.0859 240.727 4.40263C240.917 4.71936 241.012 5.06777 241.012 5.47952C241.012 5.92294 240.885 6.30302 240.632 6.65142C240.378 6.99982 240.03 7.25321 239.587 7.3799L241.201 10.1038H239.904H239.872ZM237.308 4.43431V6.52473H238.764C239.081 6.52473 239.366 6.42971 239.555 6.23967C239.777 6.04963 239.872 5.79625 239.872 5.51119C239.872 5.22613 239.777 4.97275 239.555 4.75104C239.334 4.561 239.081 4.46598 238.764 4.46598H237.308V4.43431Z" fill="#1D1D1B"/>
<path d="M238.194 13.6194C234.427 13.6194 231.389 10.5788 231.389 6.80971C231.389 3.04061 234.427 0 238.194 0C241.961 0 245 3.04061 245 6.80971C245 10.5788 241.961 13.6194 238.194 13.6194ZM238.194 1.10856C235.061 1.10856 232.497 3.67407 232.497 6.80971C232.497 9.94534 235.061 12.5109 238.194 12.5109C241.328 12.5109 243.892 9.94534 243.892 6.80971C243.892 3.67407 241.328 1.10856 238.194 1.10856Z" fill="#1D1D1B"/>
<path d="M120.063 109.906H124.114C124.874 109.906 125.539 109.652 126.109 109.114C126.647 108.575 126.932 107.973 126.932 107.277C126.932 106.58 126.647 105.946 126.109 105.44C125.57 104.901 124.906 104.648 124.114 104.648H120.063V109.937V109.906ZM113.352 123.303V98.5982H124.463C127.153 98.5982 129.369 99.4217 131.078 101.037C132.788 102.684 133.642 104.743 133.642 107.213C133.642 109.684 132.788 111.774 131.078 113.39C129.369 115.037 127.185 115.828 124.463 115.828H120.063V123.24H113.352V123.303ZM85.3386 113.073V98.5982H92.0492V113.073C92.0492 114.498 92.4923 115.638 93.347 116.525C94.2016 117.412 95.3095 117.855 96.6389 117.855C97.9684 117.855 99.0763 117.412 99.9309 116.525C100.786 115.638 101.229 114.498 101.229 113.073V98.5982H107.939V113.073C107.939 116.272 106.895 118.901 104.774 120.928C102.685 122.986 99.9626 124 96.6389 124C93.3153 124 90.6247 122.986 88.5039 120.928C86.4148 118.869 85.3386 116.272 85.3386 113.073ZM57.7048 120.231C55.0776 117.697 53.7798 114.625 53.7798 110.982C53.7798 107.34 55.0776 104.236 57.7048 101.734C60.3321 99.2 63.5924 97.9331 67.5175 97.9331C71.4426 97.9331 74.7029 99.2 77.3302 101.734C79.9574 104.268 81.2552 107.34 81.2552 110.982C81.2552 114.625 79.9574 117.729 77.3302 120.231C74.7029 122.765 71.4426 124.032 67.5175 124.032C63.5924 124.032 60.3321 122.765 57.7048 120.231ZM62.6428 106.073C61.3134 107.403 60.6486 109.019 60.6486 110.951C60.6486 112.883 61.3134 114.498 62.6428 115.828C63.9723 117.159 65.5866 117.824 67.5175 117.824C69.4484 117.824 71.0627 117.159 72.3922 115.828C73.7216 114.498 74.3864 112.883 74.3864 110.951C74.3864 109.019 73.7216 107.403 72.3922 106.073C71.0627 104.743 69.4484 104.078 67.5175 104.078C65.5866 104.078 63.9723 104.743 62.6428 106.073ZM36.6867 109.557H41.2765C42.0362 109.557 42.701 109.335 43.1758 108.86C43.6822 108.385 43.9038 107.815 43.9038 107.087C43.9038 106.358 43.6506 105.788 43.1758 105.313C42.6693 104.838 42.0362 104.616 41.2765 104.616H36.6867V109.557ZM29.9762 123.303V98.5982H41.6247C44.2203 98.5982 46.3728 99.4217 48.0821 101.037C49.7597 102.652 50.6144 104.679 50.6144 107.055C50.6144 109.304 49.918 111.141 48.4936 112.566C47.8922 113.231 47.1641 113.738 46.3728 114.118L51.4691 123.303H44.4103L40.3586 115.543H36.6551V123.303H29.9445H29.9762ZM14.6557 114.498V109.557H25.2281V119.091C24.5001 119.978 23.5821 120.801 22.4742 121.561C20.0369 123.208 17.3147 124.032 14.3076 124.032C10.3825 124.032 7.12215 122.765 4.49489 120.231C1.86763 117.697 0.569824 114.625 0.569824 110.982C0.569824 107.34 1.86763 104.236 4.49489 101.734C7.12215 99.2317 10.3825 97.9331 14.3076 97.9331C17.283 97.9331 19.9103 98.7249 22.2526 100.34C23.2972 101.069 24.1835 101.861 24.9116 102.716L20.8599 107.308C20.3218 106.707 19.7203 106.2 19.0556 105.725C17.5362 104.679 15.9535 104.141 14.3392 104.141C12.4083 104.141 10.794 104.806 9.46453 106.136C8.13507 107.467 7.47034 109.082 7.47034 111.014C7.47034 112.946 8.13507 114.561 9.46453 115.892C10.794 117.222 12.4083 117.887 14.3392 117.887C15.6054 117.887 16.6816 117.665 17.5679 117.19C17.9477 117 18.3276 116.779 18.7391 116.494V114.561H14.6874L14.6557 114.498Z" fill="#1D1D1B"/>
</svg>
