<svg width="287" height="44" viewBox="0 0 287 44" fill="none" xmlns="http://www.w3.org/2000/svg">
<path d="M12.6433 21.9928C12.6433 27.5995 12.734 31.374 12.9154 33.3162C13.0946 35.257 13.4207 36.7321 13.8828 37.7219C14.5608 39.2443 15.5246 40.3498 16.7742 41.0385C18.0202 41.7221 19.7196 42.0649 21.8531 42.0649C23.9866 42.0649 25.74 41.7307 26.9687 41.0643C28.1974 40.398 29.1648 39.281 29.8601 37.7132C30.3028 36.6954 30.6375 35.0996 30.8448 32.9108C31.0521 30.7221 31.1622 27.0885 31.1622 21.9842C31.1622 16.8799 31.0629 13.2894 30.8729 11.1373C30.79 10.1786 30.6574 9.2249 30.4755 8.27998C30.346 7.59168 30.1366 6.92083 29.8515 6.28097C29.1734 4.75852 28.206 3.65011 26.9601 2.96436C25.7141 2.27861 24.0038 1.93789 21.8445 1.93789C19.6851 1.93789 17.9856 2.27214 16.7656 2.93848C15.5455 3.60482 14.5695 4.72185 13.872 6.28959C13.4488 7.24417 13.1205 8.76662 12.8873 10.8569C12.8873 10.9389 12.842 12.4786 12.7621 15.4696C12.6822 18.4605 12.6347 20.6321 12.6347 21.9928H12.6433ZM8.60059e-05 21.9928C-0.00796086 19.1956 0.54873 16.4254 1.6369 13.8479C2.77764 11.1826 4.41131 8.7559 6.45234 6.695C8.67651 4.42786 11.0605 2.74583 13.6042 1.64892C14.8708 1.10056 16.1917 0.687121 17.5451 0.415446C18.9676 0.135931 20.4142 -0.00274946 21.8639 0.00141324C24.7123 -0.0318728 27.5368 0.523161 30.1603 1.63168C32.6824 2.72284 35.0657 4.40774 37.31 6.68638C39.351 8.76351 40.9876 11.2014 42.1362 13.8759C42.686 15.1478 43.1126 16.4692 43.4103 17.8222C43.6956 19.1911 43.8382 20.5859 43.8357 21.9842C43.8434 24.8117 43.2809 27.6118 42.1816 30.2174C41.037 32.9031 39.3861 35.3439 37.3186 37.407C35.3093 39.4889 32.915 41.1622 30.2682 42.3345C24.9424 44.5382 18.9615 44.5576 13.6215 42.3884C11.0993 41.3087 8.7161 39.6425 6.47177 37.3898C4.43959 35.3211 2.81229 32.8915 1.67361 30.2261C1.12968 28.9305 0.71382 27.585 0.431964 26.2086C0.148347 24.8211 0.00367471 23.4089 8.60059e-05 21.9928Z" fill="#233535"/>
<path d="M47.1503 43.0207V40.9311H52.2011V2.79443H47.0186V0.873047H82.994L83.3719 13.1346H81.1758C80.168 9.33204 78.7853 6.66236 77.0276 5.12554C75.285 3.58584 72.7542 2.80953 69.4546 2.80953H62.9376L62.9743 20.1969H64.4383C66.6798 20.1969 68.3972 19.5967 69.5906 18.3963C70.7841 17.1959 71.5672 15.2227 71.9401 12.4768H74.0995V30.468H71.9401C71.9627 29.2175 71.7638 27.9728 71.3527 26.7913C71.0156 25.8304 70.4834 24.9494 69.7893 24.2036C68.5858 22.9341 66.7273 22.3009 64.2138 22.3037H62.9743V40.9613H69.1739V43.0509H47.1481L47.1503 43.0207Z" fill="#233535"/>
<path d="M86.5915 43.0207V40.9311H91.6444V2.79443H86.4619V0.873047H122.424L122.804 13.1346H120.608C119.601 9.33204 118.218 6.66236 116.46 5.12554C114.715 3.58584 112.185 2.80953 108.885 2.80953H102.37L102.407 20.1969H103.867C106.108 20.1969 107.825 19.5967 109.017 18.3963C110.2 17.1887 110.988 15.2155 111.366 12.4769H113.526V30.468H111.366C111.389 29.2152 111.189 27.9682 110.777 26.7848C110.44 25.8235 109.908 24.9423 109.213 24.1971C108.013 22.927 106.149 22.2973 103.638 22.2973H102.4V40.9548H108.617V43.0444H86.5915V43.0207Z" fill="#233535"/>
<path d="M141.096 40.9311H146.754C149.653 40.9311 151.56 40.3603 152.474 39.2189C153.388 38.0774 153.843 35.4286 153.839 31.2724C153.839 27.3908 153.309 24.8203 152.25 23.561C151.19 22.3016 149.06 21.6741 145.86 21.6784H141.096V40.9311ZM141.096 19.867H145.128C148.217 19.867 150.251 19.3322 151.228 18.2626C152.204 17.1995 152.692 14.8748 152.692 11.3081C152.692 7.39772 152.268 5.00119 151.418 4.11849C150.568 3.2365 148.345 2.78581 144.748 2.78581H141.096V19.867ZM126.002 40.9311H130.55V2.79443H126.002V0.873047H149.609C154.011 0.873047 157.491 1.77732 160.047 3.58585C162.604 5.39439 163.882 7.83835 163.88 10.9177C163.88 13.4322 162.867 15.4959 160.825 17.1067C158.782 18.7176 155.774 19.8195 151.77 20.3867V20.9279C153.809 20.9117 155.836 21.2308 157.771 21.8725C159.326 22.391 160.785 23.1611 162.09 24.1518C164.393 25.91 165.545 28.3274 165.545 31.4039C165.545 34.9563 164.078 37.7798 161.144 39.8744C158.21 41.969 154.213 43.0199 149.151 43.0271H125.994V40.9375L126.002 40.9311Z" fill="#233535"/>
<path d="M168.471 43.0207V40.9311H173.615V2.79443H169.195V0.873047H204.46L204.587 11.955H202.453C201.035 8.38537 199.584 5.968 198.098 4.70289C196.612 3.43777 194.44 2.80378 191.581 2.8009H184.269V20.1257L184.839 20.1883H185.761C188.048 20.1883 189.782 19.5931 190.976 18.3963C192.17 17.1995 192.946 15.2242 193.326 12.4596H195.459V30.4508H193.326C193.347 29.2038 193.148 27.9629 192.738 26.7848C192.403 25.8213 191.867 24.9395 191.166 24.1971C189.955 22.927 188.074 22.2951 185.509 22.2951H184.269V40.9548H191.356C194.853 40.9548 197.579 40.0419 199.534 38.2161C201.495 36.3853 203.041 33.3145 204.19 28.9801H206.187L205.742 43.0444H168.471V43.0207Z" fill="#233535"/>
<path d="M220.104 29.0211H231.581L225.997 14.243L220.104 29.0211ZM208.875 43.1371V41.0476H211.467C211.79 41.0563 212.111 40.9993 212.411 40.8799C212.711 40.7605 212.983 40.5813 213.212 40.3532C213.68 39.8852 214.151 39.0464 214.639 37.8215L229.163 0.126953H231.702L247.591 41.0476H251.353V43.1393H230.856V41.0476H236.008L232.294 31.2013H219.424L216.617 38.3887L216.464 38.9925L216.438 39.9111C216.439 40.0832 216.483 40.2523 216.567 40.4029C216.65 40.5535 216.77 40.681 216.915 40.7737C217.349 40.9907 217.832 41.0904 218.316 41.0627H222.095V43.1393H208.882L208.875 43.1371Z" fill="#233535"/>
<path d="M256.073 43.0211V40.9294H261.286V2.79488H258.999C256.244 2.79488 254.069 3.64452 252.476 5.34379C250.882 7.04307 249.457 10.0887 248.2 14.4806H246.518L247.026 0.858398H286.456L286.998 14.4806H285.318C284.166 10.2368 282.774 7.22708 281.142 5.45161C279.509 3.67614 277.343 2.79056 274.644 2.79488H272.234V40.9294H277.449V43.0211H256.071H256.073Z" fill="#233535"/>
</svg>
