<svg width="272" height="120" viewBox="0 0 272 120" fill="none" xmlns="http://www.w3.org/2000/svg">
<path d="M100.138 28.526C96.3618 32.5021 91.5668 42.8692 85.6623 42.8692C78.9959 42.8692 74.3295 31.5494 70.4725 27.3563C69.5201 34.4312 70.4725 42.5532 70.4725 49.8026C70.4725 54.4815 69.2916 58.8444 63.4728 58.8444C59.3777 58.8444 57.1778 57.2077 56.7064 53.2316C55.6826 42.5532 56.0731 31.0966 56.0731 20.4182C56.0731 14.263 54.816 0.0754674 64.1013 0.0754674C66.8536 0.0754674 69.2154 1.49044 70.8677 3.42897C76.5341 10.2114 81.1768 18.3146 85.9766 25.7998C92.3477 19.1966 97.6189 10.9095 103.119 3.58462C104.614 1.55648 106.504 0 109.337 0C120.904 0 118.861 25.564 118.861 33.1247C118.861 39.9072 118.704 46.3736 117.366 53.0759C116.342 57.1322 111.466 59 107.69 59C103.281 59 98.9522 56.8162 98.9522 52.0619C98.9522 44.3455 100.214 36.398 100.766 28.6817L100.138 28.526Z" fill="#999999"/>
<path d="M141.847 50.7337C141.724 53.8329 141.017 56.7138 137.819 58.0996C134.972 59.3241 130.963 59.4142 128.329 57.6535C125.141 55.532 125.483 52.4803 125.269 49.1106C124.96 42.665 124.317 36.2397 123.343 29.8607C122.693 25.8408 122.555 21.4412 126.783 19.6567C130.512 18.0857 136.638 17.5447 139.978 20.3496C143.119 22.9836 141.672 27.7676 141.639 31.2655C141.586 37.2075 141.828 43.1306 141.871 49.0916C141.871 49.6374 141.871 50.1879 141.871 50.729M124.424 9.31505V6.88508C124.424 2.49025 129.207 1 132.889 1C137.439 1 141.828 3.2781 141.828 8.45129C141.828 14.493 137.753 16.2158 132.263 16.2158C127.324 16.2158 124.424 14.7255 124.424 9.31505Z" fill="#999999"/>
<path d="M177.276 14.2852C177.662 14.4001 178.039 14.5341 178.416 14.6729C183.776 16.6833 187.942 20.6467 189.936 26.161C191.507 30.5023 192.193 35.1222 191.953 39.7408C191.675 44.9631 190.242 50.4152 186.957 54.5556C185.804 56.0801 184.236 57.227 182.446 57.8537C180.702 58.409 178.605 57.5521 177.398 56.2071C176.348 54.9576 175.669 53.4301 175.442 51.8033C174.933 48.7829 175.15 45.5327 175.334 42.4884C175.527 39.2813 175.805 36.0551 175.518 32.8432C175.357 30.9572 175.018 28.9468 173.722 27.5778C173.236 27.0752 172.644 26.6906 171.991 26.4527C171.338 26.2148 170.641 26.1298 169.951 26.204C167.033 26.5439 165.412 29.7271 164.497 32.2209C163.978 33.5172 163.676 34.8923 163.602 36.2896C163.484 38.8409 163.225 41.4018 163.159 43.9483C163.126 45.3365 163.069 46.7246 162.909 48.1032C162.758 49.3669 162.372 50.4966 162.141 51.7363C161.958 52.914 161.541 54.0418 160.917 55.0513C160.292 56.0609 159.472 56.9312 158.507 57.6096C156.925 58.653 155.046 59.1313 153.166 58.969C152.362 58.907 151.583 58.6591 150.888 58.2443C150.192 57.8295 149.6 57.2587 149.155 56.5757C147.232 53.9047 147.114 50.2907 146.709 47.1315C146.214 43.3021 146.303 39.3866 146.237 35.5142C146.237 33.2501 146.143 30.986 146.096 28.7266C146.054 26.7114 145.827 24.6531 146.266 22.6954C147.015 19.3447 147.496 15.8361 150.508 13.7203C152.068 12.7216 153.852 12.1388 155.693 12.0258C156.831 11.9064 157.974 12.2034 158.917 12.8635C159.859 13.5815 159.996 14.6825 160.713 15.4914C161.137 15.9701 161.278 15.5776 161.839 15.2521C164.196 13.8831 167.024 13.5193 169.654 13.3805C172.219 13.2445 174.788 13.5686 177.243 14.3378" fill="#999999"/>
<path d="M214.427 50.3869C214.388 50.721 214.359 51.0599 214.335 51.3988C214.328 52.6823 214.099 53.9553 213.659 55.1639C211.443 60.3834 203.528 57.5172 201.489 53.6249C199.244 49.3421 198.333 43.9155 198.05 39.162C197.925 37.0347 198.175 34.8838 198.05 32.7848C197.877 30.6731 198.155 28.5492 198.865 26.5487C200.707 21.7435 205.667 18.4207 210.963 19.5785C213.789 20.1998 215.99 22.0494 216 25.0521C216 30.2857 215.698 35.5475 215.367 40.7622C215.213 43.1437 214.844 45.5298 214.705 47.9207C214.657 48.7491 214.532 49.568 214.441 50.3869M199.484 9.44081C199.355 7.47352 199.638 5.49211 200.856 3.85898C203.705 0.037344 209.889 0.272668 213.275 3.22832C217.29 6.73462 215.559 12.9659 211.246 15.418C209.258 16.5433 206.907 16.8801 204.674 16.3593C201.35 15.5545 199.686 12.5424 199.484 9.42198" fill="#999999"/>
<path d="M28.0852 112.796C22.9392 120.599 12.1829 122.671 5.53854 115.982C0.713264 111.123 0 102.679 0 94.6356C0 88.5822 1.0292 71.9401 9.33461 71.9401C13.686 71.9401 15.7444 75.0439 15.7444 79.0249C15.7444 85.8735 14.3083 92.6451 14.3083 99.4166C14.3083 101.725 14.8636 105.547 17.7884 105.547C22.9296 105.547 24.4902 88.5822 25.146 84.5192C26.0173 79.1839 28.7075 76.4753 34.3227 76.4753C48.1666 76.4753 37.1948 105.07 48.3246 105.07C52.518 105.07 54.179 99.2527 54.179 95.9899C54.179 88.505 52.9919 81.0154 52.9919 73.5305C52.9919 69.2315 55.6821 67 59.7942 67C69.8468 67 70 82.2107 70 89.4593C70 101.166 64.8588 119.085 50.3016 119.085C42.786 119.085 36.2231 112.338 31.5558 106.901C30.4452 108.829 29.3394 110.882 28.0757 112.796" fill="#999999"/>
<path d="M92.3441 111.414C92.1888 115.648 90.245 119 85.656 119C76.2426 119 75 103.331 75 96.5937C75 89.5438 75.546 80 84.804 80C91.5676 80 93.2761 83.2144 92.9654 89.1645C92.7348 96.6079 92.5795 103.976 92.3441 111.414Z" fill="#999999"/>
<path d="M128.7 74.0613C131.391 74.7827 133.886 76.0972 136.004 77.9087C142.21 83.2694 144.426 92.6863 143.934 100.566C143.934 100.846 143.896 101.121 143.867 101.396C143.512 105.415 142.991 109.504 141.712 113.351C141.352 114.54 140.827 115.672 140.154 116.715C138.775 118.722 136.701 119.447 134.332 119.447C132.475 119.447 130.429 118.973 128.946 117.811C127.16 116.388 126.919 114.732 127.052 112.516C127.25 108.949 128.032 105.448 128.411 101.904C128.747 98.7113 128.885 94.9587 127.79 91.8893C126.952 89.4889 125.109 87.5296 122.58 86.9745C121.37 86.6825 120.098 86.7803 118.947 87.2538C117.795 87.7274 116.822 88.5527 116.166 89.6122C114.897 91.7565 114.963 94.3989 114.83 96.7994C114.532 102.193 115.588 107.924 114.073 113.19C113.424 115.448 112.178 117.749 110.108 118.959C108.9 119.65 107.532 120.009 106.141 120C104.75 119.991 103.386 119.614 102.188 118.907C97.7587 116.245 98.1235 110.685 97.7729 106.174C97.4698 102.208 97.2993 98.1088 97.1808 94.1096C97.0198 87.3351 95.9635 78.8148 101.638 73.7814C103.571 72.064 106.849 71.2385 109.056 72.9179C109.718 73.4386 110.273 74.083 110.69 74.8155C110.776 74.9579 111.794 77.0073 111.875 76.9504C114.298 75.2633 117.062 74.1294 119.971 73.6286C122.879 73.1277 125.862 73.2722 128.709 74.0518" fill="#999999"/>
<path d="M181.396 72.4038C188.726 73.7938 193.366 79.206 195.334 86.2136C196.475 90.2803 197.036 94.4894 196.998 98.7145C196.951 102.765 197.079 107.002 195.815 110.915C194.716 114.301 192.444 117.807 188.684 118.39C186.99 118.621 185.266 118.397 183.687 117.741C182.719 117.4 181.846 116.83 181.144 116.078C180.771 115.63 180.465 115.13 180.236 114.593C178.943 111.698 179.185 108.383 179.451 105.211C179.676 102.619 179.897 100.022 180.112 97.42C180.252 96.2135 180.281 94.9966 180.198 93.7848C179.955 91.2531 178.843 88.8551 176.575 87.5749C174.06 86.1419 171.617 87.3934 169.834 89.4379C168.535 90.9098 167.583 92.6568 167.048 94.5491C166.326 97.1334 166.601 99.6508 166.464 102.249C166.321 105.006 166.373 107.767 166.373 110.528C166.373 115.261 163.469 120 158.049 120C148.855 120 149.644 105.951 149.644 99.3976C149.644 91.8502 145.841 75.375 156.718 73.6457C159.181 73.2588 161.025 74.1234 163.126 75.2173C164.757 76.0724 164.205 76.2205 166.002 75.2938C167.181 74.6871 168.294 74.004 169.53 73.5024C173.29 71.9917 177.405 71.6101 181.377 72.4038" fill="#999999"/>
<path d="M219.174 111.591C218.793 114.86 217.735 118.05 214.193 118.844C210.4 119.698 207.504 116.901 205.582 113.973C202.564 109.378 202.04 103.891 202.003 98.5251C201.97 94.635 202.207 90.5208 203.372 86.7896C204.045 84.6321 205.47 81.7741 207.68 80.8681C210.001 79.9341 212.981 79.6026 215.335 80.6393C221.37 83.2871 219.866 91.3801 219.754 96.6571C219.685 100.047 219.633 103.541 219.457 106.964C219.383 108.365 219.36 109.98 219.174 111.591Z" fill="#999999"/>
<path d="M246.969 107.356C251.526 107.365 256.061 106.723 260.434 105.449C262.413 104.901 264.551 103.953 266.531 103.953C270.413 103.953 272 107.499 272 110.964C272 113.724 270.562 115.611 268.036 116.321C261.623 117.751 254.02 119 247.521 119C235.168 119 224 110.421 224 97.1034C224 81.2696 238.495 73 251.959 73C261.067 73 270.572 79.2248 270.572 88.0426C270.572 102.456 250.852 102.222 240.791 102.852C241.582 105.926 243.801 107.342 246.969 107.342M242.373 91.6698C246.02 91.6698 257.424 91.3504 259.72 88.3619C259.403 85.2114 256.235 84.6585 253.541 84.6585C248.551 84.6585 243.954 87.4134 241.189 91.6698H242.373Z" fill="#999999"/>
<path d="M87.6316 52.1903L90.0444 57.6263L96.1021 58.0634C98.0304 58.2012 98.6654 60.5771 97.1792 62.0834L92.5088 66.8351L93.1955 72.9744C93.4166 74.9226 91.3142 76.5809 89.6164 75.7826L84.3205 73.269L78.6767 76.6237C76.8847 77.6928 74.9423 76.3433 75.3844 74.3429L76.7954 68.0468L72.6236 63.9841C71.2973 62.6964 72.2144 60.1827 74.171 59.7598L80.3322 58.3818L83.3893 52.5182C84.3582 50.6555 86.8697 50.4607 87.6222 52.1903" fill="#F4A93B"/>
<path d="M203.042 71.5673C202.904 70.2265 203.106 68.8735 203.631 67.625C204.29 66.1002 205.448 64.8254 206.927 63.9948C208.105 63.4043 209.403 63.068 210.729 63.0093C212.056 62.9506 213.379 63.1707 214.609 63.6546C216.073 64.2153 217.374 65.1127 218.397 66.2689C220.009 68.0863 220.38 70.8031 219.623 73.0399C218.175 77.2758 212.529 78.4781 208.447 77.8397C205.228 77.3364 203.312 74.5777 203.042 71.5673Z" fill="#999999"/>
</svg>
