<svg width="243" height="93" viewBox="0 0 243 93" fill="none" xmlns="http://www.w3.org/2000/svg">
<g clip-path="url(#clip0_2001_11)">
<path d="M62.4674 61.927H57.6074V31.0356H62.4674V44.2738H67.9929V31.0356H72.9369V61.927H67.9929V48.6888H62.4674V61.927ZM107.441 52.1268H112.126L109.78 36.5014L107.441 52.1268ZM118.525 61.9304H113.618L112.785 56.3235H106.819L105.982 61.9304H101.522L106.466 31.0356H113.581L118.525 61.9304ZM149.494 51.687L143.357 31.0322H148.435L152.149 45.1132L155.859 31.0322H160.498L154.357 51.687V61.9304H149.497V51.687H149.494ZM191.241 52.1268H195.926L193.587 36.5014L191.241 52.1268ZM197.425 61.9304L196.585 56.3235H190.622L189.782 61.9304H185.319L190.269 31.0356H197.385L202.335 61.9304H197.425ZM242.842 31.0356V35.4472H237.757V61.927H232.9V35.4472H227.815V31.0356H242.842Z" fill="#3A3330"/>
<path d="M8.79573 58.1435H0V0H8.79236V58.1435H8.79573ZM0 61.9273H8.79236V79.614H0V61.9273Z" fill="#BB3915"/>
<path d="M26.6829 58.143H17.8872V18.5156H26.6829V58.1464V58.143ZM17.8872 61.9268H26.6829V92.8183H17.8872V61.9268Z" fill="#BB3915"/>
</g>
<defs>
<clipPath id="clip0_2001_11">
<rect width="243" height="93" fill="white"/>
</clipPath>
</defs>
</svg>
