<svg width="161" height="58" viewBox="0 0 161 58" fill="none" xmlns="http://www.w3.org/2000/svg">
<path fill-rule="evenodd" clip-rule="evenodd" d="M49.5485 0V3.58276H26.5985V56.273L24.7743 58L22.9501 56.273V3.58276H0V0H49.5485ZM19.3126 7.1548H0V18.6003H2.18468L4.18366 10.7268H15.6642V49.3649L19.3126 52.8189V7.1548ZM30.2469 7.1548V52.8189L33.8844 49.3649V10.7268H45.3649L47.3748 18.6003H49.5595V7.1548H30.2469Z" fill="#999999"/>
<path d="M134.172 4.20492H132.457L131.944 1.49103H125.75V7.9164H129.18L129.562 6.48974H131.277V10.8663H129.562L129.18 9.40744H125.75V16.1868H132.37L132.883 13.2262H134.598V17.6778H120.474V16.1868H122.801V1.49103H120.474V0H134.172V4.20492ZM93.7883 0H99.687L105.695 11.2095L111.834 0H117.405V1.49103H115.078V16.1761H117.405V17.6671H109.9V16.1761H112.358V2.11319H112.194L105.848 13.8913H104.231L98.1249 2.11319H97.8081V16.1761H100.058V17.6671H93.7883V16.1761H96.115V1.49103H93.7883V0ZM82.6028 17.6671V16.1761H84.9294V1.49103H82.6028V0H90.2054V1.49103H87.8788V16.1761H90.2054V17.6671H82.6028ZM150.918 34.9588C151.082 34.9588 151.999 34.9588 152.534 34.9588H152.895C153.528 34.9588 154.184 34.8837 154.806 34.712C155.342 34.5619 155.855 34.3259 156.303 33.9933C156.521 33.8324 156.718 33.6394 156.893 33.4248C157.068 33.2103 157.22 32.9743 157.341 32.7061C157.472 32.438 157.559 32.1483 157.625 31.8265C157.69 31.5047 157.723 31.1615 157.723 30.786C157.723 30.1102 157.614 29.5095 157.395 29.0161C157.177 28.5119 156.849 28.1043 156.423 27.7825C155.986 27.4607 155.473 27.2676 154.883 27.1603C154.282 27.0531 153.605 27.0209 152.851 27.0209H150.929V34.9802L150.918 34.9588ZM145.642 25.5084H153.987C154.741 25.5084 155.484 25.4977 156.205 25.5728C156.663 25.6157 157.1 25.7444 157.505 25.9053C157.909 26.0662 158.28 26.27 158.63 26.4738C158.979 26.6884 159.307 26.9351 159.591 27.214C159.875 27.4929 160.126 27.8147 160.345 28.1579C160.563 28.5119 160.727 28.9088 160.836 29.3379C160.945 29.7777 161 30.2497 161 30.7753C161 31.3009 160.945 31.7407 160.836 32.1591C160.727 32.5881 160.552 32.985 160.334 33.339C160.115 33.693 159.853 34.0255 159.558 34.3151C159.263 34.6048 158.935 34.8729 158.564 35.0982C158.204 35.3235 157.81 35.5273 157.384 35.6882C156.969 35.8598 156.521 35.9993 156.041 36.1065C155.571 36.2138 155.08 36.2996 154.599 36.3532C154.107 36.4069 153.616 36.4391 153.102 36.4391H150.918V41.6845H153.474V43.1755H145.642V41.6845H147.968V26.9994H145.642V25.5084ZM140.759 37.1256C140.759 37.6619 140.715 38.1661 140.639 38.6273C140.562 39.0886 140.431 39.5177 140.267 39.9146C140.104 40.3114 139.907 40.6654 139.678 40.9872C139.448 41.309 139.186 41.5987 138.891 41.8561C138.596 42.1136 138.268 42.3388 137.908 42.5319C137.547 42.725 137.165 42.8859 136.739 43.0146C136.324 43.1433 135.876 43.2399 135.406 43.2935C134.937 43.3579 134.445 43.3901 133.932 43.3901C131.496 43.3901 129.65 42.9181 128.372 41.9634C127.727 41.4807 127.247 40.88 126.93 40.1398C126.613 39.3997 126.449 38.5415 126.449 37.5439V26.9887H124.123V25.4977H131.529V26.9887H129.41V37.0183C129.41 37.8872 129.519 38.6166 129.737 39.2066C129.846 39.4962 129.978 39.7644 130.141 40.0004C130.294 40.2364 130.48 40.4402 130.688 40.6225C130.895 40.8049 131.124 40.9551 131.376 41.0838C131.627 41.2125 131.911 41.3198 132.217 41.3949C132.523 41.4699 132.85 41.5343 133.2 41.5772C133.549 41.6201 133.921 41.6416 134.303 41.6416C135.046 41.6416 135.712 41.545 136.291 41.3627C136.87 41.1803 137.373 40.9122 137.788 40.5474C138.203 40.1827 138.52 39.7 138.727 39.11C138.935 38.5093 139.044 37.8014 139.044 36.9647V27.0102H136.925V25.5191H143.097V27.0102H140.77V37.147L140.759 37.1256ZM105.804 34.3366C105.804 34.8729 105.837 35.3878 105.891 35.892C105.957 36.3962 106.044 36.8789 106.165 37.3401C106.285 37.8014 106.449 38.2412 106.634 38.6488C106.82 39.0564 107.049 39.4211 107.301 39.7644C107.552 40.1076 107.836 40.408 108.164 40.6762C108.48 40.9443 108.841 41.1803 109.223 41.3841C109.605 41.5879 110.031 41.7381 110.479 41.8347C110.938 41.9312 111.43 41.9848 111.954 41.9848C112.435 41.9848 112.882 41.9312 113.308 41.8347C113.724 41.7381 114.117 41.5879 114.466 41.3841C114.827 41.1803 115.144 40.9551 115.438 40.6762C115.733 40.408 115.996 40.0969 116.225 39.7644C116.454 39.4211 116.662 39.0457 116.837 38.6488C117.011 38.2412 117.164 37.8121 117.274 37.3401C117.394 36.8681 117.481 36.3854 117.536 35.892C117.59 35.3878 117.623 34.8729 117.623 34.3366C117.623 33.8003 117.59 33.2854 117.536 32.7812C117.47 32.2771 117.383 31.7943 117.263 31.3331C117.143 30.8611 116.979 30.432 116.793 30.0244C116.607 29.6168 116.378 29.2521 116.127 28.9088C115.875 28.5656 115.591 28.2652 115.264 27.997C114.947 27.7289 114.586 27.4929 114.204 27.2891C113.822 27.0853 113.396 26.9351 112.937 26.8385C112.478 26.742 111.976 26.6884 111.451 26.6884C110.927 26.6884 110.468 26.742 110.042 26.8385C109.605 26.9351 109.212 27.0853 108.852 27.2891C108.491 27.4929 108.164 27.7181 107.869 27.997C107.574 28.2652 107.311 28.5763 107.082 28.9088C106.853 29.2521 106.656 29.6168 106.492 30.0244C106.328 30.432 106.197 30.8611 106.088 31.3331C105.99 31.8051 105.913 32.2878 105.859 32.7812C105.804 33.2854 105.782 33.8003 105.782 34.3366H105.804ZM102.516 34.3366C102.516 33.6823 102.571 33.0494 102.669 32.438C102.767 31.8265 102.931 31.2473 103.128 30.6895C103.335 30.1317 103.587 29.6061 103.882 29.1234C104.176 28.6407 104.526 28.1901 104.908 27.7825C105.302 27.3749 105.739 27.0102 106.208 26.6884C106.689 26.3666 107.213 26.0984 107.781 25.8731C108.349 25.6479 108.961 25.4762 109.605 25.3582C110.25 25.2402 110.938 25.1866 111.67 25.1866C113.123 25.1866 114.423 25.4119 115.57 25.8731C116.149 26.0984 116.673 26.3773 117.153 26.6884C117.634 27.0102 118.082 27.3642 118.475 27.7825C118.868 28.1901 119.218 28.6407 119.513 29.1234C119.808 29.6061 120.07 30.1317 120.267 30.6895C120.474 31.2473 120.627 31.8372 120.725 32.438C120.824 33.0494 120.878 33.6823 120.878 34.3366C120.878 34.9909 120.824 35.6238 120.725 36.2352C120.627 36.8467 120.463 37.4259 120.267 37.9837C120.059 38.5415 119.808 39.0671 119.513 39.5498C119.218 40.0326 118.868 40.4831 118.475 40.8907C118.082 41.2983 117.645 41.663 117.153 41.9848C116.673 42.3066 116.138 42.5748 115.57 42.8001C114.991 43.0253 114.379 43.197 113.734 43.315C113.079 43.433 112.391 43.4866 111.67 43.4866C110.949 43.4866 110.25 43.433 109.605 43.315C108.961 43.197 108.349 43.0361 107.781 42.8001C107.213 42.5748 106.689 42.2959 106.208 41.9848C105.728 41.663 105.291 41.309 104.908 40.8907C104.515 40.4831 104.176 40.0326 103.882 39.5498C103.587 39.0671 103.335 38.5415 103.128 37.9837C102.92 37.4259 102.767 36.836 102.669 36.2352C102.571 35.6238 102.516 34.9909 102.516 34.3366ZM90.4021 34.2401C91.0575 34.2401 91.6364 34.1542 92.1389 33.9719C92.6523 33.8003 93.0892 33.5321 93.4497 33.1888C93.8211 32.8348 94.0942 32.4272 94.2689 31.9552C94.4546 31.4833 94.542 30.9469 94.542 30.3355C94.542 29.1019 94.1597 28.2009 93.3841 27.6323C93.0018 27.3534 92.554 27.1925 92.0515 27.096C91.5381 26.9994 90.9701 26.978 90.3256 26.978H88.414V34.2293H90.3911L90.4021 34.2401ZM90.6533 41.6738V43.1648H83.1489V41.6738H85.4756V26.9887H83.1489V25.4977H90.9373C91.1449 25.4977 91.3415 25.4977 91.549 25.4977C92.3027 25.487 93.0783 25.4762 93.7337 25.6264C94.1488 25.723 94.4983 25.8409 94.826 25.9804C95.1537 26.1198 95.4487 26.2915 95.7436 26.4953C96.0495 26.6991 96.3116 26.9244 96.5519 27.1925C96.7923 27.45 96.9998 27.7396 97.1746 28.0614C97.3493 28.3832 97.4804 28.7265 97.5678 29.1019C97.6552 29.4773 97.6989 29.885 97.6989 30.3248C97.6989 30.9362 97.6006 31.494 97.4149 32.0089C97.2183 32.5238 96.9342 32.9957 96.5519 33.4248C96.1696 33.8539 95.7327 34.2186 95.2302 34.519C94.7496 34.8086 94.2034 35.0446 93.6135 35.2162L98.6492 41.6738H100.255V43.1648H96.0495L90.9592 35.5809H88.414V41.6738H90.6533ZM78.1897 41.9527C78.0149 42.0492 77.8183 42.1565 77.6108 42.253C77.4032 42.3495 77.1847 42.4461 76.9554 42.5319C76.726 42.6284 76.4856 42.7143 76.2453 42.7893C76.005 42.8644 75.7538 42.9395 75.5025 43.0146C75.2513 43.079 75.0001 43.1433 74.7379 43.197C74.4867 43.2506 74.2245 43.3042 73.9733 43.3364C73.7111 43.3793 73.4599 43.4115 73.2196 43.433C72.9683 43.4544 72.728 43.4651 72.4877 43.4651C71.6903 43.4651 70.9366 43.4222 70.2375 43.3257C69.5274 43.2399 68.8611 43.1004 68.2494 42.9181C67.6268 42.7357 67.0588 42.5104 66.5344 42.2316C66.0101 41.9527 65.5295 41.6308 65.1035 41.2554C64.6774 40.88 64.2951 40.4509 63.9674 39.9789C63.6397 39.5069 63.3666 38.9813 63.1482 38.4021C62.9297 37.8228 62.7549 37.2007 62.6457 36.5141C62.5365 35.8384 62.4818 35.1089 62.4818 34.3259C62.4818 33.4999 62.5474 32.7383 62.6894 32.0411C62.8205 31.3438 63.028 30.7002 63.3011 30.121C63.5742 29.5417 63.88 29.0161 64.2405 28.5441C64.601 28.0721 65.0051 27.6538 65.4421 27.2891C65.8899 26.9244 66.3706 26.6026 66.884 26.3451C67.3974 26.0769 67.9435 25.8624 68.5225 25.7015C69.1014 25.5406 69.6804 25.4119 70.2812 25.3368C70.871 25.251 71.4718 25.2188 72.0835 25.2188C73.3506 25.2188 74.3884 25.3046 75.2076 25.4762C76.0269 25.6479 76.7697 25.8731 77.4141 26.152H77.436V30.5286H75.7101V27.8576L75.3605 27.3749C75.2841 27.332 75.2076 27.2998 75.1093 27.2676C75.011 27.2354 74.9018 27.2033 74.7925 27.1711C74.6724 27.1389 74.5522 27.1174 74.4211 27.0853C74.301 27.0638 74.1699 27.0424 74.0388 27.0209C73.9077 26.9994 73.7766 26.978 73.6346 26.9673C73.5036 26.9565 73.3615 26.9458 73.2196 26.9351C73.0775 26.9351 72.9465 26.9244 72.8154 26.9136C72.6843 26.9136 72.5641 26.9136 72.444 26.9136C71.5155 26.9136 70.6416 27.0531 69.8224 27.3427C69.4182 27.4822 69.0359 27.6645 68.6863 27.8898C68.3368 28.115 68.0091 28.3725 67.7032 28.6728C67.1024 29.2735 66.6327 30.0459 66.2832 30.9791C66.1084 31.4511 65.9773 31.966 65.8899 32.5345C65.8026 33.103 65.7589 33.7144 65.7589 34.3688C65.7589 35.5487 65.9118 36.6 66.2067 37.5225C66.5017 38.4343 66.9495 39.2173 67.5503 39.8716C68.1511 40.5153 68.872 41.0087 69.735 41.3305C70.5979 41.6523 71.581 41.8132 72.7061 41.8132C72.9902 41.8132 73.2414 41.8132 73.4817 41.781C73.722 41.7596 73.9405 41.7381 74.1371 41.6952C74.3337 41.663 74.5194 41.6201 74.6942 41.5665C74.869 41.5236 75.0219 41.4699 75.1748 41.4163L75.5462 40.9872V36.2996H72.8372V34.8086H80.003V36.2996H78.2115V41.9848H78.1897V41.9527ZM74.9454 17.6564H66.7638V16.1653H69.3964V1.49103H64.8959L64.3825 5.28833H62.46V0H79.2711V5.28833H77.3486L76.8352 1.49103H72.3348V16.1761H74.9673V17.6671H74.9236L74.9454 17.6564Z" fill="#999999"/>
<path d="M159.766 50.7701H160.596V56.8844H159.93L156.729 52.3147V56.8844H155.899V50.7701H156.565L159.766 55.329V50.7701ZM147.182 55.5113C147.641 55.9726 148.209 56.1978 148.897 56.1978C149.585 56.1978 150.153 55.9726 150.612 55.5113C151.071 55.0501 151.3 54.4923 151.3 53.8165C151.3 53.1407 151.071 52.5722 150.612 52.1217C150.153 51.6604 149.585 51.4351 148.897 51.4351C148.209 51.4351 147.641 51.6604 147.182 52.1217C146.723 52.5829 146.494 53.1407 146.494 53.8165C146.494 54.4923 146.723 55.0501 147.182 55.5113ZM151.18 56.0691C150.557 56.6913 149.793 56.9916 148.886 56.9916C147.979 56.9916 147.226 56.6806 146.603 56.0691C145.98 55.447 145.674 54.7068 145.674 53.8272C145.674 52.9476 145.98 52.1967 146.603 51.5746C147.226 50.9632 147.99 50.6521 148.886 50.6521C149.782 50.6521 150.546 50.9632 151.18 51.5746C151.803 52.186 152.119 52.9369 152.119 53.8272C152.119 54.7175 151.803 55.4577 151.18 56.0691ZM141.054 50.7701H141.884V56.8844H141.054V50.7701ZM137.46 50.7701V51.5424H135.625V56.8844H134.806V51.5424H132.971V50.7701H137.46ZM127.148 56.9916C126.209 56.9916 125.423 56.6913 124.811 56.0799C124.199 55.4684 123.893 54.7175 123.893 53.8272C123.893 52.9369 124.199 52.186 124.811 51.5746C125.423 50.9632 126.198 50.6628 127.148 50.6628C127.716 50.6628 128.241 50.7915 128.721 51.0597C129.202 51.3279 129.573 51.6926 129.836 52.1431L129.115 52.5507C128.94 52.2182 128.667 51.9393 128.317 51.7462C127.968 51.5424 127.574 51.4459 127.148 51.4459C126.427 51.4459 125.849 51.6711 125.39 52.1217C124.931 52.5722 124.712 53.1407 124.712 53.8272C124.712 54.5137 124.942 55.0715 125.39 55.5221C125.849 55.9726 126.427 56.1978 127.148 56.1978C127.574 56.1978 127.968 56.1013 128.317 55.8975C128.667 55.6937 128.94 55.4255 129.115 55.1037L129.836 55.5006C129.573 55.9511 129.202 56.3158 128.721 56.584C128.241 56.8522 127.716 56.9916 127.148 56.9916ZM119.535 56.4017C119.098 56.7986 118.541 56.9916 117.853 56.9916C117.164 56.9916 116.607 56.7986 116.17 56.4017C115.733 56.0048 115.515 55.4792 115.515 54.8248V50.7701H116.345V54.7926C116.345 55.2217 116.476 55.565 116.738 55.8224C117.001 56.0799 117.372 56.1978 117.864 56.1978C118.355 56.1978 118.726 56.0691 118.989 55.8224C119.251 55.565 119.382 55.2324 119.382 54.7926V50.7701H120.201V54.8248C120.201 55.4792 119.983 56.0048 119.557 56.4017H119.535ZM108.251 51.521V53.795H109.911C110.217 53.795 110.479 53.6878 110.698 53.4625C110.916 53.2372 111.025 52.9691 111.025 52.658C111.025 52.3469 110.916 52.0787 110.698 51.8535C110.479 51.6282 110.217 51.521 109.911 51.521H108.251ZM111.113 56.8736L109.715 54.5352H108.251V56.8736H107.421V50.7593H109.911C110.447 50.7593 110.905 50.9417 111.277 51.3171C111.659 51.6819 111.845 52.1324 111.845 52.658C111.845 53.0549 111.725 53.4196 111.484 53.7414C111.244 54.0632 110.938 54.2992 110.556 54.4279L112.02 56.8736H111.102H111.113ZM103.827 50.7593V51.5317H101.981V56.8736H101.162V51.5317H99.3265V50.7593H103.827ZM94.1597 56.9809C93.5808 56.9809 93.0783 56.8522 92.6741 56.584C92.2591 56.3158 91.9751 55.9511 91.8112 55.4792L92.5212 55.0823C92.7615 55.8224 93.3186 56.1871 94.1816 56.1871C94.6076 56.1871 94.9353 56.1013 95.1647 55.9297C95.3941 55.758 95.5033 55.5328 95.5033 55.2432C95.5033 54.9535 95.3941 54.7283 95.1647 54.5888C94.9353 54.4386 94.5639 54.2885 94.0396 54.1276C93.7774 54.0418 93.5808 53.9774 93.4388 53.9345C93.3077 53.8809 93.1329 53.8058 92.9254 53.7092C92.7178 53.6127 92.5649 53.5054 92.4666 53.3981C92.3683 53.2909 92.2809 53.1514 92.1935 52.9798C92.1171 52.8082 92.0734 52.6044 92.0734 52.3898C92.0734 51.8642 92.2591 51.4351 92.6414 51.1241C93.0237 50.813 93.4825 50.6521 94.0287 50.6521C94.5202 50.6521 94.9462 50.7701 95.3176 51.0168C95.6781 51.2635 95.9512 51.5853 96.1369 51.9822L95.4487 52.3791C95.1865 51.7462 94.7059 51.4351 94.0396 51.4351C93.701 51.4351 93.4279 51.521 93.2203 51.6819C93.0128 51.8428 92.9145 52.068 92.9145 52.3469C92.9145 52.6258 93.0128 52.8189 93.2094 52.9583C93.406 53.0978 93.7446 53.248 94.2253 53.3981C94.4 53.4518 94.5202 53.484 94.5857 53.5161C94.6622 53.5376 94.7714 53.5805 94.9244 53.6341C95.0773 53.6878 95.1865 53.7414 95.263 53.7736C95.3395 53.8058 95.4268 53.8594 95.547 53.9238C95.6672 53.9881 95.7546 54.0525 95.8201 54.1061C95.8747 54.1598 95.9512 54.2348 96.0276 54.3207C96.1041 54.4065 96.1696 54.4923 96.2024 54.5781C96.2352 54.6639 96.268 54.7605 96.3007 54.8785C96.3226 54.9964 96.3444 55.1144 96.3444 55.2432C96.3444 55.7795 96.1478 56.2086 95.7436 56.5197C95.3504 56.8415 94.8261 56.9916 94.1925 56.9916L94.1597 56.9809ZM87.3108 50.7593H88.1409V56.8736H87.4746L84.274 52.304V56.8736H83.4439V50.7593H84.1102L87.3108 55.3182V50.7593ZM74.727 55.5006C75.1858 55.9619 75.7538 56.1871 76.442 56.1871C77.1301 56.1871 77.6982 55.9619 78.157 55.5006C78.6157 55.0394 78.8451 54.4816 78.8451 53.8058C78.8451 53.13 78.6157 52.5615 78.157 52.1109C77.6982 51.6497 77.1301 51.4244 76.442 51.4244C75.7538 51.4244 75.1858 51.6497 74.727 52.1109C74.2682 52.5722 74.0388 53.13 74.0388 53.8058C74.0388 54.4816 74.2682 55.0394 74.727 55.5006ZM78.725 56.0584C78.1023 56.6806 77.3377 56.9809 76.4311 56.9809C75.5244 56.9809 74.7707 56.6698 74.148 56.0584C73.5254 55.4362 73.2196 54.6961 73.2196 53.8165C73.2196 52.9369 73.5254 52.186 74.148 51.5639C74.7707 50.9524 75.5353 50.6413 76.4311 50.6413C77.3268 50.6413 78.0914 50.9524 78.725 51.5639C79.3476 52.1753 79.6644 52.9262 79.6644 53.8165C79.6644 54.7068 79.3476 55.447 78.725 56.0584ZM67.168 56.9809C66.2286 56.9809 65.4421 56.6806 64.8304 56.0691C64.2187 55.4577 63.9128 54.7068 63.9128 53.8165C63.9128 52.9262 64.2187 52.1753 64.8304 51.5639C65.4421 50.9524 66.2177 50.6521 67.168 50.6521C67.736 50.6521 68.2603 50.7808 68.741 51.049C69.2216 51.3171 69.593 51.6819 69.8552 52.1324L69.1342 52.54C68.9594 52.2075 68.6864 51.9286 68.3368 51.7355C67.9873 51.5317 67.594 51.4351 67.168 51.4351C66.4471 51.4351 65.8681 51.6604 65.4093 52.1109C64.9506 52.5615 64.7321 53.13 64.7321 53.8165C64.7321 54.503 64.9615 55.0608 65.4093 55.5113C65.8572 55.9619 66.4471 56.1871 67.168 56.1871C67.594 56.1871 67.9873 56.0906 68.3368 55.8868C68.6864 55.683 68.9594 55.4148 69.1342 55.093L69.8552 55.4899C69.593 55.9404 69.2216 56.3051 68.741 56.5733C68.2603 56.8415 67.736 56.9809 67.168 56.9809Z" fill="#999999"/>
</svg>
