<svg width="225" height="58" viewBox="0 0 225 58" fill="none" xmlns="http://www.w3.org/2000/svg">
<path d="M96.4849 43.9782L85.5897 29.0378C84.8164 28.2663 84.2658 28.0198 82.7191 28.0198H79.0226V43.9782H73.3989V8.67319H83.2698C93.8653 8.67319 99.5457 11.5841 99.5457 17.5969C99.5457 22.5916 95.1326 25.2122 89.8935 26.8108L103.117 43.9782H96.4849ZM93.8653 17.9349C93.8653 12.793 90.3267 9.44466 83.0471 9.44466H79.0186V26.95C80.2899 27.1489 82.9945 27.2403 84.0957 27.2403C90.104 27.2403 93.8613 22.9733 93.8613 17.9309" fill="#999999"/>
<path d="M146.167 44.3639H140.041L134.745 32.7759H119.077L113.676 44.2804H112.364L119.627 28.8986L129.227 8.28745H129.446L146.163 44.3639H146.167ZM134.357 31.901L126.907 15.704L120.672 29.2326L119.457 31.901H134.357Z" fill="#999999"/>
<path d="M189.225 44.3639H183.1L177.804 32.7759H162.135L156.734 44.2804H155.422L162.686 28.8986L172.285 8.28745H172.504L189.221 44.3639H189.225ZM177.415 31.901L169.965 15.704L163.73 29.2326L162.516 31.901H177.415Z" fill="#999999"/>
<path d="M211.323 10.4667C211.991 10.4667 212.68 10.4786 213.368 10.4985H225V9.59578H202.493V44.8889H208.129V27.5306H218.765V26.6597H208.129V10.4667H211.323Z" fill="#999999"/>
<path d="M61.6778 31.7817C61.6778 31.7817 61.6576 31.7697 61.6212 31.7499C61.5564 31.7101 61.5564 31.7021 61.5078 31.6743C61.4714 31.6544 61.4633 31.6504 61.3904 31.6067C61.3904 31.6067 61.3782 31.5987 61.3661 31.5948C61.2973 31.555 61.2568 31.5272 61.2163 31.5033C61.1798 31.4794 61.1434 31.4596 61.0705 31.4238C61.0017 31.388 60.9693 31.3681 60.9329 31.3522C60.8681 31.3244 60.8074 31.3005 60.7993 31.2965C60.7709 31.2886 60.7669 31.2846 60.7385 31.2766C60.698 31.2607 60.6819 31.2528 60.6373 31.2369C60.6171 31.2289 60.6009 31.2249 60.5928 31.221C60.5037 31.1891 60.4227 31.1534 60.3094 31.1096C60.2365 31.0818 60.1636 31.0579 60.0138 31.0062L59.9976 31.0022C59.8883 30.9664 59.8154 30.9426 59.8073 30.9386C59.6899 30.8988 59.532 30.871 59.4956 30.867C59.3943 30.8511 59.3863 30.8551 59.1676 30.8233C59.1231 30.8153 59.1069 30.8153 59.0664 30.8074C58.9976 30.7994 58.9166 30.7875 58.8194 30.7835C58.7627 30.7835 58.7142 30.7835 58.6251 30.7795C58.5401 30.7795 58.4915 30.7795 58.4227 30.7795C58.2729 30.7835 58.1554 30.7994 58.0583 30.8114C58.034 30.8114 58.0137 30.8153 57.9854 30.8193C57.8599 30.8352 57.7951 30.8432 57.7303 30.8551C57.6574 30.867 57.6048 30.8829 57.5319 30.9028C57.3902 30.9426 57.2809 30.9824 57.2364 30.9983C57.038 31.0738 56.9003 31.1494 56.7262 31.2448C56.5683 31.3323 56.4469 31.4079 56.3456 31.4834C56.3335 31.4914 56.3214 31.5033 56.3011 31.5152C56.1554 31.6226 56.0825 31.6783 56.0217 31.7339C55.9691 31.7856 55.9165 31.8413 55.9003 31.8572C55.876 31.8851 55.8598 31.901 55.8274 31.9368C55.7788 31.9885 55.7545 32.0123 55.7383 32.0282C55.6209 32.1515 55.5642 32.3305 55.5561 32.3543C55.5561 32.3583 55.5359 32.3981 55.5035 32.4816C55.4995 32.4935 55.4914 32.5134 55.4752 32.5293C55.4549 32.5492 55.4306 32.5651 55.4185 32.5691C55.4185 32.5691 55.4023 32.577 55.3901 32.581C54.8841 32.7758 54.1026 32.4816 54.1026 32.4816C53.7828 32.3583 52.9811 32.4418 51.3859 32.6048C51.3535 32.6048 50.8353 32.6724 49.7907 32.8077C49.7907 32.8077 48.6409 32.9548 47.6975 33.0781C47.572 33.094 47.4587 33.1099 47.4587 33.1099C47.3412 33.1258 47.2441 33.1377 47.1024 33.1576C47.1024 33.1576 46.9728 33.1735 46.7258 33.2053C45.9201 33.3127 45.5193 33.3644 45.082 33.4201C44.7946 33.4559 44.6002 33.4797 44.2602 33.5235C44.1063 33.5433 44.0091 33.5592 43.8188 33.5831C42.0536 33.8297 42.0738 33.8217 42.0698 33.8217C42.0698 33.8217 41.8228 33.937 41.5394 33.8853C41.5353 33.8853 41.5151 33.8814 41.507 33.8694C41.507 33.8694 41.4949 33.8456 41.5191 33.8018C41.5839 33.6905 41.758 33.6149 41.758 33.6149C42.4423 33.1457 43.0212 32.7838 43.4585 32.5213C43.4585 32.5213 44.1832 32.0839 45.3047 31.4596C45.3412 31.4397 45.3776 31.4198 45.3776 31.4198C45.7703 31.2011 46.0659 31.046 46.0821 31.0341C47.1631 30.4535 48.4263 30.1234 48.4263 30.1234C49.3251 29.8888 50.3049 29.7496 50.7705 29.7655C50.7786 29.7655 51.139 29.7774 51.5195 29.7456C51.6896 29.7297 51.8232 29.7098 51.892 29.7019C51.9163 29.7019 52.0499 29.678 52.2078 29.6422C52.5965 29.5547 53.0662 29.3957 53.0662 29.3957C53.4427 29.2684 53.9407 29.1889 54.9407 29.0338C54.9731 29.0298 54.9934 29.0258 55.0217 29.0218C56.208 29.1889 60.447 29.4474 61.2365 24.9219C61.2365 24.9219 57.1513 23.9118 55.2241 27.6618C55.1229 27.7931 55.05 27.8964 54.9974 28.0038C54.9083 28.1828 54.7707 28.3379 54.6614 28.5089C54.6492 28.5287 54.6087 28.5884 54.5359 28.6321C54.4711 28.6719 54.4103 28.6799 54.382 28.6838C53.9164 28.7594 53.6816 28.7952 53.5885 28.819C53.5601 28.827 53.471 28.8509 53.4427 28.8151C53.4306 28.7992 53.4346 28.7793 53.4386 28.7514C53.4427 28.7037 53.4629 28.6719 53.471 28.66C53.5075 28.6003 53.5561 28.5645 53.5601 28.5606C53.6451 28.5009 54.0379 27.976 54.2605 27.1011C54.3618 26.7074 54.378 26.4251 54.3739 26.2064C54.3739 26.0791 54.3132 25.9041 54.2039 25.5542C54.1958 25.5224 54.1715 25.4587 54.1188 25.4428C54.0541 25.423 53.9771 25.5065 53.9447 25.5343C53.7221 25.7649 53.9569 25.4309 53.0662 26.266C53.0014 26.3296 52.9407 26.3853 52.8475 26.4569C52.7423 26.5404 52.6937 26.5643 52.5682 26.6637C52.5682 26.6637 52.4791 26.7313 52.3536 26.8386C51.9528 27.1767 50.3414 29.0696 50.228 29.2883C50.2199 29.3002 50.1956 29.3559 50.1308 29.3957C50.1065 29.4116 50.0863 29.4155 50.0539 29.4235C49.9324 29.4553 49.8717 29.4712 49.7786 29.4831C49.7259 29.4911 49.6976 29.4951 49.6409 29.503C49.5316 29.515 49.0215 29.5786 48.4304 29.7098C47.9121 29.8251 47.5315 29.9484 47.3979 29.9922C47.3898 29.9922 47.3615 30.0041 47.3331 30.012C46.572 30.2705 45.8554 30.6602 45.1549 31.046C45.0861 31.0818 44.9768 31.1414 44.8391 31.2249C44.6893 31.3124 44.584 31.38 44.5476 31.3999C44.2763 31.5709 43.9646 31.7459 43.7379 31.8731C42.916 32.3424 42.835 32.4378 41.8269 33.0661C41.8269 33.0661 41.4139 33.3246 41.1588 33.6269C41.1588 33.6269 41.1548 33.6348 41.1467 33.6428C41.1467 33.6428 41.1143 33.6785 41.0819 33.7064C41.0576 33.7302 40.9483 33.8217 40.7904 33.8774C40.7094 33.9092 40.6365 33.9211 40.6203 33.9251C40.6122 33.9251 40.6082 33.9251 40.6082 33.9251C39.8106 34.0563 38.8186 34.4779 38.8146 34.4779C37.2032 35.1539 37.4178 35.0068 36.9036 35.2613C36.6809 35.3726 35.3975 36.0248 34.3367 36.9673C34.0533 37.2178 33.5188 37.7308 33.2921 38.0171C33.2071 38.1245 33.0978 38.2159 33.0208 38.3352C33.0208 38.3352 32.8872 38.5381 32.7496 38.6017C32.7374 38.6057 32.705 38.6216 32.6888 38.6057C32.6686 38.5898 32.6727 38.554 32.6767 38.5381C32.782 37.8262 33.6727 36.8877 33.6727 36.8877C33.9561 36.5895 34.1504 36.3588 34.195 36.3032C34.3407 36.1322 34.3083 36.16 34.4177 36.0288C34.4298 36.0129 34.5877 35.8299 34.782 35.6391C35.608 34.8278 36.3368 34.2393 36.3368 34.2393C37.2315 33.5195 37.9805 32.9588 38.3571 32.6764C39.0859 32.1316 39.6527 31.718 40.7863 30.8949C41.5232 30.358 42.2277 29.849 42.2277 29.849C42.6123 29.5706 42.9605 29.3201 43.5192 28.9145C43.8229 28.6918 44.0496 28.5287 44.1508 28.4532C44.3492 28.31 44.6731 28.0714 45.082 27.7732C45.6084 27.3874 45.6853 27.3278 46.0456 27.0653C46.0456 27.0653 46.3169 26.8665 46.6125 26.6557C48.1793 25.5303 48.9607 24.9656 49.5802 24.5839C49.5802 24.5839 51.3009 23.5181 53.4872 22.5955C53.4913 22.5955 53.5196 22.5836 53.5561 22.5677C53.5966 22.5518 53.9366 22.4086 53.9366 22.4086C53.9366 22.4086 54.0095 22.4046 54.0864 22.3808C54.1472 22.3649 54.1553 22.353 54.2767 22.3092C54.3294 22.2893 54.3618 22.2774 54.4103 22.2615C54.4751 22.2416 54.5035 22.2337 54.6128 22.2018C54.6411 22.1939 54.6573 22.1899 54.6695 22.1859C54.7545 22.1581 54.8071 22.1342 54.8476 22.1143C54.9853 22.0547 54.9934 22.0746 55.1675 22.007C55.1918 21.995 55.2282 21.9831 55.2808 21.9672C55.3335 21.9513 55.378 21.9394 55.4185 21.9433C55.4306 21.9433 55.4428 21.9433 55.459 21.9433C55.4711 21.9433 55.4752 21.9394 55.5076 21.9274C55.5197 21.9274 55.5197 21.9235 55.5238 21.9235C55.544 21.9235 55.5602 21.9235 55.5642 21.9235C55.6007 21.9354 55.6331 21.9434 55.6695 21.9553C55.9732 22.0984 56.2647 22.2058 56.5481 22.2933C56.5562 22.2933 56.5683 22.2973 56.5764 22.3013C60.3256 23.4107 61.9289 19.7363 61.9289 19.7363C57.868 18.0422 56.0096 20.3726 55.4387 21.3468C55.1756 21.5099 54.1148 21.7803 53.718 21.9076C53.6411 21.9314 53.4629 22.003 53.1067 22.1501C52.7423 22.2973 52.1349 22.5438 51.3859 22.9057C51.2685 22.9614 50.9284 23.1284 50.5074 23.3511C49.4587 23.9078 48.6895 24.4089 47.9243 24.91C47.819 24.9776 46.6206 25.7689 45.8027 26.3972C45.7582 26.433 45.5476 26.5921 45.2521 26.8227C44.8189 27.1528 44.6043 27.3198 44.41 27.467C43.9727 27.7931 43.4625 28.1788 42.8066 28.5924C42.4949 28.7912 42.4706 28.7912 42.0212 29.0616C41.4949 29.3797 41.0859 29.6462 40.2843 30.1711C39.017 31.0022 38.1182 31.6186 37.8388 31.8095C37.6121 31.9646 37.3085 32.1754 36.9036 32.4577C36.4704 32.7639 35.8914 33.1695 35.1707 33.7064C34.4986 34.2074 34.1545 34.4659 33.701 34.8556C33.3204 35.1857 33.1261 35.3527 32.9237 35.5635C32.3933 36.1202 31.7333 36.9951 31.5592 36.9394C31.5147 36.9275 31.4864 36.8957 31.4864 36.8957C31.4256 36.8321 31.4459 36.7326 31.4459 36.7048C31.4783 36.4702 31.2677 35.9532 31.3406 34.4421C31.373 33.7899 31.4216 33.7104 31.4378 33.094C31.4378 33.0264 31.4378 32.9747 31.454 32.9031C31.4702 32.8077 31.5511 32.4617 32.2111 31.9566C32.5512 31.6982 32.705 31.6584 33.2881 31.2329C33.3002 31.2249 33.3488 31.1891 33.4095 31.1454C33.7618 30.8829 34.0047 30.6841 34.1909 30.533C34.1909 30.533 35.0128 29.8609 35.6363 29.3917C35.7052 29.336 35.778 29.2843 35.778 29.2843C35.778 29.2843 35.9035 29.1928 36.0331 29.0974C36.442 28.8031 36.8671 28.5208 36.8671 28.5208C37.685 27.976 37.8996 27.8607 38.6162 27.3795C38.762 27.2801 38.9199 27.1727 39.1263 27.0256C39.2802 26.9182 39.6891 26.6279 40.26 26.1865C40.5151 25.9876 41.005 25.6059 41.6204 25.081C41.6204 25.081 42.5354 24.3015 43.8998 23.0091C44.1913 22.7307 44.3006 22.6273 44.3006 22.6273C44.4261 22.5041 44.5152 22.4166 44.6691 22.2734C44.7865 22.1621 44.8391 22.1143 44.8918 22.0666C45.1671 21.8081 45.7379 21.2156 45.9363 21.144C50.4223 21.2156 50.564 16.8214 50.564 16.8214C45.6894 16.6862 45.1468 20.1618 45.0861 20.9333C44.576 21.2116 43.5435 22.4365 43.5435 22.4365C43.4544 22.5399 43.1508 22.8341 42.5394 23.4187C41.6001 24.3174 40.8309 24.9259 39.7458 25.7769C38.9968 26.3654 37.8024 27.2999 37.7336 27.2244C37.7052 27.1926 37.8915 26.9778 38.349 26.5046C39.4624 25.3553 40.3936 24.5202 40.6487 24.2896C41.7904 23.2676 42.669 21.9235 43.9767 21.1122C43.9889 21.1043 44.0861 21.0486 44.1265 20.9412C44.1387 20.9134 44.1589 20.8498 44.1265 20.7981C44.082 20.7225 43.9686 20.7265 43.9646 20.7265C43.8755 20.7305 43.8107 20.7941 43.7945 20.81L42.2034 21.8996C41.5758 22.4444 41.4665 22.512 38.7782 25.1963C37.1546 26.8188 36.5675 27.4192 36.5675 27.4192C36.4582 27.5306 36.2315 27.7612 35.9157 28.0595C35.7537 28.2106 35.3246 28.6083 34.6444 29.1491C33.6848 29.9126 33.6484 29.8331 32.4176 30.7557C31.5471 31.4039 31.3447 31.6186 31.3406 31.4635C31.3123 29.3161 31.3123 28.0595 31.2677 25.928C31.2596 25.5542 31.6726 25.407 32.2111 24.6038C32.4297 24.2777 32.5269 24.1186 33.4581 22.6154C33.9359 21.8479 34.0492 21.669 34.2679 21.3826C34.6403 20.8975 34.9845 20.5356 35.1869 20.3248C35.6282 19.8635 35.7214 19.8278 36.2072 19.3545C36.353 19.2114 36.9319 18.6427 37.5433 17.903C37.6526 17.7718 37.9725 17.3383 38.6081 16.4754C39.1304 15.7676 39.5677 15.1711 39.9078 14.7018C40.175 14.332 40.3086 14.149 40.3531 14.0894C40.3653 14.0735 40.3734 14.0616 40.3815 14.0457C41.7985 13.4452 44.2075 11.8147 42.9686 7.94144C42.9686 7.94144 38.6891 8.69304 39.3328 13.6321C39.268 13.9741 39.1709 14.3479 39.0211 14.7257C38.8834 15.0756 38.7458 15.3261 38.6769 15.4375C38.5028 15.7318 38.3449 15.9306 38.2437 16.0579C37.2356 17.3264 37.3813 17.1753 37.0412 17.573C36.6971 17.9786 36.3125 18.428 35.8671 18.8654C35.8307 18.8972 35.7335 18.9927 35.5473 19.1756C35.1829 19.5295 34.8873 19.8238 34.8306 19.8755C34.199 20.5038 33.4945 21.486 33.4095 21.6014C32.9682 22.2177 32.6565 22.7427 32.2354 23.4545C31.5997 24.5242 31.3811 24.9974 31.2434 24.9577C31.1098 24.9179 31.1706 24.4248 31.2232 23.7249C31.4459 20.8696 31.126 20.5157 31.5835 19.4142C31.7171 19.0881 31.6807 19.279 32.4378 17.8553C32.7334 17.2986 33.037 16.7458 33.3285 16.1891C33.446 15.9664 33.535 15.7994 33.6767 15.5608C33.9237 15.1512 34.033 15.0398 34.2071 14.7336C34.3853 14.4195 34.446 14.2365 34.5796 13.9144C35.0816 12.7254 35.5068 12.3357 36.0169 11.3375C36.0533 11.2699 36.1343 11.1069 36.2801 10.924C36.3206 10.8723 36.3934 10.7848 36.4947 10.6893C37.4461 10.4825 39.7296 9.65539 39.1506 6.53767C39.1506 6.53767 36.1181 6.69674 36.0776 10.1485C36.0776 10.1565 36.0736 10.1644 36.0695 10.1763C36.0169 10.3275 35.9076 10.6058 35.689 11.0313C35.3043 11.771 34.9116 12.3118 34.8144 12.447C34.3772 13.0515 34.4946 13.0435 33.2921 15.2784C32.3245 17.0799 32.284 17.0242 31.8629 17.8593C31.5876 18.4121 31.0977 18.8773 30.956 19.4738C30.956 19.4738 30.9114 19.6687 30.794 19.7283C30.7819 19.7323 30.7495 19.7522 30.7252 19.7363C30.6888 19.7164 30.6969 19.6409 30.7009 19.6289C30.7576 19.0046 30.5147 18.3802 30.539 17.7519C30.5754 16.8214 30.5025 15.8948 30.4944 14.9643C30.4701 11.1904 30.4823 11.2063 30.4742 11.1586C30.4661 11.1109 30.4701 11.0154 30.4742 10.8206C30.4742 10.7649 30.4742 10.7052 30.5106 10.6416C30.5511 10.5661 30.6199 10.5263 30.6442 10.5104C30.8548 10.3911 31.037 10.2241 31.2556 10.1246C31.6605 9.94569 32.0694 9.4486 32.3852 9.06287C33.365 8.9714 35.7699 8.43057 35.5958 5.22536C35.5958 5.22536 32.373 4.99074 32.0046 8.7328C31.8265 8.93959 31.5026 9.28556 30.9924 9.75083C30.8993 9.83434 30.8872 9.81844 30.8062 9.88604C30.8062 9.88604 30.7697 9.91785 30.705 9.93774C30.6928 9.93774 30.6807 9.94569 30.6685 9.93774C30.6442 9.92581 30.6402 9.89002 30.6361 9.87809C30.6361 9.87809 30.8264 8.6135 30.7819 7.63524C30.7819 7.63524 30.7616 7.18189 30.8791 6.09228C30.8791 6.08433 30.8791 6.07638 30.8791 6.07638C30.8791 6.06842 30.8791 6.06047 30.8791 6.05649C30.8791 6.03661 30.8791 6.0207 30.8791 6.01673C30.8791 6.0048 30.8872 5.92924 30.8953 5.82187C32.7334 1.76565 29.2758 0 29.2758 0C26.972 3.25691 29.045 5.38841 30.0653 6.16386C30.0977 6.32691 30.1219 6.51779 30.1341 6.74844C30.2029 7.87384 30.1705 8.49022 30.1705 8.49022C30.1503 9.40486 30.126 9.91785 30.126 9.91785C30.1017 9.93774 30.0653 9.93376 30.0572 9.92978C30.0086 9.92183 29.9802 9.87411 29.9721 9.8582C29.8588 9.67528 29.6847 9.52814 29.5997 9.33328C29.4256 8.94357 29.3365 8.87994 29.1381 8.49818C28.7737 4.75214 25.5469 4.98676 25.5469 4.98676C25.3728 8.17607 27.7534 8.72882 28.7413 8.82029V8.84017C29.1826 9.69516 29.7171 10.3672 29.7414 10.399C29.7414 10.399 29.7495 10.411 29.7616 10.4269C29.7818 10.4547 29.8102 10.5024 29.8345 10.5621C29.8669 10.6496 29.8628 10.7251 29.8628 10.745C29.8547 11.4608 29.9559 12.1846 29.8628 12.8924C29.6563 14.4274 29.794 16.4356 29.9357 18.5433C29.9762 19.1318 29.9964 19.4301 30.0734 19.7761C30.126 20.0226 30.1543 20.2731 30.207 20.5157C30.207 20.5277 30.3001 20.9412 30.2029 21.2673C30.1665 21.3866 30.1381 21.3906 30.13 21.3906C30.0936 21.3906 30.0653 21.2991 30.041 21.2275C29.9924 21.0725 29.9195 20.9213 29.8871 20.7623C29.8142 20.3924 29.1462 18.6467 28.5429 17.0759C27.8546 15.2824 28.0044 15.7517 27.4781 14.3717C27.2068 13.6599 27.0166 13.1429 26.6846 12.455C26.3161 11.6954 25.9234 11.0433 25.7614 10.8524C25.7453 10.8325 25.6764 10.753 25.6116 10.6337C25.5752 10.57 25.5509 10.5144 25.5347 10.4627C25.6886 6.69276 22.4658 6.52574 22.4658 6.52574C21.899 9.56791 24.061 10.4308 25.0489 10.6615C25.0691 10.6814 25.0894 10.6973 25.1056 10.7172C25.1582 10.7768 25.1946 10.8325 25.2068 10.8524C25.6967 11.6358 25.9436 12.0295 25.9841 12.105C26.3647 12.8169 26.6481 13.4849 26.806 13.8866L27.1461 14.8052C27.2068 14.9444 27.2635 15.0836 27.3162 15.2228C27.5348 15.8272 27.7494 16.4317 27.968 17.0361C28.3769 18.1575 28.7859 19.279 29.1907 20.4044C29.381 20.9373 29.5592 21.4741 29.713 22.0189C29.8142 22.3848 29.8628 22.7546 29.8507 23.1364C29.8507 23.1602 29.8426 23.1841 29.8345 23.2079C29.8345 23.2159 29.8142 23.2238 29.8061 23.2238C29.794 23.2238 29.7778 23.2318 29.7738 23.2238C29.709 23.1642 29.6442 23.1006 29.5875 23.0369C28.7656 22.1024 27.8668 21.2474 26.9396 20.4203C26.5145 20.0425 26.0773 19.6727 25.6481 19.2949C25.4011 19.0762 25.1582 18.8535 24.9193 18.6268C24.559 18.2848 24.2513 17.8991 23.98 17.4895C23.8707 17.3224 23.7573 17.1554 23.6521 16.9804C23.401 16.5708 23.15 16.1652 22.9111 15.7477C22.652 15.2943 22.4941 14.8052 22.401 14.2962C22.3281 13.8985 22.2755 13.5008 22.2552 13.0992C22.2512 12.9958 22.2471 12.8964 22.2431 12.793C22.2512 12.4868 22.235 12.2005 22.2067 11.9301C22.2026 11.8306 22.1986 11.7312 22.1945 11.6318C22.1824 11.4051 22.1702 11.1824 22.1459 10.9558C22.1135 10.6496 22.0002 10.3712 21.8423 10.1087C21.6358 9.77469 21.3929 9.46849 21.0973 9.20603C20.7127 8.86403 20.2876 8.59759 19.826 8.39478C19.1256 8.02098 18.5466 7.91758 18.5466 7.91758C17.2591 11.942 19.911 13.5446 21.2957 14.0894C21.6722 14.7694 22.0528 15.4494 22.4334 16.1255C22.8099 16.7975 23.1824 17.4696 23.5913 18.1218C23.6844 18.2729 23.7776 18.424 23.8545 18.5831C23.9598 18.7978 24.0529 19.0165 24.1501 19.2352C24.1541 19.2472 24.1581 19.2591 24.1622 19.271C24.1743 19.3108 24.1622 19.3784 24.146 19.3744C24.1217 19.3665 24.0934 19.3625 24.0772 19.3466C23.8828 19.1636 23.6925 18.9767 23.4982 18.7978C22.5913 17.9508 21.6925 17.0918 20.8139 16.2129C20.328 15.7278 19.8422 15.2506 19.3361 14.7853C19.0203 14.491 18.6883 14.2127 18.3361 13.9661C18.1093 13.8071 17.8664 13.6599 17.6235 13.5247C17.4696 13.4372 17.2996 13.3776 17.1336 13.3179C16.9878 13.2622 16.834 13.2503 16.6801 13.2662C16.6072 13.2742 16.5263 13.3179 16.5303 13.3577C16.5344 13.4134 16.5708 13.4492 16.6153 13.473C16.7287 13.5327 16.8421 13.5883 16.9554 13.644C17.1498 13.7394 17.3522 13.823 17.5385 13.9264C18.2146 14.2962 18.7855 14.7972 19.3239 15.3381L19.8098 15.9187C19.8908 15.9823 19.9677 16.0459 20.0406 16.1175C20.5345 16.5907 21.0204 17.0719 21.5184 17.5451C21.9232 17.9309 22.3322 18.3047 22.7451 18.6825C23.0933 19.0006 23.4456 19.3068 23.7938 19.621C24.1541 19.9471 24.4497 20.3209 24.6885 20.7424C24.7331 20.8179 24.7776 20.8935 24.8181 20.973C25.2877 21.8678 25.8586 22.7029 26.4416 23.5261C26.8587 24.1146 27.3162 24.6714 27.7575 25.24C27.9923 25.5383 28.2271 25.8365 28.4741 26.1228C28.8385 26.5444 29.215 26.954 29.5875 27.3675C29.8183 27.626 29.8021 27.5743 29.798 27.9402C29.7899 29.3479 29.7899 30.7517 29.7818 32.1595C29.7818 32.235 29.7778 32.3106 29.7738 32.3821L29.5511 32.1316C29.1543 31.7419 28.7575 31.3482 28.3607 30.9585C27.7737 30.3819 27.1866 29.8053 26.5995 29.2286C25.8586 28.5009 25.1217 27.7692 24.3808 27.0415C23.6966 26.3654 23.0083 25.6934 22.32 25.0173C22.0488 24.7509 21.7815 24.4805 21.5143 24.2101C20.7896 23.4823 20.0689 22.7546 19.3401 22.0308C19.0081 21.7008 18.66 21.3826 18.3158 21.0645C18.1782 20.9373 17.996 20.9333 17.8462 20.814C17.7976 20.7742 17.7409 20.7464 17.6842 20.7146C17.6437 20.6907 17.5749 20.7066 17.5466 20.7464C17.5142 20.7901 17.5061 20.8378 17.5304 20.8856C17.5466 20.9213 17.5668 20.9532 17.5911 20.981C17.6397 21.0367 17.6923 21.0923 17.749 21.148C18.4818 21.8678 19.2146 22.5836 19.9475 23.3034C20.8625 24.1981 21.7734 25.0969 22.6844 25.9956C23.3444 26.6438 23.9962 27.2999 24.6116 27.9879C24.6602 28.0436 24.725 28.0873 24.7371 28.1669C24.7371 28.1708 24.7128 28.1867 24.7088 28.1828C24.6764 28.1669 24.6399 28.151 24.6116 28.1271C24.0488 27.6936 23.2836 26.8108 22.7006 26.4052L18.5183 22.8063C18.5183 22.8063 18.5344 22.8103 18.5385 22.8103C18.5021 22.7705 18.4656 22.7268 18.417 22.6989C18.3927 22.687 18.3725 22.6711 18.3482 22.6592L16.9069 21.4184C16.8947 21.3866 16.8785 21.3588 16.8623 21.3309C16.8421 21.2912 16.8218 21.2514 16.8056 21.2077C16.7692 21.1082 16.7328 21.0088 16.6963 20.9094C16.6761 20.8537 16.6518 20.802 16.6234 20.7543C16.587 20.6947 16.5506 20.635 16.5182 20.5754C16.4696 20.4839 16.4129 20.3964 16.3522 20.3129C16.2955 20.2334 16.2348 20.1538 16.1578 20.0862C14.8339 18.1735 12.8784 18.1814 12.0281 18.2928C12.016 18.2928 12.0079 18.2928 11.9957 18.2848C11.9876 18.2848 11.9795 18.2808 11.9674 18.2808C11.9593 18.2808 11.9512 18.2808 11.9431 18.2928C11.9431 18.2928 11.9431 18.3007 11.9431 18.3047C11.7285 18.3365 11.599 18.3723 11.599 18.3723C12.2872 22.85 16.085 22.4245 16.923 22.2734C17.5627 22.8103 17.421 22.7029 19.4697 24.4526C21.1297 25.8683 21.3969 26.0871 22.8626 27.3397C23.4901 27.8805 23.563 27.9402 24.1622 28.4532C24.9557 29.1332 25.6926 29.7615 26.6279 30.5489C27.5672 31.3442 28.4093 32.2629 29.4377 32.9468C29.4782 32.9747 29.5389 33.0303 29.6644 33.1496C29.6806 33.1616 29.7049 33.1854 29.7211 33.2252C29.7454 33.269 29.7495 33.3167 29.7495 33.3525C29.7495 33.3922 29.7495 33.424 29.7495 33.428C29.7454 33.5195 29.6604 35.9214 29.7333 36.2554C29.7373 36.2753 29.7576 36.3588 29.713 36.4026C29.6847 36.4344 29.6361 36.4344 29.6199 36.4344C29.5065 36.4304 29.4256 36.2833 29.3932 36.2316C29.3567 36.1719 29.0976 35.9413 28.5794 35.48C28.5794 35.48 28.466 35.3806 28.296 35.2334C27.3526 34.4222 26.1704 33.6269 26.1704 33.6269C25.3728 33.09 24.6926 32.6048 23.3322 31.6306C22.5913 31.1017 21.5386 30.3381 20.6195 29.7217C19.9839 29.2923 19.664 29.0815 19.5669 29.0338C19.2754 28.9025 19.0284 28.6958 18.7531 28.5327L16.2995 26.7432C15.4291 26.0513 14.2185 25.24 13.9432 25.0571C13.0282 24.4447 12.2306 23.9078 11.0807 23.3034C10.9633 23.2437 10.2993 22.9375 8.98346 22.3331C7.78908 18.8336 4.93472 19.1557 4.24644 19.2909C4.24239 19.2909 4.23429 19.2909 4.23024 19.2949C4.14522 19.3108 4.09258 19.3267 4.09258 19.3267C4.65131 22.9654 7.44089 23.0926 8.62313 22.9773C9.61912 23.7329 10.5058 23.9118 12.0686 24.8384C12.5949 25.1525 13.1456 25.5422 13.931 26.103C14.3399 26.3933 14.5667 26.5643 14.9473 26.8466C16.0161 27.638 16.2429 27.7771 17.8866 28.9622C18.5102 29.4116 19.1984 29.67 20.158 30.3739C20.8058 30.8511 21.4252 31.3164 22.6642 32.243C23.5346 32.8951 24.0002 33.2451 24.5792 33.6905C25.7736 34.6051 26.2068 34.963 26.7008 35.4243C27.304 35.985 27.6077 36.2753 27.9194 36.7287C28.3607 37.3729 28.5672 37.9734 28.798 38.2239C28.8223 38.2478 28.9276 38.3631 28.8992 38.4148C28.883 38.4426 28.8344 38.4506 28.798 38.4426C28.7616 38.4347 28.7413 38.4068 28.7332 38.3989C28.5105 38.1364 28.3972 38.0052 28.3931 37.9933C28.3567 37.9257 28.1866 37.7427 27.8385 37.3689C27.4498 36.9514 26.7574 36.3907 25.9477 35.9015C25.3242 35.5237 24.8424 35.309 24.2432 35.0465C23.4658 34.7045 22.6439 34.3427 21.9475 34.1995C21.8585 34.1796 21.5872 34.1279 21.2471 33.9967C20.9475 33.8814 20.737 33.7581 20.6317 33.6984C19.9758 33.3127 19.1741 32.7122 18.996 32.581C18.8867 32.5014 18.1498 32.06 16.6761 31.1812C16.2307 30.9148 15.8501 30.6881 15.3076 30.4256C15.0161 30.2825 14.757 30.1552 14.3845 30.012C13.7569 29.7695 12.8581 29.4991 12.4451 29.4871C12.2791 29.4831 12.1172 29.4314 11.9512 29.4195C11.9148 29.4195 11.8419 29.4116 11.773 29.3638C11.684 29.3042 11.6516 29.2127 11.6394 29.1889C11.4775 28.7673 11.1455 28.4293 10.9147 28.0396C10.8297 27.8964 10.522 27.5823 9.90253 26.958C8.58669 25.6258 8.32757 25.5701 8.26279 25.4826C8.25874 25.4746 8.2385 25.4468 8.20206 25.4389C8.14942 25.4229 8.09274 25.4627 8.0725 25.4746C7.8984 25.5939 7.91055 26.0552 7.91055 26.0552C7.94699 27.284 7.91864 27.1806 7.94294 27.292C8.04011 27.7453 8.30328 28.5367 8.45308 28.7077C8.46927 28.7236 8.54215 28.8071 8.52191 28.8787C8.50976 28.9105 8.48547 28.9264 8.48142 28.9304C8.40854 28.9781 8.29518 28.9224 8.25469 28.9025C8.19396 28.8747 7.91055 28.8349 7.34777 28.7554C7.29514 28.7475 7.21821 28.7395 7.15343 28.6838C7.11295 28.648 7.06436 28.5804 7.04817 28.5566C7.02387 28.5208 7.00768 28.4969 7.00768 28.493C6.98339 28.4532 6.95909 28.4174 6.9348 28.3776C5.18574 23.8124 0.614714 24.9378 0.614714 24.9378C0.630909 25.0173 0.647104 25.0929 0.663299 25.1724C0.663299 25.1923 0.663299 25.2162 0.675445 25.236C1.57022 29.3161 5.41652 29.2127 6.71212 29.0537C6.83358 29.0696 6.97529 29.0895 7.14129 29.1093C7.5664 29.169 7.77694 29.1968 7.97533 29.2326C8.54215 29.34 8.57454 29.3917 9.31546 29.5547C9.90658 29.682 10.2102 29.7217 10.4491 29.7377C10.7001 29.7575 10.8742 29.7575 10.9876 29.7575C11.8176 29.7695 12.5666 29.9405 12.8824 30.016C13.1172 30.0717 13.8905 30.2546 14.8339 30.6801C15.2509 30.867 15.7246 31.1454 16.668 31.6982C17.7571 32.3344 17.587 32.2748 18.2389 32.6406C18.7612 32.9309 19.2308 33.3206 19.7855 33.5513C19.9151 33.603 20.0122 33.7143 20.1337 33.7819C20.1418 33.7859 20.1742 33.8058 20.1823 33.8376C20.1823 33.8416 20.1863 33.8575 20.1823 33.8734C20.1742 33.8893 20.162 33.8933 20.158 33.8973C20.1175 33.9211 20.0446 33.8973 20.0446 33.8973C19.5588 33.7342 19.0284 33.77 18.5223 33.7024C18.2308 33.6626 18.2024 33.6706 17.5546 33.5871C17.5546 33.5871 17.3846 33.5672 17.2267 33.5433C16.5587 33.4559 15.9352 33.3525 15.7125 33.3127C15.4412 33.2689 14.7003 33.1457 14.0768 33.0463C13.3844 32.9349 12.6314 32.8196 11.8095 32.7162C11.8095 32.7162 11.1576 32.6367 10.4774 32.573C10.3398 32.5611 10.2102 32.5492 10.2102 32.5492C10.028 32.5333 9.82155 32.5174 9.59887 32.5054C9.59887 32.5054 9.32761 32.4895 9.02395 32.4855C8.61908 32.4776 7.09675 32.4577 6.31534 32.5651C6.2789 32.5452 6.25056 32.5174 6.23842 32.4776C6.22222 32.4338 6.20198 32.3941 6.18578 32.3503C6.1453 32.231 6.08052 32.1237 6.00359 32.0242C5.9793 31.9924 5.94286 31.9646 5.91452 31.9328C5.89022 31.9089 5.86188 31.8851 5.84164 31.8533C5.80925 31.8055 5.76471 31.7658 5.72018 31.73C5.62301 31.6584 5.53394 31.5828 5.44081 31.5113C5.42462 31.4993 5.41247 31.4874 5.39628 31.4794C5.27077 31.3999 5.14526 31.3204 5.0157 31.2408C4.85375 31.1454 4.6756 31.0698 4.50555 30.9943C4.40838 30.9505 4.30717 30.9267 4.21 30.8988C4.14522 30.879 4.08044 30.8631 4.01161 30.8511C3.92658 30.8352 3.84156 30.8273 3.75654 30.8153C3.73225 30.8153 3.70795 30.8114 3.68366 30.8074C3.5622 30.7795 3.44074 30.7756 3.31927 30.7756C3.25044 30.7756 3.18567 30.7756 3.11684 30.7756C3.05206 30.7716 2.98728 30.7716 2.9225 30.7795C2.84152 30.7915 2.7565 30.7955 2.67552 30.8034C2.64313 30.8034 2.61074 30.8114 2.57431 30.8193C2.46499 30.8352 2.35567 30.8511 2.24636 30.8631C2.14109 30.879 2.03582 30.9028 1.9346 30.9346C1.86982 30.9545 1.80504 30.9704 1.74431 30.9983C1.74026 30.9983 1.73217 31.0022 1.72812 31.0022C1.6269 31.0221 1.52973 31.0659 1.43256 31.1056C1.33944 31.1414 1.24227 31.1772 1.14915 31.217C1.13295 31.221 1.12081 31.2289 1.10461 31.2329C1.06817 31.2448 1.03578 31.2528 1.00339 31.2727C0.987198 31.2846 0.962906 31.2886 0.942662 31.2925C0.894077 31.3045 0.849541 31.3243 0.809054 31.3482C0.764518 31.3721 0.715933 31.3959 0.671396 31.4198C0.622812 31.4476 0.574227 31.4715 0.525642 31.4993C0.477057 31.5272 0.428472 31.559 0.375838 31.5908C0.367741 31.5948 0.359643 31.5987 0.351546 31.6027C0.311058 31.6226 0.266522 31.6385 0.234132 31.6703C0.197694 31.6982 0.157206 31.722 0.120768 31.7459C0.104573 31.7578 0.0843289 31.7697 0.0640852 31.7777C0.0438415 31.7896 0.0195491 31.8016 0.00335409 31.8095C-0.0047434 31.8254 0.00335409 31.8294 0.0114516 31.8334C0.0195491 31.8373 0.0276465 31.8453 0.035744 31.8493C0.104573 31.8771 0.161255 31.9248 0.213889 31.9765C0.270571 32.0282 0.331302 32.072 0.392033 32.1197C0.468959 32.1793 0.545886 32.243 0.618763 32.3026C0.62686 32.3106 0.634958 32.3185 0.647104 32.3265C0.776664 32.414 0.898126 32.5094 1.04793 32.5691C1.11676 32.5969 1.18154 32.6247 1.25037 32.6526C1.12081 32.7082 0.98315 32.7639 0.837395 32.8236C0.800956 32.8395 0.768566 32.8554 0.732128 32.8673C0.719981 32.8713 0.707835 32.8753 0.695689 32.8832C0.69164 32.8832 0.643055 32.915 0.639007 32.9548C0.639007 32.9906 0.667348 33.0184 0.679494 33.0303C1.01554 33.3525 1.64714 33.4678 1.64714 33.4678C1.97104 33.5274 2.18563 33.5672 2.51762 33.5831C2.98323 33.607 3.44074 33.6308 3.92658 33.4877C4.12497 33.428 4.33956 33.4201 4.54199 33.3723C4.56224 33.3723 4.57843 33.3644 4.59868 33.3604C4.69989 33.3405 4.80111 33.3167 4.90233 33.2849C4.91853 33.2809 4.93067 33.2769 4.94687 33.2729C4.96711 33.2888 4.97521 33.3127 4.97521 33.3127C4.9995 33.3803 4.92662 33.4678 4.90638 33.4877C4.88209 33.5155 4.85375 33.5752 4.81731 33.6587C4.3517 34.2154 3.99541 35.0426 3.93468 36.2713C3.93468 36.2713 6.18578 36.3708 7.08865 34.5773C7.26275 34.4381 7.44494 34.2671 7.61904 34.0325C7.65952 33.9768 8.24254 33.1894 8.35186 32.9747C8.35996 32.9588 8.3883 32.9031 8.44498 32.8713C8.47737 32.8554 8.51381 32.8474 8.60288 32.8514C8.68386 32.8514 8.72839 32.8554 8.79317 32.8713C9.24258 32.9747 9.70819 32.9707 10.1657 33.0264C10.7649 33.098 11.5585 33.1894 13.1375 33.3684C13.6962 33.432 13.8177 33.4439 13.9756 33.4598C14.3561 33.4996 14.7367 33.6189 15.1214 33.5752C15.2874 33.5553 15.4493 33.6189 15.6153 33.6388C15.6234 33.6388 15.6396 33.6388 15.6517 33.6547C15.6598 33.6666 15.6598 33.6825 15.6598 33.6905C15.6598 33.6905 15.6598 33.7064 15.6477 33.7223C15.4655 33.9808 14.8298 34.3427 14.8298 34.3427C14.5221 34.5176 14.4857 34.5494 14.3197 34.629C10.0888 35.5197 10.7973 39.0312 10.7973 39.0312C14.2873 38.8005 14.7043 36.323 14.7084 35.1618C14.9392 34.7403 15.178 34.5017 15.2509 34.4381C15.2752 34.4142 15.3967 34.3029 15.5789 34.1756C15.753 34.0524 15.9109 33.941 16.1092 33.8853C16.1659 33.8694 16.2712 33.8456 16.7206 33.8853C17.1133 33.9251 17.2874 33.9688 17.7085 34.0245C17.9231 34.0524 18.0041 34.0603 18.2794 34.0881C18.6073 34.1239 19.247 34.1955 19.911 34.3069C20.0527 34.3307 20.6317 34.4301 21.2916 34.6131L24.0691 36.0009C25.5914 36.6531 26.6562 37.5956 26.6562 37.5956C27.0732 37.9654 27.5915 38.4267 28.0571 39.1863C28.4498 39.8265 28.6158 40.3713 28.6563 40.5025C28.8182 41.0473 28.8547 41.5007 28.879 41.8228C28.8992 42.0853 28.8992 42.3915 28.8992 42.9919C28.8992 43.5527 28.8911 43.9623 28.8911 43.9702C28.8547 45.9506 28.8182 47.8554 28.9033 49.2075C28.9154 49.3825 28.9154 49.7006 28.9195 50.3369C28.9195 50.6351 28.9195 50.9811 28.8182 51.3828C28.7656 51.5895 28.7008 51.7566 28.6887 51.7924C28.6684 51.8441 28.5915 52.0429 28.4498 52.2855C28.4255 52.3332 28.3648 52.4286 28.2757 52.5598C28.1988 52.6712 28.0206 52.9217 27.7413 53.22C27.0773 53.9239 26.3242 54.3812 26.2351 54.4368C26.1056 54.5124 25.8141 54.6834 25.4214 54.8544C25.057 55.0135 24.7331 55.1169 24.2634 55.2481C23.9314 55.3396 23.5103 55.4469 22.3281 55.7054C22.0447 55.7651 21.5872 55.8645 20.6722 56.0554C19.9636 56.2025 19.9313 56.2105 19.6276 56.2741C18.4089 56.5326 18.4778 56.5326 18.2429 56.5723C17.4372 56.6996 16.753 56.6797 16.4129 56.6558C15.8663 56.62 15.7449 56.5564 14.8501 56.4968C14.3642 56.465 14.1456 56.465 13.931 56.4809C13.7893 56.4888 13.3683 56.5246 12.8379 56.6638C12.6678 56.7075 12.518 56.7592 12.2184 56.8626C11.7609 57.0177 11.4289 57.145 11.356 57.1728C10.0159 57.6778 8.58669 57.6619 8.58669 57.6619C7.74455 57.654 7.04817 57.5228 7.04817 57.5228C6.9267 57.4989 6.67973 57.4512 6.33154 57.3995C6.27081 57.3915 5.84164 57.3359 5.33555 57.3597C5.33555 57.3597 5.15335 57.3677 4.78897 57.5188C4.78897 57.5188 4.69989 57.5546 4.6756 57.6142C4.6675 57.6341 4.66346 57.658 4.66346 57.6818C4.66346 57.6938 4.66346 57.6977 4.6675 57.7057C4.67965 57.7216 4.70394 57.7256 4.71204 57.7295C4.94687 57.7653 5.09262 57.7136 5.09262 57.7136C5.21813 57.6699 5.4813 57.6818 6.01169 57.7057C6.37203 57.7216 6.54612 57.7733 6.92265 57.8409C6.92265 57.8409 7.65952 57.9721 8.40854 57.996C9.27092 58.0238 9.97541 57.9005 10.3519 57.821C10.939 57.6938 11.4694 57.5029 11.8905 57.3557C12.3601 57.1887 12.4856 57.1211 12.8662 57.0217C13.5019 56.8547 13.9351 56.8388 14.1051 56.8348C14.2954 56.8348 14.4412 56.8427 14.7286 56.8666C15.259 56.9064 15.3319 56.9461 15.8704 57.0018C16.6842 57.0893 17.17 57.0694 17.2874 57.0654C17.3401 57.0654 17.5304 57.0535 17.7854 57.0296C18.3361 56.974 18.6519 56.8905 19.4049 56.7234C19.6398 56.6717 20.6641 56.4451 21.4374 56.3496C21.5467 56.3377 21.7087 56.3178 21.9192 56.3099C22.2755 56.294 22.5467 56.3138 22.7006 56.3258C23.3039 56.3735 23.5346 56.4252 24.1096 56.4848C24.6359 56.5405 25.0124 56.5803 25.5226 56.5763C25.7857 56.5763 26.1015 56.5684 26.5186 56.5127C26.725 56.4848 27.3769 56.3894 28.1097 56.1031C28.2717 56.0395 28.4336 55.9679 28.717 55.8724C29.049 55.7611 29.211 55.7054 29.4175 55.6736C29.5713 55.6497 30.1381 55.5623 30.6969 55.769C30.8102 55.8128 30.9519 55.8764 31.0127 55.9042C31.3001 56.0355 31.4985 56.1548 31.5552 56.1866C32.0248 56.457 32.867 56.7712 32.9196 56.7871C34.1585 57.2444 35.4339 57.2523 35.778 57.2484C36.4663 57.2484 37.0169 57.1609 37.8753 57.0336C38.5433 56.9342 38.7579 56.8666 39.4664 56.7871C39.9644 56.7314 40.4219 56.6797 41.0333 56.6837C41.6447 56.6916 42.1224 56.7513 42.4463 56.795C43.1832 56.8905 43.2196 56.9541 43.8472 57.0098C44.5557 57.0694 44.9444 57.0217 45.0699 57.0098C45.1995 56.9939 45.2359 56.9819 45.6367 56.9183C45.993 56.8626 46.3493 56.8109 46.4708 56.795C47.2886 56.6877 48.1105 56.8229 48.4142 56.8825C48.7057 56.9382 49.0498 57.0456 49.7381 57.2603C50.4183 57.475 50.4385 57.5029 50.7908 57.6063C51.0661 57.6898 52.0702 57.9721 53.2807 57.988C53.9974 57.996 54.548 57.9045 54.6938 57.8807C54.8274 57.8568 54.7909 57.8608 54.9205 57.8369C55.8153 57.6818 56.7181 57.7017 56.8639 57.7534C56.872 57.7534 56.9206 57.7733 56.9772 57.7614C56.9934 57.7614 57.0501 57.7454 57.0623 57.7057C57.0704 57.6818 57.0623 57.6619 57.0623 57.654C57.0542 57.6301 57.038 57.6142 57.0299 57.6063C56.9206 57.5068 56.8436 57.479 56.8436 57.479C56.6412 57.3995 56.4388 57.3756 56.4388 57.3756C56.1108 57.3438 55.9043 57.3557 55.9043 57.3557C55.5238 57.3836 55.3294 57.3955 54.9164 57.487C54.9164 57.487 54.2605 57.6301 53.3577 57.654C52.4791 57.6779 51.7949 57.4989 51.1268 57.3239C50.6936 57.2126 50.8798 57.2325 49.7057 56.8746C49.2158 56.7274 48.4425 56.4968 47.7704 56.4252C47.3615 56.3814 46.9728 56.3934 46.9728 56.3934C46.908 56.3934 46.7947 56.4013 46.5841 56.4172C45.9849 56.4729 45.7784 56.5365 45.2926 56.5922C45.0861 56.6161 44.8189 56.6439 44.4909 56.6399C43.9889 56.636 43.6204 56.5604 43.3492 56.5047C42.1629 56.2701 42.4827 56.3854 41.2762 56.1349C40.2317 55.9202 39.7094 55.8128 39.1142 55.6259C38.8996 55.5583 38.2032 55.3356 37.3368 54.926C36.5513 54.5601 35.612 54.1108 34.6079 53.2637C34.1019 52.8342 33.5634 52.373 33.1342 51.5895C32.8063 50.993 32.6969 50.484 32.6646 50.325C32.5714 49.8517 32.5876 49.5018 32.5998 49.124C32.6241 48.4798 32.62 47.5254 32.616 45.6205C32.616 44.7775 32.6079 44.3241 32.6079 44.3241C32.5957 43.5288 32.5836 43.2902 32.5998 42.7931C32.616 42.2125 32.6241 41.9222 32.6848 41.5922C32.7496 41.2303 32.8872 40.6576 33.2152 40.0253C33.2597 39.9379 33.45 39.576 33.778 39.1505C33.9359 38.9437 34.0978 38.7608 34.2881 38.5619C35.5796 37.2257 37.268 36.2674 37.268 36.2674C38.1789 35.5675 38.9927 35.1857 39.5717 34.967C39.5717 34.967 39.9037 34.8397 41.7621 34.2989C41.9807 34.2631 42.1629 34.2393 42.2925 34.2194C42.503 34.1915 42.673 34.1677 43.0131 34.12C43.1994 34.0961 43.2925 34.0842 43.3451 34.0762C43.499 34.0563 43.584 34.0484 43.7379 34.0245C43.8229 34.0126 43.8836 34.0046 43.9241 33.9967C44.4828 33.9092 44.2278 33.9529 44.8351 33.8615C45.1266 33.8177 45.2035 33.8058 45.3331 33.8177C45.5234 33.8376 45.6448 33.8933 45.6975 33.9171C45.7906 33.9609 45.8473 34.0086 45.9161 34.0683C46.1874 34.291 46.325 34.4023 46.4343 34.5176C46.6084 34.6926 46.7177 34.8039 46.8311 34.9869C46.904 35.1022 46.9566 35.2135 47.0092 35.3289C47.0578 36.5497 47.5963 38.7965 50.9163 39.0192C50.9163 39.0192 51.6248 35.4919 47.3534 34.6131C47.3453 34.6131 47.3331 34.6051 47.3291 34.6011C47.3048 34.5892 47.2684 34.5733 47.2238 34.5455C47.1226 34.4938 47.0943 34.4699 46.8675 34.3347C46.8675 34.3347 46.0861 33.8774 46.078 33.7382V33.6746C46.0821 33.6666 46.0902 33.6587 46.1023 33.6467C46.1671 33.5911 46.2926 33.6149 46.2926 33.6149C46.7501 33.5592 47.0497 33.5274 47.2441 33.5036C47.2886 33.4996 47.3655 33.4916 47.4668 33.4757C47.7704 33.436 47.9931 33.3922 48.0376 33.3843C48.4708 33.3047 49.3373 33.2451 50.2806 33.1059C51.1673 32.9787 52.0783 33.0184 52.9488 32.8196C52.9852 32.8116 53.1026 32.7838 53.2079 32.8434C53.301 32.8951 53.3293 32.9946 53.3415 33.0264C53.4467 33.3366 53.6978 33.5791 53.8638 33.8575C53.9771 34.0444 54.1107 34.2074 54.2524 34.3506C55.0096 36.5338 57.5643 36.4225 57.5643 36.4225C57.5076 35.2454 57.1797 34.4421 56.7424 33.8853C56.7424 33.8734 56.7343 33.8575 56.7262 33.8336C56.7141 33.8058 56.706 33.7899 56.7019 33.7819C56.5643 33.5314 56.5238 33.2451 56.5238 33.2133C56.5238 33.2013 56.5278 33.1934 56.5278 33.1934C56.5359 33.1815 56.5521 33.1775 56.5602 33.1735C56.6007 33.1656 56.6574 33.2053 56.6614 33.2053C56.6736 33.2133 56.7343 33.2292 56.8639 33.261C57.0177 33.3008 57.0987 33.3206 57.1392 33.3326C57.9773 33.5354 58.4186 33.5592 58.4186 33.5592C58.7911 33.5791 59.1028 33.5513 59.3012 33.5314C59.4713 33.5155 59.6008 33.4956 59.6697 33.4877C59.8276 33.4638 60.0462 33.432 60.3175 33.3525C60.447 33.3167 60.5806 33.257 60.8478 33.1337C60.9207 33.1019 61.0179 33.0542 61.0462 32.9627C61.0462 32.9588 61.0746 32.8673 61.0219 32.7957C60.9936 32.756 60.9491 32.7401 60.8519 32.7122C60.6292 32.6526 60.532 32.6446 60.528 32.6208C60.528 32.6009 60.5928 32.5929 60.7183 32.5412C60.7507 32.5293 60.941 32.4498 61.1191 32.2986C61.1272 32.2907 61.1272 32.2907 61.1475 32.2748C61.1839 32.243 61.2325 32.2032 61.3742 32.0919C61.4147 32.06 61.4187 32.0561 61.439 32.0402C61.5078 31.9845 61.5078 31.9805 61.5523 31.9487C61.6131 31.901 61.7062 31.8334 61.7305 31.8214C61.7386 31.8214 61.7426 31.8135 61.7548 31.8055C61.7588 31.8055 61.7629 31.7976 61.7629 31.7936C61.7629 31.7896 61.7629 31.7817 61.7629 31.7817C61.7548 31.7658 61.7224 31.7578 61.7021 31.7499L61.6778 31.7817ZM29.8223 25.3673C29.8223 25.8206 29.8223 26.27 29.8223 26.7233C29.8223 26.7353 29.8142 26.7551 29.8061 26.7551C29.7818 26.7591 29.7576 26.7631 29.7373 26.7551C29.713 26.7472 29.6968 26.7273 29.6806 26.7074C29.4215 26.4131 29.1543 26.1228 28.9073 25.8206C28.2109 24.9696 27.5186 24.1146 26.8749 23.2199C26.2311 22.3251 25.64 21.4025 25.1379 20.4243C24.9719 20.0982 24.8181 19.7681 24.6642 19.4341C24.5266 19.1358 24.5225 19.0841 24.5711 19.0921C24.7088 19.108 24.7898 19.2114 24.8829 19.2949C25.3971 19.7482 25.9072 20.2055 26.4133 20.6629C26.8708 21.0804 27.3202 21.5139 27.7818 21.9314C28.2595 22.3689 28.7211 22.8182 29.1745 23.2795C29.3243 23.4306 29.4782 23.5857 29.6361 23.7289C29.7657 23.8482 29.8304 23.9754 29.8264 24.1584C29.8142 24.56 29.8264 24.9617 29.8264 25.3633L29.8223 25.3673Z" fill="#999999"/>
</svg>
