<svg width="301" height="56" viewBox="0 0 301 56" fill="none" xmlns="http://www.w3.org/2000/svg">
<path d="M0 3.56189V10C18.5598 7.66279 38.0517 6.27504 45.1473 9.2293C45.5491 9.39654 46.0065 9.36588 46.371 9.12791L50.6203 6.35517C51.144 6.01372 51.1234 5.23988 50.5742 4.94094C37.4418 -2.20865 20.008 -0.144263 6.47865 2.15915C3.97021 2.58596 1.84302 3.04309 0 3.56189Z" fill="#233535"/>
<path fill-rule="evenodd" clip-rule="evenodd" d="M0 13.6563V25.0676C5.33704 23.1526 11.1062 21.9264 18.3937 21.06C11.0277 23.7262 5.23069 26.1479 0 29.0507V42.1563C6.71769 36.4665 13.7388 31.6349 21.9095 27.5124C20.905 28.3947 19.9289 29.2484 18.9791 30.0793C11.5471 36.5806 5.70365 41.6927 0 48.3958V55H7.64179C9.10378 52.8108 10.57 50.7292 11.9392 48.9684C21.3283 36.8938 39.9402 23.6914 39.9402 23.6914C42.7944 21.5784 51.858 16.7764 59.236 22.5683C62.1681 24.8703 59.9925 28.5489 59.9925 28.5489C61.6953 27.2413 65.64 23.1119 64.9112 17.7125C64.2146 12.5512 57.248 9.03197 54.6695 8.06965C54.3145 7.93685 53.9242 7.99963 53.6099 8.20968L41.011 16.6181C39.9314 17.338 38.5986 17.8805 36.2778 17.6722C33.2237 17.398 29.8788 16.0221 29.2068 12.5046C29.0181 11.5154 28.2009 10.6697 27.1837 10.7362C17.0143 11.3998 8.37917 12.031 0 13.6563ZM56.4126 12.784C57.0895 12.9347 57.2842 13.7201 56.6553 14.0095C56.3175 14.1651 55.8995 14.2744 55.4028 14.2561C54.7196 14.2306 54.3068 13.9312 54.0585 13.598C53.7141 13.1351 54.1434 12.5867 54.7249 12.5912C55.2839 12.5957 55.8504 12.6588 56.4126 12.784Z" fill="#233535"/>
<path d="M12 55H22.495C24.45 49.7497 26.8524 44.7428 29.7872 40.3746C28.019 45.0389 26.736 49.9876 25.8578 55H33.3375C33.5088 44.8516 34.618 34.35 40 26C31.9064 31.1945 20.6469 41.8433 13.8809 51.9208C13.2273 52.8939 12.6 53.928 12 55Z" fill="#233535"/>
<path d="M42.0818 53.8424C42.1895 54.2454 42.2921 54.63 42.3901 55H47C46.5213 53.3515 45.9263 51.5501 45.2989 49.6511C42.9422 42.5156 40.1282 33.9954 41.2869 27C36.6539 33.5858 35.174 43.6343 35 55H39.5126C39.0826 50.7194 38.9821 46.773 39.5087 43.1563C40.5309 48.0446 41.4039 51.3086 42.0818 53.8424Z" fill="#233535"/>
<path d="M41.7466 11.2452C41.9992 11.3342 42.0848 11.6179 41.9027 11.8047C41.1819 12.5446 39.3068 14.0982 36.3463 13.9951C33.0594 13.8807 32.2129 11.4588 32.0077 10.5157C31.9625 10.309 32.121 10.1234 32.3442 10.1019C35.4169 9.80285 38.6509 10.1557 41.7466 11.2452Z" fill="#233535"/>
<path d="M80 45V12H101V15.8731H84.1076V26.2083H98.2307V30.0814H84.1076V41.1272H101V45H80Z" fill="#233535"/>
<path d="M110.332 45C108.5 45 106.964 44.6783 105.723 44.0351C104.497 43.3771 103.566 42.5144 102.931 41.4473C102.31 40.3802 102 39.2105 102 37.9386C102 36.696 102.242 35.6213 102.727 34.715C103.226 33.7937 103.922 33.0336 104.815 32.4342C105.708 31.8203 106.775 31.3378 108.016 30.9869C109.181 30.6799 110.483 30.4165 111.921 30.1974C113.374 29.9633 114.842 29.7514 116.325 29.5613C117.809 29.3712 119.194 29.1885 120.48 29.0131L119.027 29.8247C119.072 27.7193 118.634 26.1623 117.71 25.1534C116.802 24.1449 115.228 23.6402 112.988 23.6402C111.505 23.6402 110.203 23.9694 109.083 24.6273C107.978 25.2706 107.199 26.3231 106.745 27.7851L102.908 26.6665C103.498 24.5905 104.641 22.9605 106.336 21.7762C108.031 20.5922 110.264 20 113.034 20C115.258 20 117.165 20.3874 118.755 21.1622C120.359 21.9227 121.509 23.0774 122.205 24.6273C122.553 25.3582 122.773 26.1551 122.864 27.0175C122.955 27.8655 123 28.7572 123 29.6928V44.3421H119.413V38.6623L120.253 39.1887C119.33 41.1039 118.036 42.5512 116.371 43.5305C114.721 44.51 112.708 45 110.332 45ZM110.945 41.7325C112.398 41.7325 113.654 41.4838 114.713 40.9867C115.788 40.4752 116.651 39.8098 117.302 38.991C117.952 38.158 118.376 37.2513 118.573 36.2718C118.8 35.5409 118.921 34.7297 118.936 33.8377C118.966 32.9313 118.982 32.237 118.982 31.7545L120.389 32.3463C119.072 32.5218 117.778 32.6901 116.507 32.8509C115.235 33.0118 114.033 33.1872 112.897 33.377C111.762 33.5525 110.74 33.7647 109.833 34.0131C109.167 34.2179 108.538 34.4809 107.948 34.8026C107.373 35.1242 106.904 35.5409 106.54 36.0527C106.192 36.5498 106.018 37.1709 106.018 37.9168C106.018 38.56 106.185 39.174 106.518 39.7587C106.866 40.3434 107.395 40.8187 108.107 41.1843C108.833 41.5495 109.779 41.7325 110.945 41.7325Z" fill="#233535"/>
<path d="M136.157 56C134.885 56 133.643 55.8074 132.431 55.4224C131.219 55.0371 130.103 54.4518 129.086 53.6667C128.083 52.8964 127.245 51.9186 126.572 50.7333L130.231 48.8223C130.829 49.9927 131.675 50.8445 132.767 51.3779C133.875 51.911 135.012 52.1779 136.18 52.1779C137.721 52.1779 139.001 51.8962 140.019 51.3334C141.036 50.7851 141.785 49.9631 142.263 48.8669C142.757 47.7703 142.997 46.4075 142.982 44.7779V38.2224H143.453V20.6667H147V44.8221C147 45.4739 146.978 46.1037 146.933 46.711C146.903 47.3187 146.828 47.9184 146.708 48.5112C146.394 50.2148 145.773 51.6148 144.845 52.711C143.917 53.8221 142.72 54.6445 141.253 55.1779C139.786 55.7259 138.088 56 136.157 56ZM135.865 45.3334C133.606 45.3334 131.667 44.7779 130.051 43.6668C128.435 42.5409 127.185 41.0221 126.302 39.1111C125.434 37.2 125 35.0445 125 32.6446C125 30.2443 125.434 28.0888 126.302 26.1778C127.185 24.2668 128.435 22.7631 130.051 21.6666C131.667 20.5555 133.598 20 135.843 20C138.133 20 140.056 20.5483 141.612 21.6445C143.169 22.7407 144.344 24.2443 145.137 26.1557C145.945 28.0668 146.349 30.2295 146.349 32.6446C146.349 35.0297 145.945 37.1852 145.137 39.1111C144.344 41.0221 143.169 42.5409 141.612 43.6668C140.056 44.7779 138.14 45.3334 135.865 45.3334ZM136.359 41.7112C137.991 41.7112 139.33 41.3259 140.378 40.5556C141.425 39.7705 142.196 38.6964 142.69 37.3333C143.199 35.9557 143.453 34.3927 143.453 32.6446C143.453 30.8668 143.199 29.3038 142.69 27.9556C142.196 26.5925 141.433 25.5332 140.4 24.7778C139.367 24.0075 138.058 23.6222 136.471 23.6222C134.825 23.6222 133.463 24.0223 132.386 24.8223C131.323 25.6223 130.53 26.7037 130.006 28.0668C129.497 29.4295 129.243 30.9556 129.243 32.6446C129.243 34.3481 129.505 35.8891 130.029 37.2667C130.552 38.6298 131.338 39.7111 132.386 40.5111C133.448 41.3111 134.773 41.7112 136.359 41.7112Z" fill="#233535"/>
<path d="M151 45V11H155V45H151Z" fill="#233535"/>
<path d="M168.906 45C166.516 45 164.426 44.4882 162.637 43.4647C160.863 42.4269 159.48 40.9867 158.488 39.1447C157.496 37.2881 157 35.1242 157 32.6533C157 30.0659 157.489 27.8291 158.466 25.9428C159.443 24.0423 160.803 22.5803 162.547 21.5571C164.306 20.5189 166.366 20 168.726 20C171.176 20 173.258 20.5482 174.972 21.6447C176.701 22.7411 177.994 24.3057 178.851 26.3377C179.722 28.3698 180.098 30.7896 179.978 33.5964H175.919V32.193C175.874 29.2836 175.265 27.1125 174.093 25.6798C172.92 24.2324 171.176 23.5087 168.861 23.5087C166.381 23.5087 164.494 24.2835 163.201 25.8335C161.908 27.3831 161.262 29.6052 161.262 32.5C161.262 35.2922 161.908 37.4561 163.201 38.991C164.494 40.5263 166.336 41.2936 168.726 41.2936C170.334 41.2936 171.733 40.9355 172.92 40.2194C174.108 39.5028 175.04 38.4721 175.716 37.1273L179.572 38.421C178.625 40.5117 177.197 42.1345 175.288 43.2892C173.394 44.4296 171.266 45 168.906 45ZM159.909 33.5964V30.4605H177.903V33.5964H159.909Z" fill="#233535"/>
<path d="M189 45V12H209V15.8731H192.912V26.2083H206.363V30.0814H192.912V41.1272H209V45H189Z" fill="#233535"/>
<path d="M215.602 55L220.106 42.2564L220.17 46.0257L210 20H214.029L222.002 40.9329H220.623L228.1 20H232L219.33 55H215.602Z" fill="#233535"/>
<path d="M242.906 45C240.516 45 238.426 44.4882 236.637 43.4647C234.864 42.4269 233.481 40.9867 232.488 39.1447C231.496 37.2881 231 35.1242 231 32.6533C231 30.0659 231.489 27.8291 232.466 25.9428C233.443 24.0423 234.804 22.5803 236.547 21.5571C238.306 20.5189 240.366 20 242.726 20C245.176 20 247.258 20.5482 248.972 21.6447C250.701 22.7411 251.994 24.3057 252.851 26.3377C253.723 28.3698 254.098 30.7896 253.978 33.5964H249.919V32.193C249.874 29.2836 249.265 27.1125 248.093 25.6798C246.92 24.2324 245.176 23.5087 242.861 23.5087C240.381 23.5087 238.494 24.2835 237.201 25.8335C235.908 27.3831 235.262 29.6052 235.262 32.5C235.262 35.2922 235.908 37.4561 237.201 38.991C238.494 40.5263 240.335 41.2936 242.726 41.2936C244.334 41.2936 245.733 40.9355 246.92 40.2194C248.108 39.5028 249.04 38.4721 249.716 37.1273L253.572 38.421C252.625 40.5117 251.197 42.1345 249.288 43.2892C247.394 44.4296 245.266 45 242.906 45ZM233.909 33.5964V30.4605H251.904V33.5964H233.909Z" fill="#233535"/>
<path d="M222.145 12C221.048 12 220.116 11.7678 219.35 11.3034C218.585 10.8389 218 10.1938 217.597 9.36751C217.199 8.54127 217 7.58544 217 6.50001C217 5.41458 217.199 4.45909 217.597 3.63284C218 2.8066 218.585 2.16108 219.35 1.69664C220.116 1.23221 221.048 1 222.145 1C223.421 1 224.47 1.31067 225.292 1.93132C226.119 2.55231 226.689 3.38836 227 4.43946L225.614 4.79147C225.389 4.00445 224.989 3.38346 224.412 2.92883C223.835 2.47421 223.08 2.2469 222.145 2.2469C221.323 2.2469 220.639 2.42517 220.093 2.78208C219.547 3.13898 219.136 3.63774 218.861 4.278C218.585 4.91371 218.444 5.65415 218.439 6.50001C218.434 7.34096 218.57 8.08174 218.845 8.722C219.121 9.35771 219.534 9.85647 220.086 10.2179C220.637 10.5748 221.323 10.7535 222.145 10.7535C223.08 10.7535 223.835 10.5261 224.412 10.0715C224.989 9.61199 225.389 8.991 225.614 8.20888L227 8.56088C226.689 9.60708 226.119 10.4431 225.292 11.0687C224.47 11.6897 223.421 12 222.145 12Z" fill="#233535"/>
<path d="M230.996 12C230.171 12 229.459 11.8294 228.86 11.4879C228.265 11.1463 227.807 10.6737 227.484 10.0701C227.161 9.46673 227 8.77426 227 7.99296C227 7.19759 227.164 6.50041 227.492 5.90179C227.82 5.30283 228.283 4.83727 228.883 4.50511C229.482 4.16826 230.187 4 230.996 4C231.826 4 232.541 4.1706 233.14 4.51215C233.74 4.849 234.198 5.31925 234.516 5.92257C234.839 6.52153 235 7.21166 235 7.99296C235 8.78365 234.839 9.48082 234.516 10.0841C234.193 10.6831 233.732 11.1533 233.133 11.4949C232.533 11.8317 231.821 12 230.996 12ZM230.996 10.8141C231.857 10.8141 232.497 10.552 232.917 10.0282C233.338 9.50427 233.548 8.82588 233.548 7.99296C233.548 7.13692 233.335 6.45618 232.91 5.95073C232.485 5.44093 231.847 5.18585 230.996 5.18585C230.417 5.18585 229.941 5.30518 229.567 5.54382C229.193 5.78247 228.914 6.11228 228.729 6.53326C228.545 6.95425 228.453 7.44093 228.453 7.99296C228.453 8.84431 228.668 9.52741 229.098 10.0422C229.529 10.5567 230.161 10.8141 230.996 10.8141Z" fill="#233535"/>
<path d="M241.674 12V8.0938C241.674 7.72308 241.639 7.36684 241.57 7.02509C241.506 6.68334 241.391 6.37779 241.224 6.10812C241.062 5.83395 240.841 5.61704 240.561 5.4584C240.286 5.29942 239.937 5.2201 239.515 5.2201C239.186 5.2201 238.886 5.27529 238.616 5.38599C238.351 5.4922 238.122 5.65566 237.93 5.87706C237.739 6.09845 237.589 6.37779 237.481 6.71472C237.378 7.04682 237.326 7.43926 237.326 7.89172L236.464 7.63169C236.464 6.87611 236.602 6.22847 236.877 5.68946C237.157 5.14562 237.547 4.72903 238.048 4.44039C238.554 4.14657 239.149 4 239.831 4C240.347 4 240.787 4.07932 241.15 4.23795C241.514 4.39693 241.816 4.60867 242.057 4.87352C242.297 5.13354 242.487 5.42702 242.624 5.75429C242.761 6.07708 242.857 6.40676 242.911 6.74368C242.97 7.07578 243 7.39098 243 7.68963V12H241.674ZM236 12V4.20209H237.179V6.28882H237.326V12H236Z" fill="#233535"/>
<path d="M247.12 12C246.262 12 245.558 11.8034 245.007 11.4102C244.46 11.012 244.124 10.4572 244 9.7453L245.214 9.54166C245.311 9.95395 245.535 10.2817 245.887 10.5249C246.238 10.7638 246.674 10.8832 247.193 10.8832C247.687 10.8832 248.073 10.7755 248.354 10.5602C248.633 10.3448 248.773 10.0522 248.773 9.68222C248.773 9.46685 248.727 9.29342 248.633 9.16258C248.54 9.02672 248.347 8.90024 248.053 8.78316C247.765 8.66608 247.327 8.52551 246.74 8.3618C246.104 8.18367 245.605 7.99883 245.24 7.80694C244.876 7.61471 244.616 7.3923 244.46 7.13969C244.304 6.88674 244.227 6.58012 244.227 6.21948C244.227 5.77465 244.342 5.38583 244.573 5.05338C244.805 4.71623 245.127 4.45658 245.54 4.27375C245.958 4.09125 246.442 4 246.993 4C247.54 4 248.029 4.09125 248.46 4.27375C248.891 4.45658 249.238 4.71623 249.5 5.05338C249.767 5.38583 249.925 5.77465 249.973 6.21948L248.76 6.4513C248.702 6.0437 248.516 5.72298 248.2 5.48882C247.889 5.25466 247.487 5.13088 246.993 5.11679C246.527 5.098 246.147 5.18455 245.853 5.37644C245.565 5.56867 245.42 5.82832 245.42 6.15608C245.42 6.33891 245.473 6.49557 245.58 6.62674C245.691 6.75791 245.893 6.88204 246.187 6.99912C246.485 7.1162 246.916 7.24972 247.48 7.39934C248.116 7.56808 248.616 7.75292 248.98 7.95421C249.349 8.15113 249.611 8.38529 249.767 8.65668C249.922 8.92372 250 9.25383 250 9.64701C250 10.3777 249.745 10.9537 249.234 11.375C248.722 11.7917 248.018 12 247.12 12Z" fill="#233535"/>
<path d="M256 11.8875C255.469 11.9782 254.943 12.0142 254.423 11.995C253.909 11.9806 253.449 11.8923 253.045 11.7298C252.642 11.5628 252.334 11.3048 252.124 10.956C251.947 10.6505 251.85 10.3425 251.834 10.0317C251.823 9.71655 251.817 9.36065 251.817 8.96437V2H253.295V8.90688C253.295 9.22206 253.297 9.49206 253.303 9.71655C253.314 9.94104 253.372 10.1344 253.477 10.2969C253.676 10.6025 253.992 10.7819 254.423 10.8342C254.86 10.8869 255.386 10.8725 256 10.7914V11.8875ZM250 5.20277V4.14944H256V5.20277H250Z" fill="#233535"/>
<path d="M257 12V4.05949H258.142V5.97824L257.955 5.72857C258.046 5.48345 258.164 5.25802 258.307 5.05188C258.456 4.8461 258.621 4.67719 258.802 4.5448C259.004 4.378 259.231 4.25052 259.485 4.16238C259.739 4.07424 259.997 4.02261 260.26 4.00787C260.524 3.9882 260.77 4.00541 261 4.05949V5.28716C260.732 5.21376 260.438 5.1941 260.117 5.22852C259.796 5.26293 259.499 5.38268 259.226 5.58881C258.977 5.77001 258.784 5.99054 258.645 6.2504C258.511 6.51026 258.417 6.79189 258.365 7.096C258.312 7.39484 258.285 7.70141 258.285 8.015V12H257Z" fill="#233535"/>
<path d="M264.172 12C263.66 12 263.22 11.9207 262.851 11.7617C262.487 11.6031 262.185 11.3913 261.944 11.1265C261.703 10.8616 261.514 10.5682 261.376 10.2457C261.238 9.92292 261.14 9.59324 261.081 9.25632C261.027 8.91939 261 8.60419 261 8.31037V4H262.328V7.9062C262.328 8.27209 262.362 8.62592 262.431 8.96767C262.5 9.30942 262.615 9.61738 262.777 9.89188C262.945 10.166 263.166 10.3826 263.441 10.5416C263.722 10.7006 264.071 10.7799 264.489 10.7799C264.818 10.7799 265.118 10.7244 265.389 10.6137C265.659 10.503 265.89 10.3395 266.082 10.1229C266.274 9.90155 266.421 9.62222 266.525 9.28529C266.628 8.94836 266.68 8.55591 266.68 8.10828L267.543 8.36831C267.543 9.11906 267.402 9.76671 267.122 10.3105C266.847 10.8544 266.456 11.2734 265.949 11.5669C265.448 11.8559 264.855 12 264.172 12ZM266.827 11.7979V9.71118H266.68V4H268V11.7979H266.827Z" fill="#233535"/>
<path d="M273.217 12C272.322 12 271.56 11.8294 270.933 11.4879C270.31 11.1416 269.835 10.6667 269.508 10.0634C269.18 9.4597 269.011 8.77191 269 8C269.011 7.20932 269.183 6.5145 269.516 5.91587C269.855 5.31222 270.338 4.84196 270.965 4.50511C271.593 4.16826 272.349 4 273.233 4C274.167 4 274.969 4.19641 275.641 4.58924C276.317 4.9824 276.771 5.52036 277 6.20346L275.559 6.5755C275.373 6.13575 275.07 5.7942 274.65 5.55086C274.235 5.30752 273.758 5.18585 273.217 5.18585C272.611 5.18585 272.112 5.30752 271.719 5.55086C271.325 5.7895 271.034 6.12167 270.842 6.54735C270.651 6.96833 270.553 7.45266 270.548 8C270.559 8.84196 270.785 9.52272 271.227 10.0422C271.675 10.5567 272.338 10.8141 273.217 10.8141C273.796 10.8141 274.276 10.7019 274.658 10.4773C275.04 10.248 275.33 9.91822 275.526 9.48785L277 9.81767C276.694 10.5239 276.216 11.0645 275.567 11.4386C274.917 11.813 274.134 12 273.217 12Z" fill="#233535"/>
<path d="M282 11.8875C281.558 11.9782 281.119 12.0142 280.686 11.995C280.257 11.9806 279.874 11.8923 279.538 11.7298C279.201 11.5628 278.946 11.3048 278.771 10.956C278.623 10.6505 278.542 10.3425 278.528 10.0317C278.519 9.71655 278.515 9.36065 278.515 8.96437V2H279.745V8.90688C279.745 9.22206 279.748 9.49206 279.752 9.71655C279.762 9.94104 279.81 10.1344 279.898 10.2969C280.064 10.6025 280.327 10.7819 280.686 10.8342C281.05 10.8869 281.488 10.8725 282 10.7914V11.8875ZM277 5.20277V4.14944H282V5.20277H277Z" fill="#233535"/>
<path d="M283 2.39125V1H284V2.39125H283ZM283 12V3.83521H284V12H283Z" fill="#233535"/>
<path d="M288.996 12C288.171 12 287.459 11.8294 286.86 11.4879C286.265 11.1463 285.807 10.6737 285.484 10.0701C285.161 9.46673 285 8.77426 285 7.99296C285 7.19759 285.164 6.50041 285.492 5.90179C285.82 5.30283 286.283 4.83727 286.883 4.50511C287.482 4.16826 288.187 4 288.996 4C289.826 4 290.541 4.1706 291.14 4.51215C291.739 4.849 292.198 5.31925 292.516 5.92257C292.839 6.52153 293 7.21166 293 7.99296C293 8.78365 292.839 9.48082 292.516 10.0841C292.193 10.6831 291.732 11.1533 291.132 11.4949C290.533 11.8317 289.821 12 288.996 12ZM288.996 10.8141C289.857 10.8141 290.497 10.552 290.917 10.0282C291.337 9.50427 291.547 8.82588 291.547 7.99296C291.547 7.13692 291.335 6.45618 290.91 5.95073C290.484 5.44093 289.847 5.18585 288.996 5.18585C288.417 5.18585 287.941 5.30518 287.567 5.54382C287.193 5.78247 286.913 6.11228 286.729 6.53326C286.544 6.95425 286.452 7.44093 286.452 7.99296C286.452 8.84431 286.668 9.52741 287.098 10.0422C287.528 10.5567 288.161 10.8141 288.996 10.8141Z" fill="#233535"/>
<path d="M299.674 12V8.0938C299.674 7.72308 299.639 7.36684 299.57 7.02509C299.507 6.68334 299.391 6.37779 299.224 6.10812C299.062 5.83395 298.841 5.61704 298.561 5.4584C298.286 5.29942 297.937 5.2201 297.515 5.2201C297.186 5.2201 296.886 5.27529 296.616 5.38599C296.351 5.4922 296.122 5.65566 295.931 5.87706C295.739 6.09845 295.589 6.37779 295.481 6.71472C295.378 7.04682 295.326 7.43926 295.326 7.89172L294.464 7.63169C294.464 6.87611 294.602 6.22847 294.877 5.68946C295.157 5.14562 295.548 4.72903 296.048 4.44039C296.554 4.14657 297.149 4 297.832 4C298.347 4 298.787 4.07932 299.151 4.23795C299.514 4.39693 299.816 4.60867 300.057 4.87352C300.297 5.13354 300.487 5.42702 300.624 5.75429C300.762 6.07708 300.858 6.40676 300.912 6.74368C300.971 7.07578 301 7.39098 301 7.68963V12H299.674ZM294 12V4.20209H295.179V6.28882H295.326V12H294Z" fill="#233535"/>
</svg>
