<svg width="233" height="58" viewBox="0 0 233 58" fill="none" xmlns="http://www.w3.org/2000/svg">
<path fill-rule="evenodd" clip-rule="evenodd" d="M32.9231 24.2588L36.1508 20.9817C32.0368 17.7369 27.0256 16.1523 22.0581 16.1523C13.4253 16.1523 3.96084 21.2943 0.897206 31.158C0.306363 33.066 0 35.0495 0 37.0761C0 39.1028 0.306363 41.0971 0.897206 42.9943C3.96084 52.858 13.4253 58 22.0581 58C27.3101 58 32.6058 56.2321 36.8401 52.5993V38.4236H27.7806C29.5969 41.5498 29.8266 44.8485 29.8266 48.988V53.0628L29.2577 53.4509C27.0694 54.9493 24.6075 55.747 22.0581 55.747C13.3377 55.747 7.09012 46.7996 7.09012 37.0977C7.09012 27.3958 13.3377 18.4484 22.0581 18.4484C26.3035 18.4484 30.1768 20.6583 32.9231 24.2696V24.2588Z" fill="#999999"/>
<path fill-rule="evenodd" clip-rule="evenodd" d="M148.17 16.2277C150.107 19.548 150.348 23.0622 150.348 27.4604V57.9138H157.81V16.2277H148.17Z" fill="#999999"/>
<path fill-rule="evenodd" clip-rule="evenodd" d="M205.723 16.2277C207.222 21.8117 203.819 29.3146 201.871 34.2087L192.44 57.9245H194.562C194.88 57.0514 195.208 56.189 195.536 55.3266C196.007 54.0761 196.641 52.9227 197.407 51.8878C198.261 50.7451 199.322 49.9043 200.515 49.2898C202.003 48.5244 203.764 48.3196 205.373 48.3196H220.735L224.444 57.9353H233C230.713 52.2327 228.448 46.5301 226.205 40.8168C223.7 34.4458 221.128 28.118 218.601 21.7578L216.413 16.2385H205.723V16.2277ZM198.972 46.6918L210.001 20.2702L220.133 46.6918H198.972Z" fill="#999999"/>
<path fill-rule="evenodd" clip-rule="evenodd" d="M86.5366 16.2277C88.0356 21.8117 84.6328 29.3146 82.6852 34.2087L73.2536 57.9245H75.3762C75.6935 57.0514 76.0218 56.189 76.35 55.3266C76.8205 54.0761 77.4551 52.9227 78.221 51.8878C79.0745 50.7451 80.1358 49.9043 81.3284 49.2898C82.8165 48.5244 84.5781 48.3196 86.1865 48.3196H101.548L105.258 57.9353H113.814C111.527 52.2327 109.262 46.5301 107.019 40.8168C104.514 34.4458 101.942 28.118 99.4148 21.7578L97.2265 16.2385H86.5366V16.2277ZM79.7857 46.6918L90.8147 20.2702L100.947 46.6918H79.7857Z" fill="#999999"/>
<path d="M147.995 9.37182C149.057 8.34773 150.129 7.33441 151.179 6.29954C152.7 4.81191 154.188 3.30271 155.709 1.8043C156.42 1.10361 157.175 0.47837 158.149 0.154971C159.101 -0.168427 159.648 0.00405214 160.162 0.769428C160.698 1.54558 160.698 2.30018 160.042 2.95776C159.484 3.51831 158.871 4.03575 158.204 4.46695C155.643 6.1055 153.05 7.71171 150.468 9.30714C150.293 9.41494 150.052 9.47962 149.833 9.47962C149.243 9.50118 148.652 9.47962 148.061 9.47962C148.039 9.4365 148.017 9.40416 147.995 9.36104V9.37182Z" fill="#999999"/>
</svg>
