<svg width="230" height="120" viewBox="0 0 230 120" fill="none" xmlns="http://www.w3.org/2000/svg">
<g clip-path="url(#clip0_14_57)">
<path d="M102.044 0H76.6533V26.8213H102.044V0Z" fill="#143F90"/>
<path d="M77.108 26.7676H51.7041V53.5889H77.108V26.7676Z" fill="#143F90"/>
<path d="M102.044 53.4824H76.6533V80.3037H102.044V53.4824Z" fill="#143F90"/>
<path d="M152.852 0H127.461V26.8213H152.852V0Z" fill="#F47C20"/>
<path d="M178.296 26.7676H152.892V53.5889H178.296V26.7676Z" fill="#F47C20"/>
<path d="M152.852 53.4824H127.461V80.3037H152.852V53.4824Z" fill="#F47C20"/>
<path d="M135.809 119.705C135.505 119.671 135.208 119.594 134.926 119.478C134.607 119.353 134.316 119.167 134.07 118.929C133.769 118.635 133.536 118.279 133.387 117.885C133.2 117.431 133.109 116.944 133.12 116.453V101.57C133.1 101.249 133.1 100.927 133.12 100.607C133.142 100.266 133.205 99.9286 133.307 99.6027C133.402 99.2673 133.561 98.9536 133.775 98.6792C134.063 98.3391 134.424 98.069 134.832 97.8896C135.296 97.6843 135.796 97.575 136.304 97.5684H145.869C146.658 97.573 147.444 97.6719 148.21 97.8628C148.971 98.058 149.7 98.3599 150.377 98.7595C151.765 99.5705 152.804 100.867 153.293 102.4C153.587 103.268 153.784 104.166 153.882 105.077C153.995 106.22 154.048 107.368 154.042 108.516C154.049 109.773 153.987 111.028 153.855 112.277C153.769 113.212 153.59 114.136 153.32 115.034C153.121 115.715 152.819 116.36 152.424 116.948C152.057 117.486 151.605 117.961 151.086 118.354C150.47 118.793 149.788 119.132 149.066 119.357C148.2 119.626 147.296 119.753 146.39 119.732H136.544C136.295 119.757 136.044 119.757 135.795 119.732M143.742 114.178C144.202 114.114 144.652 113.988 145.079 113.803C145.486 113.622 145.843 113.347 146.123 113C146.279 112.811 146.406 112.599 146.497 112.371C146.676 111.941 146.806 111.492 146.885 111.033C147.005 110.213 147.063 109.385 147.059 108.557C147.077 107.56 146.942 106.567 146.658 105.612C146.468 104.976 146.123 104.396 145.654 103.926C145.347 103.649 144.988 103.435 144.598 103.297C144.191 103.155 143.769 103.065 143.34 103.029C142.872 103.029 142.377 103.029 141.829 103.029H141.334C141.146 103.016 140.959 103.016 140.772 103.029C140.594 103.066 140.425 103.139 140.277 103.243C140.095 103.405 139.969 103.621 139.916 103.859C139.877 104.062 139.855 104.268 139.849 104.474V112.652C139.849 112.88 139.849 113.107 139.849 113.335C139.877 113.564 139.975 113.779 140.13 113.95C140.25 114.071 140.396 114.163 140.558 114.218C140.701 114.266 140.849 114.297 140.999 114.312H141.24H142.163C142.696 114.288 143.228 114.235 143.755 114.151L143.742 114.178Z" fill="#A7A9AC"/>
<path d="M183.446 119.799H175.661C174.636 119.82 173.611 119.753 172.597 119.598C171.74 119.471 170.911 119.194 170.149 118.782C169.379 118.358 168.705 117.779 168.169 117.082C167.713 116.508 167.339 115.872 167.059 115.195C166.733 114.364 166.509 113.496 166.39 112.612C166.228 111.414 166.152 110.207 166.162 108.998C166.147 107.863 166.196 106.728 166.31 105.599C166.398 104.639 166.59 103.692 166.885 102.775C167.146 101.956 167.549 101.191 168.075 100.513C168.692 99.706 169.49 99.0552 170.403 98.6122C171.245 98.198 172.149 97.9223 173.079 97.7957C173.965 97.6723 174.859 97.6141 175.754 97.6218H185.038V103.136H179.179C178.403 103.136 177.694 103.136 177.065 103.136C176.479 103.174 175.906 103.329 175.38 103.591C174.858 103.874 174.434 104.308 174.162 104.836C173.944 105.257 173.786 105.708 173.694 106.174C173.588 106.645 173.521 107.124 173.493 107.606C173.493 108.088 173.493 108.503 173.493 108.945C173.493 109.761 173.493 110.403 173.587 110.912C173.629 111.292 173.701 111.668 173.801 112.036C173.863 112.233 173.939 112.426 174.028 112.612C174.33 113.155 174.8 113.587 175.366 113.843C175.953 114.094 176.576 114.248 177.212 114.298C177.895 114.298 178.63 114.298 179.42 114.298H185.159V119.799H183.446Z" fill="#A7A9AC"/>
<path d="M157.24 119.745V97.5684H164.022V119.745H157.24Z" fill="#A7A9AC"/>
<path d="M114.271 119.626C113.86 119.532 113.474 119.35 113.141 119.091C112.808 118.832 112.536 118.502 112.345 118.127C112.213 117.834 112.132 117.522 112.104 117.203C112.077 116.869 112.077 116.533 112.104 116.199V101.062C112.089 100.61 112.143 100.159 112.264 99.7237C112.395 99.2587 112.65 98.8378 113 98.5057C113.375 98.1489 113.836 97.8953 114.338 97.7696C114.775 97.656 115.225 97.602 115.676 97.609H130.552V102.963H120.171C119.98 102.936 119.786 102.936 119.595 102.963C119.419 103.007 119.255 103.089 119.114 103.203C118.967 103.348 118.868 103.535 118.833 103.739C118.808 103.921 118.808 104.106 118.833 104.288V105.961H130.284V110.779H118.833V113.188C118.823 113.371 118.855 113.554 118.926 113.723C118.967 113.837 119.036 113.938 119.127 114.018C119.298 114.169 119.515 114.259 119.743 114.272C119.969 114.292 120.198 114.292 120.425 114.272H130.672V119.626H115.569C115.12 119.642 114.67 119.601 114.231 119.505" fill="#A7A9AC"/>
<path d="M92.693 119.799C92.2614 119.669 91.8639 119.445 91.5292 119.143C91.2462 118.87 91.015 118.548 90.8469 118.193C90.678 117.824 90.535 117.444 90.4188 117.055L87.128 106.348C87.0818 106.163 87.0145 105.983 86.9273 105.813C86.9273 105.652 86.7801 105.572 86.6999 105.559C86.6594 105.563 86.6211 105.579 86.59 105.605C86.559 105.631 86.5366 105.666 86.526 105.706C86.5107 105.803 86.5107 105.903 86.526 106V106.295L86.6731 119.799H79.7168V101.222C79.6908 100.562 79.8384 99.9067 80.1449 99.3216C80.4051 98.8461 80.7827 98.4452 81.2418 98.1572C81.6569 97.8972 82.1075 97.6988 82.5796 97.5683C83.0193 97.4596 83.4664 97.3836 83.9173 97.3408H84.8939C85.3815 97.3408 85.8685 97.3721 86.3521 97.4345C86.8854 97.5053 87.4044 97.6588 87.8905 97.8896C88.4077 98.1586 88.8632 98.5323 89.2282 98.987C89.7622 99.5902 90.1673 100.296 90.4188 101.062L93.8569 111.769C93.8569 111.849 93.9371 111.969 94.004 112.13C94.0681 112.281 94.1489 112.425 94.2448 112.558C94.3384 112.706 94.4187 112.772 94.5123 112.772C94.606 112.772 94.6729 112.772 94.7665 112.558C94.8625 112.425 94.9432 112.281 95.0073 112.13C95.0626 112.014 95.1074 111.893 95.1411 111.769L98.5925 101.062C98.8128 100.32 99.1764 99.6288 99.6627 99.0272C100.026 98.5705 100.482 98.1964 101 97.9297C101.487 97.699 102.006 97.5454 102.539 97.4747C103.031 97.4118 103.527 97.3805 104.024 97.381C104.994 97.3642 105.961 97.5043 106.887 97.7959C107.492 97.9986 108.036 98.3535 108.465 98.8264C108.792 99.2125 109.021 99.6715 109.134 100.165C109.227 100.555 109.272 100.955 109.268 101.356V119.799H102.459L102.699 106.308C102.717 106.108 102.69 105.907 102.619 105.719C102.619 105.625 102.499 105.572 102.432 105.572C102.365 105.572 102.311 105.572 102.231 105.746C102.138 105.944 102.062 106.15 102.004 106.362L98.6995 117.069C98.5938 117.459 98.455 117.84 98.2848 118.206C98.1165 118.565 97.8803 118.888 97.5892 119.157C97.2616 119.461 96.8678 119.686 96.4387 119.812C95.8376 119.977 95.2158 120.054 94.5926 120.04C93.9651 120.053 93.339 119.977 92.7331 119.812" fill="#A7A9AC"/>
<path d="M212.89 119.598C212.507 119.492 212.151 119.305 211.847 119.05C211.569 118.804 211.346 118.503 211.191 118.166C210.997 117.747 210.901 117.289 210.91 116.828V97.5684H217.693V112.866C217.669 113.044 217.669 113.224 217.693 113.402C217.729 113.606 217.822 113.796 217.96 113.95C218.108 114.07 218.282 114.153 218.469 114.191C218.66 114.21 218.852 114.21 219.044 114.191H229.933V119.799H214.121C213.706 119.804 213.292 119.754 212.89 119.652" fill="#A7A9AC"/>
<path d="M63.4227 119.799L56.734 111.22C56.42 110.817 56.1758 110.365 56.0116 109.882C55.8407 109.41 55.7547 108.911 55.7574 108.409C55.7593 108.118 55.7862 107.827 55.8377 107.539C55.9002 107.248 55.9851 106.961 56.0918 106.683C56.1794 106.431 56.3009 106.192 56.453 105.973L62.3258 97.5684H70.8071L63.115 106.736C62.9378 106.953 62.7894 107.191 62.6736 107.446C62.5402 107.717 62.4671 108.014 62.4595 108.316C62.4566 108.618 62.5111 108.917 62.6201 109.199C62.7976 109.633 63.0513 110.032 63.3692 110.377L71.9843 119.745L63.4227 119.799Z" fill="#A7A9AC"/>
<path d="M54.7009 97.5684H47.5439V119.745H54.7009V97.5684Z" fill="#A7A9AC"/>
<path d="M0 119.745V97.5684H6.78241V105.425H14.3942V97.5684H21.19V119.745H14.3942V110.939H6.78241V119.745H0Z" fill="#A7A9AC"/>
<path d="M182.724 119.799L190.871 100.072C191.022 99.6727 191.225 99.2949 191.473 98.9474C191.714 98.6107 192.018 98.3243 192.369 98.1042C192.804 97.8363 193.285 97.6503 193.787 97.5555C194.484 97.4271 195.192 97.3643 195.901 97.3681C196.573 97.3517 197.246 97.4056 197.907 97.5287C198.537 97.6322 199.133 97.8846 199.646 98.2648C200.238 98.744 200.698 99.3658 200.984 100.072L209.037 119.799H201.546L199.82 115.236H191.887L190.148 119.799H182.724ZM198.161 110.176L196.101 104.515L195.967 104.221C195.967 104.1 195.86 104.047 195.807 104.033C195.753 104.02 195.713 104.033 195.66 104.221C195.607 104.315 195.562 104.413 195.526 104.515L193.546 110.123L198.161 110.176Z" fill="#A7A9AC"/>
<path d="M21.1768 119.799L29.3237 100.071C29.4863 99.6775 29.688 99.3009 29.9257 98.9472C30.1702 98.6135 30.474 98.3277 30.822 98.104C31.2572 97.8361 31.7378 97.6501 32.24 97.5553C32.9373 97.4282 33.6448 97.3655 34.3536 97.3679C35.0307 97.3522 35.7076 97.406 36.3736 97.5285C36.9989 97.634 37.5903 97.8863 38.0993 98.2646C38.691 98.7439 39.1513 99.3656 39.4371 100.071L47.6108 119.799H40.1194L38.3936 115.235H30.3939L28.6682 119.799H21.1768ZM36.6278 110.176L34.6479 104.568L34.5142 104.274C34.5142 104.154 34.4071 104.1 34.3536 104.087C34.3001 104.073 34.26 104.087 34.2065 104.274L34.0727 104.568L32.0928 110.176H36.6278Z" fill="#A7A9AC"/>
</g>
<defs>
<clipPath id="clip0_14_57">
<rect width="230" height="120" fill="white"/>
</clipPath>
</defs>
</svg>
