<svg width="219" height="231" viewBox="0 0 219 231" fill="none" xmlns="http://www.w3.org/2000/svg">
<g clip-path="url(#clip0_14_16)">
<path d="M194.233 231V228.294L196.617 224.374H195.653L193.822 227.455L191.997 224.374H191.026L193.41 228.294V231.03L194.233 231ZM175.631 224.337V225.124H177.955V231.007H178.779V225.124H181.111V224.337H175.631ZM163.487 225.352L164.877 228.845H162.089L163.487 225.352ZM165.738 230.978H166.606L163.891 224.322H163.082L160.353 230.978H161.236L161.78 229.617H165.186L165.738 230.978ZM143.369 224.315V230.978H144.2V225.97L146.731 229.161L149.261 225.97V230.978H150.092V224.315H149.651L146.709 227.955L143.766 224.315H143.369ZM128.474 224.315V230.978H132.887V230.198H129.305V224.315H128.474ZM115.079 225.352L116.469 228.845H113.682L115.079 225.352ZM117.33 230.978H118.198L115.484 224.322H114.675L111.946 230.978H112.821L113.373 229.617H116.778L117.33 230.978ZM85.7522 224.315V230.978H90.1656V230.198H86.5761V224.315H85.7522ZM70.7614 224.315V230.978H75.1748V230.206H71.5926V227.705H74.4098V226.97H71.5926V225.124H75.1748V224.344L70.7614 224.315ZM54.8143 224.315V225.102H57.1313V230.985H57.9625V225.102H60.2869V224.315H54.8143ZM44.1486 227.646C44.1472 228.148 43.9969 228.638 43.7169 229.055C43.4368 229.471 43.0395 229.795 42.5753 229.986C42.111 230.177 41.6006 230.226 41.1086 230.126C40.6167 230.027 40.1652 229.784 39.8113 229.428C39.4575 229.072 39.2171 228.619 39.1206 228.127C39.0241 227.634 39.0758 227.124 39.2692 226.661C39.4626 226.198 39.7891 225.803 40.2072 225.525C40.6253 225.248 41.1164 225.1 41.6183 225.102C41.9569 225.091 42.2939 225.151 42.6085 225.277C42.9231 225.402 43.2083 225.591 43.4465 225.832C43.6846 226.073 43.8705 226.361 43.9926 226.676C44.1147 226.992 44.1703 227.33 44.156 227.669L44.1486 227.646ZM44.9945 227.646C45.0033 226.977 44.8127 226.32 44.4471 225.759C44.0815 225.198 43.5573 224.759 42.9412 224.496C42.3251 224.234 41.6449 224.161 40.9871 224.286C40.3293 224.411 39.7236 224.729 39.247 225.2C38.7704 225.67 38.4444 226.271 38.3105 226.927C38.1766 227.583 38.2409 228.264 38.4951 228.884C38.7492 229.503 39.1819 230.033 39.738 230.406C40.2942 230.779 40.9487 230.978 41.6183 230.978C42.0596 230.99 42.4989 230.913 42.9099 230.752C43.321 230.591 43.6954 230.348 44.011 230.04C44.3266 229.731 44.577 229.362 44.7472 228.955C44.9174 228.547 45.004 228.11 45.0019 227.669L44.9945 227.646ZM26.8922 224.315V226.948H23.2144V224.315H22.3979V230.978H23.2291V227.727H26.907V230.978H27.7382V224.315H26.8922Z" fill="#050008"/>
<path d="M147.201 121.733L136.727 136.648L134.138 137.494L147.201 118.637V121.733ZM147.201 126.146L139.721 135.854L139.559 135.949L137.19 136.494L147.201 123.255V126.146ZM147.201 129.889L142.641 135.339L140.324 135.766L147.201 127.411V129.889ZM147.201 133.464L145.634 135.111L143.428 135.243L147.172 131.066L147.201 133.464ZM71.7983 81.9815L82.2728 96.8966L84.862 97.7497L71.7983 78.922V81.9815ZM71.7983 86.3943L79.2791 96.0729L79.4409 96.1758L81.8168 96.7127L71.7983 83.4745V86.3943ZM71.7983 90.1377L76.3662 95.5948L78.6833 96.0214L71.7983 87.6592V90.1377ZM71.7983 93.7121L73.3725 95.3669L75.5792 95.4992L71.8352 91.3145L71.7983 93.7121ZM147.201 116.622L133.77 137.634C132.913 137.972 132.075 138.357 131.261 138.788C126.01 141.281 121.4 144.944 117.786 149.495C114.171 154.046 111.647 159.366 110.408 165.044L109.673 169.575C109.614 159.131 109.673 148.695 109.584 138.259C109.54 129.352 109.452 120.439 109.386 111.532C109.386 117.637 109.369 123.743 109.334 129.852L108.599 125.322C107.364 119.642 104.845 114.32 101.234 109.765C97.623 105.21 93.0164 101.543 87.7675 99.0441C86.9436 98.6352 86.099 98.2695 85.2371 97.9483L71.7983 76.9363V73.3252L87.5616 98.2793L71.7983 71.0158V67.14L89.0474 97.2937L71.7983 64.3746V60.1458L90.8716 97.1246L71.7983 56.5347V51.5262L92.7032 96.8598L71.7983 46.7751V41.1562L94.2699 96.0802L71.7983 34.9343V28.7049L96.4472 97.1025L71.7983 19.8206V12.7234L98.161 97.6468L71.8866 0L74.0271 3.74348L76.0058 6.8177L99.4924 96.1685L80.7723 12.5469L83.7145 15.3343L101.008 95.0359L87.3041 18.2908C87.9882 18.916 89.0841 19.4014 89.7388 19.9971C89.8589 20.0888 89.9445 20.2184 89.9816 20.3648L102.368 93.0281L92.8061 21.9534L95.2409 23.2184L104.384 94.9476L98.1022 24.5717L100.441 25.4542L105.855 91.8146C106.002 91.8146 105.936 91.6234 105.936 91.513C105.936 91.1232 105.936 90.682 105.936 90.2922C105.936 89.5567 105.789 88.6963 105.752 87.9461C104.818 67.6769 103.766 47.415 102.81 27.1458C102.784 26.8681 102.799 26.5881 102.854 26.3147C102.972 26.3147 104.899 26.881 105.017 26.9398C105.134 26.9987 105.164 27.0207 105.164 27.1458L107.768 95.1756L107.51 27.5135L109.768 27.9474C109.724 39.0308 109.768 50.0994 109.687 61.1828C109.687 63.3156 109.687 65.4558 109.687 67.5886L111.534 67.2356L111.276 134.898L113.887 66.8237C113.887 66.6987 113.939 66.6766 114.035 66.6251C114.13 66.5737 116.079 66 116.19 66C116.251 66.2725 116.269 66.5531 116.241 66.8311C115.263 87.0929 114.218 107.362 113.299 127.631C113.299 128.367 113.145 129.227 113.122 129.97C113.122 130.367 113.122 130.801 113.122 131.198C113.122 131.301 113.056 131.522 113.211 131.5L118.624 65.1395L120.964 64.257L114.689 134.64L123.84 62.9037L126.274 61.6461L116.712 132.721L129.055 60.0869C129.084 59.9372 129.171 59.8051 129.298 59.7192C129.952 59.1235 131.048 58.6307 131.732 58.0129L118.021 134.751L135.314 55.0564L138.257 52.269L119.492 135.883L143.031 46.5324L145.009 43.4582L147.15 39.7221L120.816 137.369L147.201 52.4382V59.5353L122.56 136.883L147.201 68.4859V74.7152L124.737 135.861L147.201 80.9445V86.5634L126.304 136.648L147.201 91.3071V96.3156L128.128 136.906L147.201 99.934V104.156L129.96 137.097L147.201 106.943V110.826L131.438 138.082L147.201 113.128V116.622Z" fill="#CD9E6E"/>
<path d="M18.2788 206.899H15.697L5.80361 192.572L2.22141 196.477V206.899H0V181.82H2.22141V195.257L14.4759 181.82H15.6234L7.20119 191.028L7.27475 190.991L18.2788 206.899Z" fill="#050008"/>
<path d="M35.2999 197.404L30.2833 185.225C29.3761 187.446 27.9418 190.879 25.9803 195.522C29.6385 194.11 32.745 194.73 35.2999 197.382M21.2212 206.943H20.5371L30.835 181.864L41.589 206.943H39.2426L36.771 200.891C36.4405 200.277 36.0745 199.682 35.675 199.111C35.2097 198.472 34.6633 197.896 34.0495 197.397C33.3944 196.832 32.6483 196.382 31.8428 196.066C30.9338 195.752 29.9681 195.637 29.0108 195.728C27.7995 195.827 26.616 196.143 25.5169 196.662C23.6044 201.177 22.1725 204.592 21.2212 206.907V206.943Z" fill="#050008"/>
<path d="M65.1123 206.899H44.2223L61.6037 182.68H43.9722V181.82H65.1123L47.6647 206.149H65.1123V206.899Z" fill="#050008"/>
<path d="M82.3541 197.404L77.3376 185.225C76.4304 187.446 74.996 190.879 73.0345 195.522C76.6878 194.11 79.7943 194.73 82.3541 197.382M68.268 206.943H67.5913L77.8892 181.864L88.6432 206.943H86.2747L83.8032 200.891C83.4726 200.277 83.1067 199.682 82.7072 199.111C82.2418 198.472 81.6954 197.896 81.0816 197.397C80.4255 196.833 79.6796 196.383 78.8749 196.066C77.9658 195.753 77.0003 195.637 76.043 195.728C74.8317 195.827 73.6481 196.143 72.549 196.662C70.6513 201.177 69.2243 204.592 68.268 206.907V206.943Z" fill="#050008"/>
<path d="M110.342 206.899H107.76L97.8744 192.572L94.2849 196.477V206.899H92.0635V181.82H94.2849V195.257L106.539 181.82H107.687L99.272 191.028L99.3382 190.991L110.342 206.899Z" fill="#050008"/>
<path d="M114.969 206.833V181.754H117.175V195.478C118.128 195.172 119.118 194.997 120.118 194.955C121.03 194.914 121.944 194.985 122.839 195.169C123.683 195.357 124.506 195.628 125.296 195.978C126.041 196.302 126.76 196.686 127.444 197.125C128.086 197.546 128.703 198.006 129.29 198.5C129.901 199.015 130.394 199.464 130.761 199.846C131.129 200.229 131.497 200.626 131.835 201.03V181.754H134.042V206.833H131.835V202.825C131.617 202.486 131.371 202.167 131.1 201.869C130.46 201.124 129.779 200.414 129.062 199.743C128.111 198.843 127.051 198.065 125.907 197.427C124.642 196.724 123.274 196.228 121.854 195.956C120.279 195.66 118.654 195.79 117.146 196.331V206.826L114.969 206.833Z" fill="#050008"/>
<path d="M158.478 200.243C158.498 201.05 158.343 201.851 158.024 202.593C157.706 203.334 157.231 203.998 156.631 204.538C155.4 205.687 153.843 206.427 152.174 206.656C150.433 206.914 148.663 206.914 146.922 206.656C145.274 206.454 143.716 205.792 142.428 204.744C141.855 204.316 141.388 203.762 141.064 203.124C140.74 202.486 140.567 201.782 140.559 201.067H142.295C142.351 201.809 142.551 202.534 142.884 203.2C143.164 203.758 143.548 204.258 144.016 204.671C144.471 205.059 144.992 205.363 145.554 205.568C146.117 205.785 146.701 205.943 147.297 206.039C147.896 206.124 148.501 206.165 149.107 206.164C149.91 206.166 150.712 206.1 151.504 205.965C152.289 205.827 153.054 205.597 153.785 205.281C154.504 204.982 155.124 204.485 155.572 203.847C156.029 203.165 156.26 202.358 156.234 201.538C156.234 200.627 155.911 199.746 155.322 199.052C154.675 198.263 153.877 197.611 152.976 197.132C151.948 196.571 150.89 196.067 149.805 195.625C148.643 195.147 147.488 194.669 146.326 194.154C145.241 193.699 144.182 193.184 143.156 192.609C142.248 192.111 141.454 191.43 140.824 190.609C140.246 189.853 139.933 188.928 139.934 187.976C139.919 186.863 140.3 185.782 141.008 184.924C141.747 184.036 142.695 183.346 143.766 182.916C144.928 182.43 146.15 182.106 147.4 181.952C148.678 181.771 149.974 181.759 151.254 181.916C152.414 182.05 153.544 182.37 154.601 182.864C155.48 183.235 156.229 183.857 156.756 184.652C157.097 185.201 157.271 185.837 157.257 186.483H155.962C155.962 184.816 154.925 183.669 152.851 183.041C150.719 182.446 148.457 182.51 146.363 183.225C144.09 183.894 142.744 184.931 142.31 186.336L142.17 187.196C142.192 188.107 142.518 188.985 143.097 189.689C143.743 190.477 144.544 191.122 145.451 191.587C146.484 192.138 147.547 192.629 148.636 193.058C149.798 193.507 150.953 193.97 152.115 194.433C153.277 194.897 154.322 195.382 155.3 195.904C156.206 196.359 157.006 197.001 157.646 197.787C158.229 198.487 158.547 199.369 158.544 200.28" fill="#050008"/>
<path d="M159.257 182.68V181.82H166.892H169.114H176.749V182.68H169.114V206.899H166.892V182.68H159.257Z" fill="#050008"/>
<path d="M189.724 197.404L184.708 185.225C183.796 187.446 182.361 190.879 180.405 195.522C184.063 194.11 187.169 194.73 189.724 197.382M175.638 206.943H174.954L185.252 181.864L195.999 206.943H193.637L191.166 200.891C190.833 200.278 190.467 199.684 190.07 199.111C189.6 198.473 189.051 197.898 188.437 197.397C187.781 196.833 187.035 196.383 186.23 196.066C185.321 195.753 184.356 195.637 183.398 195.728C182.187 195.826 181.003 196.142 179.904 196.662C178.016 201.177 176.594 204.592 175.638 206.907V206.943Z" fill="#050008"/>
<path d="M201.832 206.899H200.758V181.82L201.832 183.041V183.077L217.926 202.17V181.82H219V206.899L217.926 205.649L201.832 186.549V206.899Z" fill="#050008"/>
</g>
<defs>
<clipPath id="clip0_14_16">
<rect width="219" height="231" fill="white"/>
</clipPath>
</defs>
</svg>
